<svg width="570" height="570" viewBox="0 0 570 570" fill="none" xmlns="http://www.w3.org/2000/svg">
<path d="M324.786 219.53C259.669 175.435 161.105 35.0209 85.2723 157.32C30.7803 245.1 184.087 335.89 249.079 364.321C332.208 400.699 480.875 387.19 501.395 275.88C509.614 231.317 488.616 213.465 448.567 221.605C401.577 231.158 372.78 252.008 324.786 219.53Z" fill="#525298"/>
<path opacity="0.9" d="M324.786 219.53C259.669 175.435 161.105 35.0209 85.2723 157.32C30.7803 245.1 184.087 335.89 249.079 364.321C332.208 400.699 480.875 387.19 501.395 275.88C509.614 231.317 488.616 213.465 448.567 221.605C401.577 231.158 372.78 252.008 324.786 219.53Z" fill="white"/>
<path d="M284.999 487.418C407.073 487.418 506.034 481.641 506.034 474.514C506.034 467.387 407.073 461.609 284.999 461.609C162.925 461.609 63.9648 467.387 63.9648 474.514C63.9648 481.641 162.925 487.418 284.999 487.418Z" fill="#F5F5F5"/>
<path d="M231.454 438.045L224.158 442.742L210.934 427.363L218.23 422.667L231.454 438.045Z" fill="#FF8B7B"/>
<path opacity="0.2" d="M218.241 422.667L210.934 427.363L217.762 435.298L225.058 430.589L218.241 422.667Z" fill="black"/>
<path d="M175.695 463.125L167.305 463.946L158.584 443.996L166.974 443.175L175.695 463.125Z" fill="#FF8B7B"/>
<path opacity="0.2" d="M158.596 444.007L163.087 454.29H171.831L166.975 443.187L158.596 444.007Z" fill="black"/>
<path d="M111.98 193.8C107.762 194.176 107.648 187.017 100.238 190.38C90.822 194.666 94.0026 201.313 86.6496 201.039C79.2966 200.765 74.3718 206.5 76.0134 210.775C77.655 215.05 80.1972 219.097 74.9988 220.818C69.8004 222.539 66.2664 224.056 67.0188 228.365C67.7712 232.674 71.4534 234.407 65.2518 237.154C59.0502 239.902 59.6772 251.78 65.7534 251.792C71.8296 251.803 66.0042 257.72 71.4534 263.739C76.9026 269.758 85.1904 270.579 88.6446 267.615C92.0988 264.651 95.952 262.2 102.45 266.76C108.948 271.32 119.949 272.46 119.447 265.232C118.946 258.005 112.607 253.262 118.581 249.5C124.555 245.738 132.261 243.88 129.844 236.561C128.305 232.001 123.654 228.034 127.405 224.626C133.504 219.085 133.538 206.545 126.059 203.365C121.716 201.529 125.9 192.546 111.98 193.8Z" fill="#263238"/>
<path d="M103.865 250.139C103.66 253.559 103.227 256.603 102.725 259.806C102.223 263.009 101.494 266.133 100.662 269.268C99.8504 272.437 98.818 275.546 97.5722 278.57C96.9566 280.098 96.2498 281.614 95.4974 283.13C95.1212 283.883 94.7108 284.624 94.289 285.353C94.0952 285.73 93.8558 286.094 93.6392 286.493L93.3086 287.029C93.0841 287.386 92.8326 287.725 92.5562 288.044C91.9239 288.758 91.1466 289.329 90.2762 289.72C89.4986 290.072 88.6651 290.284 87.8138 290.347C86.5618 290.419 85.3077 290.248 84.1202 289.845C82.3518 289.237 80.6666 288.41 79.1042 287.383C76.3526 285.583 73.749 283.566 71.318 281.352C66.6313 277.089 62.2612 272.49 58.2422 267.592L61.4798 264.48C63.7598 266.486 66.0398 268.527 68.4224 270.465C70.805 272.403 73.1306 274.352 75.5588 276.165C77.8706 277.944 80.3091 279.552 82.8548 280.976C83.9311 281.586 85.0802 282.057 86.2748 282.378C86.5622 282.467 86.8653 282.494 87.164 282.458H86.936C86.7854 282.531 86.6469 282.627 86.5256 282.743L86.4686 282.8L86.7194 282.332C86.879 282.025 87.0614 281.728 87.2096 281.409C87.5288 280.778 87.8366 280.14 88.133 279.494C88.703 278.194 89.273 276.872 89.729 275.492C90.6866 272.756 91.4846 269.929 92.1914 267.056C92.8982 264.184 93.434 261.254 93.9128 258.301C94.3916 255.349 94.7564 252.328 95.0528 249.523L103.865 250.139Z" fill="#FF8B7B"/>
<path d="M110.488 251.21C110.032 253.969 107.74 259.19 105.928 263.066C104.583 265.871 103.488 267.98 103.488 267.98L101.892 267.273L88.6797 261.391C89.6829 254.266 91.3131 246.571 99.1677 243.071C104.07 240.905 111.297 246.24 110.488 251.21Z" fill="#525298"/>
<path opacity="0.6" d="M110.488 251.21C110.032 253.969 107.74 259.19 105.928 263.066C104.583 265.871 103.488 267.98 103.488 267.98L101.892 267.273L88.6797 261.391C89.6829 254.266 91.3131 246.571 99.1677 243.071C104.07 240.905 111.297 246.24 110.488 251.21Z" fill="black"/>
<path opacity="0.3" d="M105.893 263.066C104.548 265.871 103.453 267.98 103.453 267.98L101.857 267.273C102.074 264.457 102.633 260.023 104.137 258.028C105.077 259.562 105.676 261.28 105.893 263.066Z" fill="black"/>
<path d="M61.9801 267.091L63.0289 259.418L54.4219 262.2C54.4219 262.2 55.7899 266.84 58.8565 268.744L61.9801 267.091Z" fill="#FF8B7B"/>
<path d="M59.1308 252.863L53.123 256.158L54.4227 262.245L63.0296 259.418L59.1308 252.863Z" fill="#FF8B7B"/>
<path d="M221.467 440.439L229.39 434.739C229.525 434.64 229.693 434.593 229.861 434.608C230.028 434.622 230.185 434.697 230.302 434.819L235.694 440.439C235.825 440.585 235.924 440.757 235.984 440.943C236.044 441.13 236.064 441.327 236.042 441.522C236.021 441.717 235.958 441.905 235.859 442.074C235.759 442.243 235.626 442.389 235.466 442.502C232.673 444.44 231.225 445.227 227.737 447.724C225.593 449.263 221.079 452.979 218.115 455.099C215.151 457.22 212.905 454.415 213.943 453.264C218.617 448.111 219.859 444.6 220.6 441.704C220.734 441.195 221.04 440.748 221.467 440.439Z" fill="#263238"/>
<path d="M166.199 461.358H176.459C176.644 461.361 176.823 461.424 176.968 461.537C177.114 461.65 177.22 461.807 177.269 461.985L179.549 470.125C179.604 470.317 179.614 470.52 179.576 470.717C179.539 470.913 179.456 471.098 179.334 471.257C179.212 471.416 179.054 471.543 178.874 471.63C178.693 471.716 178.495 471.759 178.295 471.755C174.67 471.755 172.948 471.755 168.423 471.755H154.583C150.821 471.755 150.023 467.947 151.585 467.605C158.562 466.066 162.586 463.935 164.74 461.905C165.14 461.544 165.661 461.349 166.199 461.358Z" fill="#263238"/>
<path d="M150.536 282.105L116.94 292.729C93.6839 246.696 97.0013 244.256 97.0013 244.256C97.0013 244.256 102.371 241.19 107.957 238.636C108.8 238.249 109.655 237.873 110.499 237.496C115.462 235.524 120.559 233.909 125.752 232.663C126.516 232.457 127.28 232.275 128.032 232.093C132.168 231.157 136.355 230.468 140.572 230.029C141.074 236.402 141.575 241.794 142.123 246.48C142.829 252.59 143.593 257.481 144.403 261.71C145.899 268.661 147.95 275.481 150.536 282.105Z" fill="#525298"/>
<path opacity="0.6" d="M150.536 282.105L116.94 292.729C93.6839 246.696 97.0013 244.256 97.0013 244.256C97.0013 244.256 102.371 241.19 107.957 238.636C108.8 238.249 109.655 237.873 110.499 237.496C115.462 235.524 120.559 233.909 125.752 232.663C126.516 232.457 127.28 232.275 128.032 232.093C132.168 231.157 136.355 230.468 140.572 230.029C141.074 236.402 141.575 241.794 142.123 246.48C142.829 252.59 143.593 257.481 144.403 261.71C145.899 268.661 147.95 275.481 150.536 282.105Z" fill="black"/>
<path opacity="0.3" d="M144.494 261.733C141.268 257.173 138.179 246.559 138.977 242.581L142.169 246.502C142.876 252.613 143.639 257.503 144.494 261.733Z" fill="black"/>
<path d="M118.137 252.852C118.137 252.852 126.607 251.017 129.332 254.699C133.071 251.017 131.748 236.63 129.947 231.5C128.519 231.742 127.117 232.124 125.763 232.64L119.778 241.897L118.137 252.852Z" fill="white"/>
<path d="M118.136 252.852C118.136 252.852 112.436 254.129 111.832 258.791C103.852 252.852 104.411 244.154 106.212 239.024C107.579 238.362 109.017 237.857 110.498 237.519L116.483 244.108L118.136 252.852Z" fill="white"/>
<path d="M120.088 222.972C121.228 227.168 122.96 231.317 125.788 232.685C125.788 232.685 128.421 240.232 118.161 252.852C107.422 245.202 110.523 237.519 110.523 237.519C115.585 234.475 114.16 230.462 112.005 226.951L114.98 222.174C115.277 221.714 115.7 221.35 116.2 221.126C116.699 220.902 117.253 220.828 117.794 220.912C118.334 220.997 118.839 221.236 119.246 221.602C119.653 221.968 119.946 222.444 120.088 222.972Z" fill="#FF8B7B"/>
<path opacity="0.2" d="M120.087 222.973C119.951 222.435 119.66 221.95 119.249 221.576C118.839 221.203 118.328 220.959 117.78 220.874C117.232 220.789 116.672 220.867 116.168 221.098C115.664 221.329 115.239 221.704 114.946 222.175L113.988 223.702C114.068 224.717 114.114 225.549 114.102 225.982C114.011 228.946 118.172 228.809 121.558 227.384C120.954 225.954 120.463 224.479 120.087 222.973Z" fill="black"/>
<path d="M99.4634 211.516C102.427 219.598 103.499 223.087 108.925 226.073C117.076 230.576 126.356 225.173 125.877 216.361C125.444 208.438 120.679 196.536 111.639 195.658C109.646 195.456 107.635 195.767 105.796 196.561C103.957 197.355 102.352 198.605 101.132 200.194C99.9124 201.783 99.1188 203.657 98.8268 205.638C98.5348 207.619 98.7539 209.643 99.4634 211.516Z" fill="#FF8B7B"/>
<path d="M120.428 199.363C117.646 196.684 114.728 193.572 109.142 194.176C102.963 194.849 100.523 198.588 100.523 198.588L95.2109 210.205C95.2109 210.205 98.5055 225.161 103.943 218.185C107.078 214.149 107.158 208.05 106.018 203.49C108.154 203.189 110.26 202.7 112.311 202.031C114.819 202.966 117.635 202.966 119.721 201.05C120.177 200.629 120.508 200.298 120.747 200.036L120.941 199.819C121.556 199.033 121.043 199.112 120.428 199.363ZM113.246 201.78C115.193 201.15 117.172 200.621 119.174 200.195C118.429 200.983 117.481 201.548 116.434 201.828C115.388 202.107 114.284 202.091 113.246 201.78Z" fill="#263238"/>
<path d="M99.8747 219.735C100.731 221.17 102.12 222.207 103.739 222.619C105.882 223.155 106.897 221.228 106.247 219.199C105.666 217.409 103.853 214.97 101.687 215.312C101.219 215.397 100.78 215.599 100.41 215.899C100.04 216.199 99.7519 216.587 99.5714 217.028C99.3908 217.468 99.324 217.947 99.377 218.42C99.43 218.893 99.6012 219.345 99.8747 219.735Z" fill="#FF8B7B"/>
<path d="M116.941 292.741C116.941 292.741 115.801 361.585 124.796 386.46C133.46 410.309 159.304 451.303 159.304 451.303L174.283 450.927C174.283 450.927 150.48 399 146.593 378.48C140.117 344.428 141.542 285 141.542 285L116.941 292.741Z" fill="#525298"/>
<path opacity="0.3" d="M130.393 298.68L134.417 287.28L141.542 285C141.542 285 140.892 312.052 142.454 340.108C135.99 327.659 130.393 304.859 130.393 298.68Z" fill="black"/>
<path d="M157.194 452.078L175.696 451.611L174.625 445.922L154.424 446.88L157.194 452.078Z" fill="#263238"/>
<path d="M124.26 290.518C124.26 290.518 147.63 343.972 162.735 374.399C174.933 398.977 212.895 431.946 212.895 431.946L223.303 424.73C223.303 424.73 194.735 385.673 186.31 369.007C159.349 315.677 165.995 293.698 150.491 282.104L124.26 290.518Z" fill="#525298"/>
<path d="M213.51 435.389L225.731 426.691L222.96 421.355L209.531 431.513L213.51 435.389Z" fill="#263238"/>
<path d="M150.48 279.973L152.942 282.503C153.136 282.697 152.942 283.028 152.543 283.153L117.306 294.291C117.009 294.394 116.713 294.291 116.633 294.143L115.379 291.224C115.288 291.031 115.493 290.768 115.824 290.666L149.853 279.893C149.955 279.85 150.067 279.836 150.177 279.85C150.287 279.864 150.391 279.906 150.48 279.973Z" fill="#263238"/>
<path d="M147.058 285.228L147.97 284.943C148.153 284.943 148.267 284.738 148.21 284.635L146.557 280.862C146.508 280.8 146.44 280.757 146.363 280.738C146.287 280.719 146.207 280.727 146.135 280.759L145.223 281.056C145.041 281.113 144.927 281.249 144.984 281.363L146.648 285.125C146.682 285.239 146.865 285.285 147.058 285.228Z" fill="#525298"/>
<path d="M119.917 293.812L120.829 293.527C121.011 293.47 121.114 293.333 121.068 293.219L119.404 289.446C119.404 289.332 119.164 289.298 118.982 289.355L118.07 289.64C117.899 289.697 117.785 289.834 117.83 289.948L119.495 293.721C119.546 293.779 119.615 293.819 119.691 293.836C119.767 293.852 119.846 293.844 119.917 293.812Z" fill="#525298"/>
<path d="M133.482 289.56L134.394 289.275C134.577 289.218 134.691 289.081 134.634 288.967L132.969 285.194C132.969 285.091 132.741 285.045 132.559 285.102L131.647 285.387C131.464 285.387 131.35 285.581 131.407 285.695L133.06 289.469C133.117 289.56 133.3 289.56 133.482 289.56Z" fill="#525298"/>
<path d="M113.646 209.76C113.851 210.433 114.364 210.9 114.786 210.74C115.207 210.581 115.413 209.954 115.207 209.293C115.002 208.631 114.501 208.153 114.067 208.312C113.634 208.472 113.452 209.065 113.646 209.76Z" fill="#263238"/>
<path d="M121.226 207.48C121.431 208.153 121.944 208.62 122.366 208.46C122.788 208.301 122.993 207.685 122.799 207.013C122.605 206.34 122.081 205.873 121.659 206.032C121.237 206.192 121.032 206.807 121.226 207.48Z" fill="#263238"/>
<path d="M121.477 206.123L122.947 205.177C122.947 205.177 122.503 206.682 121.477 206.123Z" fill="#263238"/>
<path d="M119.334 209.224C120.392 210.573 121.626 211.773 123.005 212.792C122.73 213.136 122.383 213.416 121.99 213.613C121.596 213.809 121.165 213.918 120.725 213.932L119.334 209.224Z" fill="#FF5652"/>
<path d="M118.467 217.626C118.499 217.601 118.522 217.567 118.534 217.528C118.546 217.49 118.547 217.448 118.536 217.409C118.52 217.358 118.485 217.314 118.439 217.287C118.393 217.26 118.338 217.25 118.285 217.261C117.457 217.532 116.576 217.601 115.716 217.465C114.856 217.328 114.041 216.989 113.337 216.475C113.316 216.457 113.292 216.443 113.266 216.434C113.24 216.426 113.212 216.423 113.184 216.425C113.157 216.427 113.13 216.434 113.105 216.447C113.081 216.459 113.059 216.477 113.041 216.497C113.023 216.518 113.009 216.543 113.001 216.569C112.992 216.595 112.989 216.623 112.991 216.65C112.993 216.678 113 216.705 113.013 216.729C113.025 216.754 113.043 216.776 113.064 216.794C113.82 217.353 114.698 217.723 115.626 217.873C116.554 218.024 117.505 217.951 118.399 217.66L118.467 217.626Z" fill="#263238"/>
<path d="M110.784 207.902C110.837 207.852 110.876 207.789 110.898 207.719C111.067 207.233 111.348 206.792 111.718 206.434C112.089 206.076 112.538 205.809 113.03 205.656C113.087 205.65 113.142 205.632 113.192 205.603C113.242 205.574 113.285 205.535 113.319 205.489C113.353 205.442 113.377 205.389 113.389 205.333C113.401 205.276 113.4 205.218 113.388 205.162C113.376 205.105 113.353 205.052 113.319 205.006C113.285 204.959 113.241 204.92 113.191 204.892C113.141 204.863 113.086 204.845 113.029 204.84C112.971 204.834 112.913 204.84 112.859 204.858C112.225 205.039 111.645 205.373 111.17 205.83C110.695 206.287 110.34 206.854 110.134 207.48C110.114 207.531 110.104 207.585 110.106 207.64C110.107 207.694 110.119 207.748 110.141 207.798C110.163 207.848 110.196 207.893 110.235 207.93C110.275 207.968 110.322 207.997 110.374 208.016C110.446 208.031 110.521 208.028 110.593 208.008C110.664 207.988 110.73 207.952 110.784 207.902Z" fill="#263238"/>
<path d="M123.541 203.182C123.538 203.156 123.538 203.129 123.541 203.102C123.555 202.996 123.529 202.888 123.468 202.799C123.407 202.711 123.315 202.648 123.211 202.624C122.572 202.488 121.91 202.506 121.28 202.676C120.649 202.847 120.069 203.165 119.585 203.604C119.51 203.683 119.469 203.788 119.471 203.897C119.473 204.006 119.518 204.11 119.597 204.185C119.676 204.261 119.781 204.302 119.89 204.3C119.999 204.298 120.103 204.253 120.178 204.174C120.564 203.832 121.026 203.587 121.526 203.458C122.025 203.329 122.548 203.32 123.051 203.433C123.149 203.457 123.253 203.445 123.343 203.399C123.433 203.353 123.503 203.276 123.541 203.182Z" fill="#263238"/>
<path d="M145.726 238.1C147.083 239.115 148.223 240.061 149.408 241.087C150.594 242.113 151.688 243.139 152.828 244.211C155.051 246.354 157.195 248.588 159.224 250.937C161.276 253.298 163.179 255.784 164.924 258.381C165.38 259.019 165.779 259.715 166.201 260.376C166.622 261.037 167.044 261.71 167.42 262.417C167.797 263.123 168.196 263.75 168.56 264.537L169.165 265.802L169.655 267.079C170.706 270.316 171.199 273.709 171.114 277.111C171.045 280.273 170.705 283.423 170.099 286.528C169.507 289.571 168.731 292.547 167.819 295.465C166.9 298.389 165.827 301.262 164.605 304.072L160.478 302.545C161.185 299.809 161.857 296.936 162.359 294.097C162.916 291.286 163.323 288.447 163.579 285.593C163.853 282.828 163.917 280.046 163.772 277.271C163.691 275.955 163.531 274.646 163.294 273.349C163.044 272.153 162.697 270.978 162.256 269.838L161.903 269.051L161.515 268.333C161.207 267.809 160.786 267.193 160.375 266.612C159.965 266.03 159.623 265.472 159.235 264.89C158.848 264.309 158.449 263.75 158.015 263.203C156.351 260.923 154.47 258.848 152.6 256.739C150.731 254.63 148.679 252.647 146.593 250.709C145.567 249.728 144.506 248.771 143.446 247.836C142.386 246.901 141.246 245.966 140.266 245.168L145.726 238.1Z" fill="#FF8B7B"/>
<path d="M161.788 299.82L155.541 304.38L163.521 308.598C163.521 308.598 165.904 304.38 165.14 300.857L161.788 299.82Z" fill="#FF8B7B"/>
<path d="M153.568 311.779L160.101 313.796L163.578 308.621L155.541 304.403L153.568 311.779Z" fill="#FF8B7B"/>
<path d="M140.618 230.052C144.984 229.858 153.568 240.586 153.568 240.586L144.653 253.194C144.653 253.194 134.644 245.214 133.869 239.662C133.219 234.931 135.055 230.28 140.618 230.052Z" fill="#525298"/>
<path opacity="0.6" d="M140.618 230.052C144.984 229.858 153.568 240.586 153.568 240.586L144.653 253.194C144.653 253.194 134.644 245.214 133.869 239.662C133.219 234.931 135.055 230.28 140.618 230.052Z" fill="black"/>
<path d="M218.468 444.007H218.331C218.132 443.982 217.942 443.905 217.782 443.782C217.621 443.66 217.496 443.498 217.419 443.312C217.36 443.203 217.328 443.082 217.328 442.958C217.328 442.835 217.36 442.713 217.419 442.605C217.978 441.647 221.113 441.465 221.466 441.465C221.506 441.464 221.545 441.475 221.579 441.495C221.613 441.515 221.641 441.544 221.66 441.579C221.683 441.613 221.695 441.652 221.695 441.693C221.695 441.733 221.683 441.773 221.66 441.807C220.896 442.65 219.54 444.007 218.468 444.007ZM220.976 441.921C219.722 442.012 218.058 442.308 217.773 442.81C217.742 442.855 217.725 442.909 217.725 442.964C217.725 443.019 217.742 443.072 217.773 443.118C217.821 443.243 217.901 443.352 218.005 443.436C218.109 443.521 218.234 443.576 218.366 443.597C218.97 443.665 219.927 443.038 220.976 441.921Z" fill="#525298"/>
<path d="M221.249 441.898C220.201 441.898 218.137 441.317 217.75 440.473C217.688 440.324 217.677 440.158 217.718 440.002C217.759 439.845 217.85 439.707 217.978 439.607C218.096 439.501 218.235 439.421 218.386 439.372C218.537 439.323 218.697 439.306 218.855 439.322C220.098 439.459 221.569 441.477 221.626 441.602C221.645 441.633 221.655 441.668 221.655 441.705C221.655 441.741 221.645 441.776 221.626 441.807C221.61 441.837 221.587 441.863 221.559 441.883C221.532 441.903 221.5 441.916 221.466 441.921L221.249 441.898ZM218.719 439.732C218.549 439.731 218.385 439.797 218.263 439.915C218.069 440.086 218.092 440.223 218.126 440.314C218.377 440.861 219.995 441.454 221.056 441.454C220.531 440.804 219.551 439.778 218.776 439.698L218.719 439.732Z" fill="#525298"/>
<path d="M161.629 463.056C160.927 463.107 160.226 462.94 159.622 462.578C159.466 462.462 159.337 462.313 159.247 462.142C159.156 461.97 159.105 461.78 159.098 461.586C159.089 461.478 159.108 461.369 159.154 461.271C159.2 461.173 159.271 461.089 159.36 461.027C160.295 460.4 163.795 461.985 164.49 462.315C164.529 462.332 164.561 462.362 164.582 462.399C164.602 462.436 164.61 462.479 164.604 462.521C164.6 462.564 164.583 462.605 164.554 462.638C164.525 462.671 164.487 462.693 164.445 462.703C163.52 462.915 162.577 463.033 161.629 463.056ZM159.999 461.278C159.856 461.271 159.714 461.302 159.588 461.369C159.559 461.391 159.536 461.421 159.522 461.455C159.508 461.489 159.503 461.526 159.508 461.563C159.513 461.697 159.548 461.829 159.611 461.947C159.674 462.066 159.764 462.169 159.873 462.247C160.477 462.703 161.902 462.771 163.738 462.429C162.559 461.852 161.298 461.464 159.999 461.278Z" fill="#525298"/>
<path d="M164.399 462.703H164.331C163.191 462.224 160.82 460.343 160.911 459.374C160.911 459.169 161.082 458.895 161.606 458.838C163.658 458.588 164.525 462.258 164.559 462.464C164.566 462.501 164.564 462.539 164.552 462.575C164.54 462.611 164.519 462.644 164.49 462.669C164.464 462.688 164.432 462.7 164.399 462.703ZM161.88 459.226H161.743C161.526 459.226 161.412 459.317 161.39 459.42C161.321 459.978 162.94 461.472 164.126 462.122C163.818 461.221 163.077 459.226 161.88 459.226Z" fill="#525298"/>
<path d="M113.896 208.381L115.367 207.434C115.367 207.434 114.922 208.939 113.896 208.381Z" fill="#263238"/>
<path d="M329.039 125.024H163.363C161.593 125.012 159.839 125.362 158.209 126.054C156.58 126.746 155.11 127.764 153.889 129.045C152.668 130.327 151.723 131.845 151.111 133.507C150.499 135.168 150.234 136.936 150.332 138.704L165.871 460.834C166.092 464.503 167.694 467.953 170.354 470.491C173.014 473.028 176.536 474.465 180.212 474.514H345.888C347.658 474.526 349.411 474.175 351.04 473.483C352.669 472.791 354.138 471.773 355.358 470.491C356.578 469.209 357.522 467.691 358.133 466.03C358.743 464.369 359.007 462.6 358.907 460.834L343.38 138.704C343.159 135.034 341.557 131.584 338.897 129.046C336.237 126.509 332.715 125.072 329.039 125.024Z" fill="black"/>
<path d="M335.162 125.024H169.44C167.67 125.012 165.917 125.362 164.288 126.054C162.659 126.746 161.19 127.764 159.97 129.046C158.75 130.328 157.805 131.846 157.195 133.507C156.585 135.168 156.321 136.937 156.421 138.704L171.948 460.834C172.169 464.503 173.771 467.953 176.431 470.491C179.091 473.028 182.613 474.465 186.289 474.514H351.965C353.735 474.526 355.488 474.175 357.117 473.483C358.746 472.791 360.215 471.773 361.435 470.491C362.655 469.209 363.6 467.691 364.21 466.03C364.82 464.369 365.084 462.6 364.984 460.834L349.457 138.704C349.236 135.042 347.641 131.598 344.991 129.062C342.34 126.525 338.83 125.083 335.162 125.024Z" fill="#263238"/>
<path d="M185.821 465.394C184.6 465.363 183.435 464.879 182.552 464.036C181.669 463.193 181.131 462.051 181.044 460.834L165.54 138.704C165.512 138.116 165.604 137.528 165.81 136.977C166.015 136.425 166.331 135.921 166.737 135.495C167.143 135.069 167.631 134.729 168.172 134.497C168.712 134.265 169.295 134.145 169.883 134.144H335.56C336.782 134.17 337.95 134.652 338.834 135.496C339.718 136.34 340.254 137.484 340.336 138.704L355.863 460.834C355.891 461.421 355.799 462.007 355.594 462.558C355.389 463.109 355.075 463.612 354.67 464.038C354.266 464.464 353.779 464.804 353.239 465.037C352.7 465.27 352.119 465.391 351.531 465.394H185.821Z" fill="#525298"/>
<path opacity="0.1" d="M185.741 463.114C185.131 463.093 184.551 462.85 184.11 462.429C183.668 462.009 183.397 461.441 183.347 460.834L167.82 138.704C167.809 138.411 167.857 138.119 167.961 137.845C168.064 137.571 168.222 137.321 168.423 137.108C168.625 136.896 168.867 136.726 169.136 136.609C169.404 136.491 169.693 136.428 169.986 136.424H335.662C336.272 136.442 336.854 136.684 337.296 137.105C337.738 137.526 338.008 138.095 338.056 138.704L353.583 460.834C353.593 461.126 353.546 461.418 353.442 461.692C353.338 461.966 353.181 462.217 352.979 462.429C352.777 462.641 352.535 462.811 352.267 462.929C351.999 463.046 351.71 463.109 351.417 463.114H185.741Z" fill="black"/>
<g opacity="0.3">
<path d="M235.741 444.6H202.92C202.019 444.59 201.156 444.238 200.504 443.616C199.852 442.994 199.461 442.148 199.409 441.248L197.015 391.419C196.985 390.978 197.047 390.537 197.196 390.121C197.345 389.705 197.578 389.325 197.881 389.004C198.184 388.683 198.55 388.428 198.956 388.255C199.362 388.082 199.8 387.995 200.241 387.999H233.119C234.018 388.006 234.88 388.356 235.53 388.976C236.18 389.597 236.569 390.442 236.619 391.339L238.979 441.18C239.007 441.621 238.944 442.063 238.793 442.479C238.643 442.894 238.409 443.274 238.105 443.595C237.801 443.916 237.434 444.171 237.028 444.344C236.621 444.517 236.183 444.604 235.741 444.6ZM200.196 389.162C199.911 389.16 199.63 389.216 199.367 389.326C199.105 389.435 198.867 389.597 198.668 389.8C198.474 390.01 198.324 390.256 198.226 390.524C198.129 390.792 198.085 391.077 198.098 391.362L200.504 441.18C200.535 441.79 200.798 442.365 201.238 442.789C201.679 443.212 202.264 443.452 202.875 443.46H235.741C236.027 443.462 236.31 443.405 236.573 443.293C236.836 443.182 237.073 443.017 237.27 442.809C237.466 442.602 237.618 442.356 237.716 442.088C237.814 441.819 237.856 441.534 237.839 441.248L235.433 391.419C235.404 390.81 235.144 390.235 234.705 389.811C234.267 389.387 233.683 389.147 233.073 389.139L200.196 389.162Z" fill="#FAFAFA"/>
<path d="M232.641 400.733H201.781C201.63 400.733 201.485 400.673 201.378 400.566C201.271 400.459 201.211 400.314 201.211 400.163C201.211 400.012 201.271 399.867 201.378 399.76C201.485 399.653 201.63 399.593 201.781 399.593H232.675C232.826 399.593 232.971 399.653 233.078 399.76C233.185 399.867 233.245 400.012 233.245 400.163C233.245 400.314 233.185 400.459 233.078 400.566C232.971 400.673 232.826 400.733 232.675 400.733H232.641Z" fill="#FAFAFA"/>
<path d="M232.96 407.174H202.054C201.904 407.171 201.761 407.11 201.655 407.003C201.548 406.897 201.487 406.754 201.484 406.604C201.484 406.453 201.544 406.308 201.651 406.201C201.758 406.094 201.903 406.034 202.054 406.034H232.96C233.111 406.034 233.256 406.094 233.363 406.201C233.47 406.308 233.53 406.453 233.53 406.604C233.527 406.754 233.466 406.897 233.36 407.003C233.253 407.11 233.11 407.171 232.96 407.174Z" fill="#FAFAFA"/>
<path d="M233.266 413.615H202.361C202.211 413.612 202.067 413.551 201.961 413.444C201.855 413.338 201.794 413.195 201.791 413.045C201.791 412.893 201.851 412.748 201.958 412.642C202.065 412.535 202.21 412.475 202.361 412.475H233.266C233.418 412.475 233.563 412.535 233.669 412.642C233.776 412.748 233.836 412.893 233.836 413.045C233.836 413.196 233.776 413.341 233.669 413.448C233.563 413.555 233.418 413.615 233.266 413.615Z" fill="#FAFAFA"/>
<path d="M233.575 420.056H202.681C202.53 420.056 202.385 419.996 202.278 419.889C202.171 419.782 202.111 419.637 202.111 419.486C202.111 419.335 202.171 419.19 202.278 419.083C202.385 418.976 202.53 418.916 202.681 418.916H233.575C233.727 418.916 233.871 418.976 233.978 419.083C234.085 419.19 234.145 419.335 234.145 419.486C234.145 419.637 234.085 419.782 233.978 419.889C233.871 419.996 233.727 420.056 233.575 420.056Z" fill="#FAFAFA"/>
<path d="M233.882 426.497H202.988C202.837 426.497 202.692 426.437 202.585 426.33C202.478 426.223 202.418 426.078 202.418 425.927C202.418 425.776 202.478 425.631 202.585 425.524C202.692 425.417 202.837 425.357 202.988 425.357H233.882C234.033 425.357 234.178 425.417 234.285 425.524C234.392 425.631 234.452 425.776 234.452 425.927C234.452 426.078 234.392 426.223 234.285 426.33C234.178 426.437 234.033 426.497 233.882 426.497Z" fill="#FAFAFA"/>
<path d="M227.864 432.938H203.297C203.145 432.938 203 432.878 202.894 432.771C202.787 432.664 202.727 432.519 202.727 432.368C202.727 432.217 202.787 432.072 202.894 431.965C203 431.858 203.145 431.798 203.297 431.798H227.864C228.015 431.798 228.16 431.858 228.267 431.965C228.374 432.072 228.434 432.217 228.434 432.368C228.431 432.518 228.37 432.661 228.263 432.768C228.157 432.874 228.014 432.935 227.864 432.938Z" fill="#FAFAFA"/>
</g>
<g opacity="0.3">
<path d="M256.433 261.778L233.895 265.38C233.025 263.236 231.875 261.216 230.475 259.373C229.126 257.957 227.531 256.798 225.767 255.953L226.611 273.623C239.143 276.921 247.575 280.402 251.907 284.065C254.669 286.367 256.91 289.229 258.483 292.462C260.055 295.694 260.922 299.225 261.027 302.818C261.329 307.024 260.556 311.237 258.782 315.062C257.094 318.63 254.665 321.797 251.657 324.353C248.855 326.753 245.614 328.588 242.115 329.756C238.007 330.991 233.749 331.659 229.461 331.74L229.609 334.852C229.643 335.428 229.559 336.005 229.361 336.547C229.163 337.089 228.855 337.585 228.457 338.003C228.06 338.421 227.58 338.753 227.049 338.977C226.517 339.202 225.945 339.315 225.368 339.31C224.169 339.297 223.02 338.83 222.152 338.002C221.285 337.175 220.763 336.049 220.694 334.852L220.546 331.74C215.543 331.419 210.603 330.445 205.851 328.844C202.212 327.529 198.846 325.554 195.922 323.019C193.253 320.74 190.994 318.022 189.242 314.982C187.484 311.712 186.206 308.207 185.445 304.574L209.967 301.712C210.894 305.733 212.034 308.64 213.387 310.433C215.086 312.517 217.27 314.153 219.748 315.198L218.711 293.63C212.638 292.118 206.692 290.136 200.927 287.702C197.197 285.842 193.991 283.079 191.601 279.665C188.808 275.718 187.263 271.024 187.167 266.19C186.902 262.854 187.366 259.501 188.528 256.363C189.689 253.225 191.52 250.377 193.893 248.018C198.726 243.147 206.136 240.449 216.123 239.924L216.043 238.34C216.008 237.764 216.093 237.187 216.291 236.645C216.489 236.103 216.797 235.607 217.194 235.189C217.592 234.771 218.072 234.439 218.603 234.214C219.135 233.99 219.707 233.877 220.284 233.882C221.483 233.895 222.632 234.362 223.5 235.189C224.367 236.017 224.888 237.143 224.958 238.34L225.038 239.924C234.158 240.494 241.229 242.653 246.253 246.399C251.306 250.21 254.899 255.638 256.433 261.778ZM216.875 255.679C214.843 256.2 213.007 257.306 211.597 258.86C210.637 260.148 210.172 261.738 210.286 263.34C210.346 265.058 210.971 266.709 212.064 268.037C213.586 269.634 215.513 270.788 217.639 271.377L216.875 255.679ZM228.697 315.78C232.117 315.02 234.587 313.743 236.107 311.95C236.837 311.143 237.4 310.2 237.763 309.174C238.127 308.149 238.285 307.062 238.227 305.976C238.111 303.996 237.304 302.121 235.947 300.675C234.511 299.067 231.775 297.563 227.762 296.183L228.697 315.78Z" fill="#FAFAFA"/>
</g>
<path opacity="0.2" d="M316.008 167.078H203.148L214.149 395.204C214.686 404.549 218.752 413.343 225.524 419.806C232.296 426.269 241.269 429.919 250.629 430.019H363.489L352.5 201.894C351.968 192.544 347.903 183.747 341.127 177.282C334.352 170.818 325.373 167.17 316.008 167.078Z" fill="black"/>
<path d="M343.654 167.078H203.184C212.545 167.176 221.52 170.826 228.292 177.289C235.065 183.753 239.129 192.547 239.664 201.894L248.635 387.6C249.172 396.946 253.238 405.739 260.01 412.202C266.782 418.665 275.755 422.315 285.115 422.416H355.944C360.453 422.463 364.924 421.581 369.078 419.827C373.233 418.072 376.982 415.481 380.092 412.216C383.203 408.95 385.608 405.08 387.159 400.845C388.709 396.61 389.372 392.102 389.106 387.6L380.146 201.894C379.614 192.544 375.549 183.747 368.773 177.282C361.998 170.818 353.019 167.17 343.654 167.078Z" fill="#FAFAFA"/>
<path d="M318.265 387.6C318.533 392.099 317.872 396.606 316.324 400.839C314.776 405.072 312.374 408.941 309.267 412.207C306.16 415.472 302.414 418.063 298.263 419.819C294.112 421.576 289.644 422.459 285.137 422.415H425.596C430.104 422.459 434.572 421.576 438.724 419.82C442.875 418.063 446.622 415.472 449.73 412.207C452.838 408.942 455.241 405.073 456.79 400.84C458.34 396.606 459.002 392.1 458.736 387.6H318.265Z" fill="#E6E6E6"/>
<path d="M363.434 282.344H264.162C263.466 282.336 262.799 282.065 262.296 281.585C261.792 281.104 261.49 280.451 261.449 279.756C261.43 279.422 261.48 279.087 261.596 278.773C261.711 278.459 261.89 278.172 262.121 277.93C262.351 277.687 262.629 277.495 262.937 277.364C263.245 277.233 263.577 277.166 263.912 277.168H363.183C363.887 277.164 364.565 277.43 365.078 277.912C365.592 278.393 365.901 279.053 365.942 279.756C365.961 280.094 365.909 280.432 365.791 280.75C365.673 281.067 365.49 281.356 365.254 281.599C365.019 281.843 364.735 282.034 364.422 282.162C364.109 282.29 363.772 282.352 363.434 282.344Z" fill="#525298"/>
<path d="M364.207 298.497H264.936C264.24 298.49 263.573 298.219 263.069 297.738C262.566 297.258 262.263 296.604 262.223 295.91C262.204 295.575 262.254 295.241 262.369 294.927C262.485 294.613 262.663 294.326 262.894 294.083C263.125 293.841 263.403 293.648 263.711 293.517C264.019 293.386 264.35 293.32 264.685 293.322H363.968C364.661 293.332 365.326 293.605 365.827 294.085C366.328 294.565 366.629 295.217 366.669 295.91C366.688 296.244 366.638 296.578 366.523 296.892C366.407 297.206 366.229 297.494 365.998 297.736C365.767 297.979 365.489 298.171 365.181 298.302C364.873 298.433 364.542 298.5 364.207 298.497Z" fill="#525298"/>
<path d="M364.994 314.64H265.711C265.015 314.633 264.348 314.361 263.845 313.881C263.341 313.401 263.038 312.747 262.998 312.052C262.979 311.718 263.029 311.384 263.145 311.07C263.26 310.755 263.439 310.468 263.67 310.226C263.9 309.983 264.178 309.791 264.486 309.66C264.794 309.529 265.126 309.462 265.46 309.464H364.8C365.496 309.472 366.163 309.743 366.667 310.224C367.17 310.704 367.473 311.357 367.513 312.052C367.532 312.391 367.481 312.731 367.362 313.049C367.243 313.367 367.059 313.657 366.822 313.9C366.585 314.143 366.301 314.335 365.986 314.462C365.671 314.589 365.333 314.65 364.994 314.64Z" fill="#525298"/>
<path d="M365.769 330.817H266.498C265.803 330.806 265.138 330.534 264.635 330.054C264.131 329.575 263.828 328.923 263.785 328.229C263.766 327.895 263.816 327.56 263.932 327.246C264.047 326.932 264.226 326.645 264.457 326.402C264.687 326.16 264.965 325.967 265.273 325.836C265.581 325.705 265.913 325.639 266.247 325.641H365.519C366.215 325.648 366.882 325.92 367.385 326.4C367.889 326.88 368.191 327.534 368.232 328.229C368.251 328.563 368.201 328.897 368.085 329.211C367.97 329.526 367.791 329.813 367.56 330.055C367.33 330.298 367.052 330.49 366.744 330.621C366.436 330.752 366.104 330.819 365.769 330.817Z" fill="#525298"/>
<path d="M327.078 346.97H267.274C266.578 346.963 265.911 346.692 265.407 346.211C264.903 345.731 264.601 345.077 264.56 344.383C264.542 344.048 264.592 343.714 264.707 343.4C264.823 343.086 265.001 342.799 265.232 342.556C265.463 342.314 265.741 342.121 266.049 341.99C266.357 341.859 266.688 341.793 267.023 341.795H326.827C327.523 341.802 328.19 342.074 328.694 342.554C329.198 343.034 329.5 343.688 329.54 344.383C329.559 344.717 329.509 345.051 329.394 345.365C329.278 345.679 329.1 345.966 328.869 346.209C328.638 346.451 328.36 346.644 328.052 346.775C327.744 346.906 327.413 346.972 327.078 346.97Z" fill="#525298"/>
<path d="M333.976 248.859C345.723 236.826 345.009 217.077 332.38 204.749C319.752 192.422 299.992 192.183 288.245 204.217C276.498 216.25 277.212 235.999 289.84 248.327C302.468 260.654 322.229 260.893 333.976 248.859Z" fill="#525298"/>
<path d="M336.848 226.518C337.063 230.754 336.196 234.976 334.328 238.784C332.303 242.868 329.168 246.298 325.283 248.682C321.397 251.065 316.918 252.305 312.36 252.259C307.645 252.224 303.02 250.963 298.939 248.601C294.858 246.238 291.461 242.856 289.082 238.784C286.861 235.06 285.589 230.848 285.377 226.518C285.179 223.191 285.669 219.859 286.814 216.729C287.959 213.6 289.735 210.739 292.033 208.325C294.331 205.91 297.1 203.995 300.17 202.696C303.239 201.398 306.543 200.744 309.875 200.777C316.792 200.863 323.42 203.566 328.425 208.342C333.429 213.118 336.439 219.612 336.848 226.518Z" fill="white"/>
<path opacity="0.4" d="M334.329 238.784C332.304 242.868 329.169 246.298 325.283 248.682C321.398 251.065 316.919 252.305 312.361 252.259C307.645 252.224 303.02 250.963 298.939 248.601C294.858 246.238 291.461 242.856 289.082 238.784C295.643 234.282 303.424 231.896 311.38 231.944C319.53 231.96 327.501 234.335 334.329 238.784Z" fill="#525298"/>
<path opacity="0.4" d="M319.08 225.9C323.398 221.476 323.138 214.217 318.497 209.687C313.857 205.157 306.594 205.071 302.275 209.495C297.956 213.919 298.217 221.178 302.857 225.708C307.498 230.238 314.761 230.324 319.08 225.9Z" fill="#525298"/>
<path d="M406.705 465.963H398.338L397.494 446.561H405.873L406.705 465.963Z" fill="#B55B52"/>
<path opacity="0.2" d="M397.506 446.572L397.928 456.57H406.307L405.873 446.572H397.506Z" fill="black"/>
<path d="M477.99 443.232L470.032 445.831L460.012 428.697L467.98 426.098L477.99 443.232Z" fill="#B55B52"/>
<path opacity="0.2" d="M467.98 426.098L460.012 428.697L465.187 437.532L473.145 434.933L467.98 426.098Z" fill="black"/>
<path d="M435.022 185.729C436.06 186.994 436.938 188.123 437.838 189.365C438.739 190.608 439.594 191.794 440.449 193.025C442.136 195.499 443.755 198.029 445.271 200.64C448.426 205.936 450.999 211.559 452.943 217.409L453.137 217.979L453.228 218.276L453.354 218.743L453.582 219.678L453.707 220.533C453.842 221.557 453.884 222.591 453.832 223.622C453.726 225.362 453.475 227.089 453.08 228.787C452.358 231.828 451.402 234.808 450.219 237.701C447.964 243.247 445.233 248.587 442.056 253.661L436.356 250.937C438.066 245.59 439.776 240.118 441.03 234.794C441.683 232.228 442.178 229.624 442.512 226.997C442.653 225.863 442.695 224.718 442.638 223.577C442.621 223.17 442.567 222.766 442.478 222.368L442.421 222.163C442.4 222.126 442.381 222.088 442.364 222.049L442.273 221.833L442.09 221.388L441.327 219.598L440.472 217.82C439.902 216.68 439.275 215.449 438.648 214.263C437.348 211.915 435.946 209.578 434.487 207.252C433.027 204.926 431.477 202.692 429.927 200.412C428.376 198.132 426.678 195.852 425.139 193.789L435.022 185.729Z" fill="#B55B52"/>
<path d="M436.881 249.523L433.609 256.762H442.969C442.969 256.762 444.462 251.267 441.065 249.044L436.881 249.523Z" fill="#B55B52"/>
<path d="M434.704 264.902L443.391 263.226L442.969 256.762H433.609L434.704 264.902Z" fill="#B55B52"/>
<path d="M393.551 148.986C393.551 149.67 393.198 150.218 392.753 150.218C392.308 150.218 391.955 149.67 391.955 148.986C391.955 148.302 392.32 147.767 392.753 147.767C393.186 147.767 393.551 148.314 393.551 148.986Z" fill="#263238"/>
<path d="M393.298 150.218C392.495 152.28 391.409 154.222 390.072 155.986C390.533 156.317 391.06 156.543 391.618 156.649C392.175 156.755 392.748 156.739 393.298 156.602V150.218Z" fill="#A02724"/>
<path d="M395.944 145.247C395.861 145.248 395.78 145.22 395.716 145.168C395.319 144.869 394.858 144.667 394.369 144.578C393.88 144.489 393.377 144.515 392.9 144.655C392.805 144.68 392.703 144.67 392.615 144.625C392.527 144.581 392.459 144.505 392.423 144.413C392.388 144.321 392.388 144.218 392.423 144.126C392.459 144.034 392.527 143.958 392.615 143.914C393.216 143.723 393.854 143.679 394.475 143.786C395.096 143.893 395.682 144.148 396.184 144.529C396.268 144.593 396.324 144.686 396.341 144.79C396.358 144.894 396.334 145.001 396.275 145.088C396.235 145.138 396.185 145.178 396.128 145.205C396.07 145.233 396.008 145.247 395.944 145.247Z" fill="#263238"/>
<path d="M415.358 156.773C414.149 162.906 412.952 174.135 417.239 178.216C417.239 178.216 415.563 184.429 404.186 184.429C391.646 184.429 398.201 178.216 398.201 178.216C405.041 176.586 404.858 171.524 403.661 166.759L415.358 156.773Z" fill="#B55B52"/>
<path d="M418.882 180.348C419.783 178.387 420.774 176.13 418.722 175.423C416.442 174.648 404.176 173.861 399.924 175.321C399.365 175.475 398.842 175.74 398.386 176.099C397.93 176.458 397.549 176.904 397.267 177.411C396.985 177.918 396.807 178.476 396.742 179.052C396.677 179.629 396.728 180.213 396.891 180.77L418.882 180.348Z" fill="#263238"/>
<path d="M468.311 447.826C467.696 448.419 467 448.898 466.476 448.818C466.31 448.785 466.159 448.701 466.043 448.579C465.927 448.456 465.851 448.301 465.826 448.134C465.791 448.004 465.786 447.869 465.809 447.737C465.833 447.605 465.885 447.48 465.963 447.37C466.647 446.31 469.383 445.854 469.531 445.842C469.568 445.837 469.605 445.842 469.639 445.856C469.673 445.87 469.703 445.893 469.725 445.922C469.746 445.954 469.758 445.992 469.758 446.031C469.758 446.069 469.746 446.107 469.725 446.139C469.314 446.749 468.84 447.315 468.311 447.826ZM466.453 447.393C466.394 447.448 466.34 447.509 466.293 447.575C466.248 447.641 466.217 447.716 466.203 447.794C466.189 447.873 466.193 447.954 466.214 448.031C466.305 448.385 466.476 448.419 466.533 448.419C467.114 448.51 468.357 447.279 469.121 446.321C468.163 446.477 467.252 446.843 466.453 447.393Z" fill="#525298"/>
<path d="M469.68 446.173L469.589 446.23C468.642 446.481 466.169 446.321 465.644 445.523C465.566 445.396 465.533 445.246 465.549 445.097C465.566 444.949 465.631 444.81 465.735 444.703C465.833 444.587 465.954 444.492 466.089 444.424C466.224 444.355 466.371 444.314 466.522 444.304C467.776 444.212 469.589 445.82 469.668 445.888C469.696 445.911 469.716 445.942 469.726 445.976C469.736 446.011 469.736 446.048 469.725 446.082C469.723 446.117 469.706 446.15 469.68 446.173ZM466.112 444.896L466.043 444.965C465.884 445.159 465.952 445.261 465.975 445.307C466.283 445.774 468.015 446.036 469.087 445.911C468.379 445.271 467.499 444.851 466.556 444.703C466.397 444.715 466.248 444.784 466.134 444.896H466.112Z" fill="#525298"/>
<path d="M394.965 466.385C393.893 466.385 392.856 466.237 392.514 465.758C392.421 465.633 392.371 465.481 392.371 465.325C392.371 465.169 392.421 465.017 392.514 464.892C392.581 464.775 392.671 464.674 392.779 464.594C392.887 464.513 393.01 464.456 393.141 464.424C394.531 464.048 397.461 465.713 397.587 465.792C397.623 465.812 397.651 465.842 397.668 465.879C397.684 465.916 397.688 465.958 397.678 465.998C397.672 466.036 397.655 466.072 397.628 466.1C397.602 466.129 397.567 466.149 397.53 466.157C396.683 466.305 395.825 466.381 394.965 466.385ZM393.642 464.766C393.514 464.748 393.383 464.748 393.255 464.766C393.174 464.782 393.098 464.815 393.032 464.862C392.965 464.909 392.909 464.97 392.867 465.04C392.73 465.291 392.776 465.416 392.867 465.485C393.255 466.02 395.375 466.032 396.925 465.815C395.91 465.255 394.794 464.899 393.642 464.766Z" fill="#525298"/>
<path d="M397.494 466.157H397.414C396.411 465.701 394.405 463.877 394.553 462.943C394.553 462.715 394.746 462.441 395.294 462.384C395.497 462.361 395.703 462.38 395.899 462.438C396.095 462.497 396.277 462.595 396.434 462.726C397.494 463.604 397.722 465.861 397.733 465.952C397.732 465.987 397.724 466.022 397.708 466.054C397.692 466.085 397.67 466.113 397.642 466.135C397.62 466.148 397.596 466.157 397.57 466.161C397.545 466.165 397.519 466.164 397.494 466.157ZM395.453 462.737H395.339C394.975 462.737 394.952 462.908 394.952 462.954C394.861 463.524 396.217 464.949 397.232 465.565C397.133 464.607 396.734 463.705 396.092 462.988C395.91 462.844 395.685 462.763 395.453 462.76V462.737Z" fill="#525298"/>
<path d="M469.337 444.908L476.177 438.398C476.296 438.281 476.453 438.209 476.619 438.194C476.785 438.18 476.952 438.224 477.089 438.318L483.428 442.559C483.581 442.663 483.709 442.8 483.802 442.96C483.894 443.12 483.949 443.299 483.962 443.483C483.975 443.668 483.947 443.853 483.878 444.025C483.809 444.196 483.702 444.35 483.565 444.474C481.159 446.754 479.871 447.678 476.884 450.528C475.037 452.295 469.543 458.28 467 460.719C464.458 463.159 461.722 460.947 462.543 459.728C466.237 454.244 468.539 448.989 468.745 446.219C468.781 445.725 468.991 445.261 469.337 444.908Z" fill="#263238"/>
<path d="M398.383 464.995H407.503C407.668 464.994 407.829 465.05 407.958 465.154C408.087 465.258 408.176 465.403 408.21 465.565L409.863 473.009C409.904 473.188 409.905 473.374 409.864 473.553C409.822 473.732 409.741 473.899 409.626 474.042C409.51 474.185 409.364 474.299 409.198 474.377C409.031 474.455 408.849 474.494 408.666 474.491C405.36 474.491 400.595 474.251 396.445 474.251C391.6 474.251 387.416 474.514 381.728 474.514C378.308 474.514 377.339 471.037 378.775 470.717C385.319 469.292 390.677 469.133 396.331 465.644C396.941 465.241 397.652 465.016 398.383 464.995Z" fill="#263238"/>
<path d="M386.46 197.22C383.132 202.122 379.7 206.705 376.007 211.23C372.299 215.812 368.337 220.181 364.139 224.318L362.52 225.891L362.11 226.278L361.814 226.552L361.38 226.86C360.843 227.293 360.267 227.674 359.659 228C357.735 229.015 355.617 229.61 353.446 229.744C350.133 229.94 346.809 229.664 343.574 228.923C337.711 227.63 332.027 225.632 326.645 222.972L328.742 217.044C334.08 218.112 339.479 218.85 344.907 219.256C347.293 219.445 349.693 219.345 352.055 218.96C352.734 218.858 353.381 218.605 353.948 218.219C354.005 218.219 353.948 218.15 353.948 218.15L354.039 218.059L354.369 217.683L355.726 216.201C359.283 212.142 362.737 207.81 366.089 203.387C369.44 198.964 372.803 194.427 376.007 190.004L386.46 197.22Z" fill="#B55B52"/>
<path d="M432.241 180.12C440.085 181.921 449.091 203.319 449.091 203.319L433.324 214.126C429.408 208.499 425.936 202.576 422.939 196.411C418.265 186.618 424.216 178.273 432.241 180.12Z" fill="#525298"/>
<path opacity="0.3" d="M426.609 193.8L434.065 213.647L433.324 214.16C433.324 214.16 430.098 209.6 426.609 203.524V193.8Z" fill="black"/>
<path d="M385.318 180.542C385.318 180.542 376.404 190.608 384.828 252.932H429.619C429.927 246.092 425.606 212.507 432.241 180.109C427.286 179.156 422.275 178.524 417.238 178.216C410.898 177.851 404.541 177.851 398.2 178.216C393.852 178.654 389.545 179.432 385.318 180.542Z" fill="#525298"/>
<path opacity="0.3" d="M390.29 198.565C389.125 205.638 386.068 212.263 381.444 217.74C381.261 213.727 381.193 210.125 381.204 206.899L390.29 198.565Z" fill="black"/>
<path d="M394.155 187.336C395.295 195.259 379.631 215.517 379.631 215.517L363.934 204.71C363.934 204.71 368.288 193.549 375.619 186.23C383.998 177.84 392.958 178.706 394.155 187.336Z" fill="#525298"/>
<path d="M329.825 217.74L323.68 211.39L317.125 219.838C317.125 219.838 322.118 224.66 328.058 223.258L329.825 217.74Z" fill="#B55B52"/>
<path d="M315.244 207.856L312.428 216.725L317.125 219.803L323.68 211.356L315.244 207.856Z" fill="#B55B52"/>
<path d="M416.099 147.561C415.586 155.849 415.712 160.74 411.539 164.992C405.235 171.399 394.998 167.603 393.026 159.292C391.236 151.836 392.376 139.524 400.493 136.23C402.28 135.495 404.226 135.23 406.146 135.46C408.065 135.689 409.893 136.406 411.457 137.542C413.021 138.677 414.269 140.194 415.081 141.948C415.894 143.702 416.244 145.634 416.099 147.561Z" fill="#B55B52"/>
<path d="M423.316 130.245C425.87 132.593 424.787 135.215 423.453 135.706C427.591 136.561 428.195 139.855 426.018 146.809C423.943 153.467 418.916 162.393 412.634 162.94C403.195 163.761 400.436 153.923 400.368 144.164C395.033 144.495 397.335 139.764 390.78 140.858C385.08 141.805 387.224 137.359 382.379 135.421C376.758 133.141 377.887 124.534 383.131 127.007C383.131 127.007 380.703 128.603 383.53 130.108C386.357 131.613 386.084 128.136 391.681 127.714C397.278 127.292 397.928 132.08 404.472 129.196C412.68 125.571 418.072 125.4 423.316 130.245Z" fill="#263238"/>
<path d="M420.17 135.66C420.542 135.063 421.097 134.602 421.752 134.345C422.407 134.088 423.128 134.05 423.807 134.235C426.372 134.782 426.577 135.911 428.184 135.762C429.792 135.614 429.21 137.324 429.21 137.324C429.21 137.324 428.777 136.036 426.839 136.754C424.901 137.472 423.636 135.717 422.803 136.503C421.971 137.29 420.17 135.66 420.17 135.66Z" fill="#263238"/>
<path d="M404.836 149.819C404.471 151.851 403.441 153.704 401.906 155.085C399.877 156.887 398.121 155.439 398.053 152.976C398.053 150.753 398.999 147.128 401.336 146.262C403.673 145.395 405.258 147.356 404.836 149.819Z" fill="#B55B52"/>
<path d="M400.709 252.932C400.709 252.932 410.217 316.92 415.438 340.86C421.138 367.08 460.867 436.848 460.867 436.848L475.459 432.106C475.459 432.106 443.824 369.246 440.563 343.243C437.018 315.028 429.619 252.886 429.619 252.886L400.709 252.932Z" fill="#263238"/>
<path d="M456.786 432.288C456.729 432.288 460.126 437.395 460.126 437.395L476.519 432.06L474.593 427.158L456.786 432.288Z" fill="#525298"/>
<path opacity="0.3" d="M406.718 275.732C417.708 277.886 416.545 318.869 415.222 339.948C412.053 325.048 407.413 296.377 404.244 276.028C405.011 275.65 405.884 275.546 406.718 275.732Z" fill="black"/>
<path d="M384.828 252.932C384.828 252.932 383.688 315.552 384.578 341.088C385.524 367.65 394.838 454.632 394.838 454.632H409.03C409.03 454.632 409.543 369.2 410.17 343.117C410.854 314.617 414.286 252.932 414.286 252.932H384.828Z" fill="#263238"/>
<path d="M392.08 448.978C392.012 448.978 392.878 454.871 392.878 454.871H410.138L410.605 449.616L392.08 448.978Z" fill="#525298"/>
</svg>
