<svg width="500" height="500" viewBox="0 0 500 500" fill="none" xmlns="http://www.w3.org/2000/svg">
<path d="M362.791 177.55C352.361 147.86 324.641 60 251.791 59.94C175.861 59.86 163.841 111.45 173.571 181.49C182.661 246.9 105.301 230.28 117.571 318.75C128.001 393.66 253.231 446.3 336.421 354.49C386.921 298.74 374.571 211.1 362.791 177.55Z" fill="#525298"/>
<path opacity="0.9" d="M362.791 177.55C352.361 147.86 324.641 60 251.791 59.94C175.861 59.86 163.841 111.45 173.571 181.49C182.661 246.9 105.301 230.28 117.571 318.75C128.001 393.66 253.231 446.3 336.421 354.49C386.921 298.74 374.571 211.1 362.791 177.55Z" fill="white"/>
<path d="M245.179 423.71C352.262 423.71 439.069 418.642 439.069 412.39C439.069 406.138 352.262 401.07 245.179 401.07C138.097 401.07 51.2891 406.138 51.2891 412.39C51.2891 418.642 138.097 423.71 245.179 423.71Z" fill="#F5F5F5"/>
<path d="M363.18 102.2C372.845 102.2 380.68 94.3649 380.68 84.7C380.68 75.035 372.845 67.2 363.18 67.2C353.515 67.2 345.68 75.035 345.68 84.7C345.68 94.3649 353.515 102.2 363.18 102.2Z" fill="#525298"/>
<path opacity="0.8" d="M363.18 102.2C372.845 102.2 380.68 94.3649 380.68 84.7C380.68 75.035 372.845 67.2 363.18 67.2C353.515 67.2 345.68 75.035 345.68 84.7C345.68 94.3649 353.515 102.2 363.18 102.2Z" fill="white"/>
<path d="M279.531 406.27C285.761 404.72 311.591 407.27 289.461 366.84C287.841 363.84 286.461 361.36 286.461 361.35C304.711 375.07 308.581 385.35 315.771 400.64C319.071 402.11 308.921 375.72 303.231 367.49C315.661 375.15 320.751 390.58 327.901 401.49C320.081 384.42 320.551 374.8 320.711 369.27C325.291 384.15 330.711 394.9 338.491 401.36C346.811 402.78 335.831 380.36 328.931 371.19C341.091 378.6 345.101 390.56 356.201 398.89C353.871 390.52 350.961 382.51 350.081 374C352.701 377.57 354.201 381.53 356.191 385.33C358.181 389.13 364.511 398.52 370.101 398.52C376.751 398.22 373.731 376.41 367.451 368.61C376.991 371.67 380.381 393.03 382.451 396.83C384.451 391.83 384.961 376.43 383.581 371.28C386.891 376.33 389.401 391.54 391.951 396.83C392.621 392.09 394.331 371.46 407.351 364.07C407.819 363.731 408.245 363.338 408.621 362.9C406.441 366.05 398.621 382.46 401.931 391.97C402.681 376.83 409.931 364.62 414.571 361.82C411.036 368.172 408.984 375.242 408.568 382.5C408.152 389.758 409.384 397.016 412.171 403.73C412.837 404.877 413.428 406.067 413.941 407.29C385.591 407.22 279.551 406.26 279.531 406.27Z" fill="#525298"/>
<g opacity="0.8">
<path d="M279.531 406.27C285.761 404.72 311.591 407.27 289.461 366.84C287.841 363.84 286.461 361.36 286.461 361.35C304.711 375.07 308.581 385.35 315.771 400.64C319.071 402.11 308.921 375.72 303.231 367.49C315.661 375.15 320.751 390.58 327.901 401.49C320.081 384.42 320.551 374.8 320.711 369.27C325.291 384.15 330.711 394.9 338.491 401.36C346.811 402.78 335.831 380.36 328.931 371.19C341.091 378.6 345.101 390.56 356.201 398.89C353.871 390.52 350.961 382.51 350.081 374C352.701 377.57 354.201 381.53 356.191 385.33C358.181 389.13 364.511 398.52 370.101 398.52C376.751 398.22 373.731 376.41 367.451 368.61C376.991 371.67 380.381 393.03 382.451 396.83C384.451 391.83 384.961 376.43 383.581 371.28C386.891 376.33 389.401 391.54 391.951 396.83C392.621 392.09 394.331 371.46 407.351 364.07C407.819 363.731 408.245 363.338 408.621 362.9C406.441 366.05 398.621 382.46 401.931 391.97C402.681 376.83 409.931 364.62 414.571 361.82C411.036 368.172 408.984 375.242 408.568 382.5C408.152 389.758 409.384 397.016 412.171 403.73C412.837 404.877 413.428 406.067 413.941 407.29C385.591 407.22 279.551 406.26 279.531 406.27Z" fill="white"/>
</g>
<path d="M241.791 405.52C240.981 405.65 240.051 405.78 239.021 405.91H86.1207C85.9464 404.154 86.1932 402.381 86.8407 400.74C89.7738 392.741 89.9742 383.995 87.4107 375.87C91.2907 382.54 92.6407 388.82 92.7207 396.44C93.4207 389.22 91.7207 367.84 92.4407 360.63C101.441 370.93 96.1707 392.68 101.441 399.58C107.641 397.91 102.341 362.07 102.951 364.58C106.281 364.68 109.391 384.04 110.311 390.58C110.011 380.32 114.791 360.47 130.681 347.66C115.201 368.15 119.511 385.2 120.001 400.08C124.831 387.42 126.871 382.68 123.571 369.75C136.171 381.55 124.211 402.34 130.691 403.19C130.691 403.19 136.821 379.69 147.361 365.96C144.995 376.791 145.783 388.073 149.631 398.47C153.271 401.29 149.771 368.71 156.781 360.24C157.631 366.33 160.261 395.06 163.651 391.24C163.331 381 160.441 358.4 154.471 350.19C160.38 354.569 165.111 360.345 168.241 367C168.511 366.25 168.781 365.5 169.041 364.74C170.903 359.286 172.396 353.714 173.511 348.06C173.648 356.486 173.217 364.912 172.221 373.28C173.659 377.687 174.808 382.183 175.661 386.74C177.431 381.61 179.201 375.66 181.861 368.4C179.181 376.01 180.241 383.46 181.861 391.25C193.291 392.83 191.651 366.67 189.641 358.47C198.891 361.69 200.321 383.09 200.511 394.28C200.511 394.28 209.511 387.47 215.511 358.33C220.631 367.96 213.511 394.01 220.631 399.76C222.631 401.39 223.181 367.37 237.351 359.71C231.821 362.71 231.001 378.98 233.351 390.6C234.558 396.325 237.506 401.536 241.791 405.52Z" fill="#525298"/>
<path opacity="0.8" d="M241.791 405.52C240.981 405.65 240.051 405.78 239.021 405.91H86.1207C85.9464 404.154 86.1932 402.381 86.8407 400.74C89.7738 392.741 89.9742 383.995 87.4107 375.87C91.2907 382.54 92.6407 388.82 92.7207 396.44C93.4207 389.22 91.7207 367.84 92.4407 360.63C101.441 370.93 96.1707 392.68 101.441 399.58C107.641 397.91 102.341 362.07 102.951 364.58C106.281 364.68 109.391 384.04 110.311 390.58C110.011 380.32 114.791 360.47 130.681 347.66C115.201 368.15 119.511 385.2 120.001 400.08C124.831 387.42 126.871 382.68 123.571 369.75C136.171 381.55 124.211 402.34 130.691 403.19C130.691 403.19 136.821 379.69 147.361 365.96C144.995 376.791 145.783 388.073 149.631 398.47C153.271 401.29 149.771 368.71 156.781 360.24C157.631 366.33 160.261 395.06 163.651 391.24C163.331 381 160.441 358.4 154.471 350.19C160.38 354.569 165.111 360.345 168.241 367C168.511 366.25 168.781 365.5 169.041 364.74C170.903 359.286 172.396 353.714 173.511 348.06C173.648 356.486 173.217 364.912 172.221 373.28C173.659 377.687 174.808 382.183 175.661 386.74C177.431 381.61 179.201 375.66 181.861 368.4C179.181 376.01 180.241 383.46 181.861 391.25C193.291 392.83 191.651 366.67 189.641 358.47C198.891 361.69 200.321 383.09 200.511 394.28C200.511 394.28 209.511 387.47 215.511 358.33C220.631 367.96 213.511 394.01 220.631 399.76C222.631 401.39 223.181 367.37 237.351 359.71C231.821 362.71 231.001 378.98 233.351 390.6C234.558 396.325 237.506 401.536 241.791 405.52Z" fill="white"/>
<path d="M283.161 407.09C283.161 407.09 267.291 364.61 271.321 390.16C271.321 390.16 253.321 377.93 262.711 394.54C262.711 394.54 243.351 389.36 253.841 400.92C253.841 400.92 237.431 405.72 247.651 407.09C257.871 408.46 283.161 407.09 283.161 407.09Z" fill="#525298"/>
<path opacity="0.2" d="M283.161 407.09C283.161 407.09 267.291 364.61 271.321 390.16C271.321 390.16 253.321 377.93 262.711 394.54C262.711 394.54 243.351 389.36 253.841 400.92C253.841 400.92 237.431 405.72 247.651 407.09C257.871 408.46 283.161 407.09 283.161 407.09Z" fill="white"/>
<path d="M278.561 407.17C278.561 407.17 283.641 377.54 293.331 387.27C293.331 387.27 300.591 382.27 303.501 391.19C303.501 391.19 313.911 388.04 310.041 392.88C310.041 392.88 316.331 394.33 314.151 399.66C314.151 399.66 320.211 399.66 319.001 404.5C317.791 409.34 278.561 407.17 278.561 407.17Z" fill="#525298"/>
<path opacity="0.3" d="M278.561 407.17C278.561 407.17 283.641 377.54 293.331 387.27C293.331 387.27 300.591 382.27 303.501 391.19C303.501 391.19 313.911 388.04 310.041 392.88C310.041 392.88 316.331 394.33 314.151 399.66C314.151 399.66 320.211 399.66 319.001 404.5C317.791 409.34 278.561 407.17 278.561 407.17Z" fill="white"/>
<path d="M149.001 407C147.707 406.951 146.472 406.445 145.516 405.572C144.561 404.698 143.946 403.514 143.781 402.23C143.638 400.933 143.949 399.627 144.66 398.534C145.371 397.44 146.438 396.626 147.681 396.23C145.557 395.544 143.703 394.208 142.381 392.411C141.058 390.614 140.334 388.447 140.311 386.216C140.288 383.984 140.967 381.802 142.252 379.978C143.536 378.154 145.362 376.78 147.471 376.05C148.268 375.744 149.129 375.645 149.975 375.76C150.821 375.875 151.624 376.202 152.311 376.71C153.611 377.86 153.781 380.38 152.311 381.3C151.716 379.263 151.8 377.089 152.55 375.104C153.301 373.119 154.677 371.433 156.471 370.3C158.286 369.326 160.387 369.028 162.402 369.458C164.416 369.889 166.212 371.02 167.471 372.65C166.865 371.756 166.536 370.704 166.526 369.624C166.515 368.544 166.823 367.486 167.411 366.58C168.002 365.724 168.854 365.082 169.84 364.751C170.826 364.419 171.893 364.415 172.881 364.74C173.125 363.384 173.871 362.17 174.97 361.338C176.068 360.506 177.439 360.118 178.811 360.25C180.169 360.549 181.371 361.334 182.191 362.457C183.01 363.581 183.391 364.965 183.261 366.35C183.571 363.99 187.261 363.3 188.261 365.4C189.751 364.98 187.811 365.75 187.811 365.75C188.613 364.179 189.898 362.906 191.476 362.118C193.054 361.33 194.843 361.068 196.581 361.37C198.318 361.807 199.878 362.77 201.049 364.126C202.219 365.483 202.943 367.167 203.121 368.95C204.32 368.07 205.759 367.577 207.246 367.538C208.733 367.499 210.197 367.915 211.441 368.73C212.692 369.631 213.668 370.861 214.259 372.285C214.851 373.708 215.035 375.268 214.791 376.79C215.48 376.284 216.268 375.927 217.103 375.743C217.939 375.559 218.804 375.553 219.642 375.723C220.48 375.894 221.273 376.238 221.971 376.733C222.668 377.229 223.254 377.864 223.691 378.6C225.431 381.69 224.081 386.25 220.971 387.74C222.063 387.868 223.067 388.4 223.788 389.231C224.508 390.061 224.892 391.131 224.865 392.23C224.837 393.329 224.4 394.379 223.639 395.172C222.878 395.966 221.848 396.447 220.751 396.52C221.851 396.603 222.888 397.064 223.685 397.827C224.482 398.589 224.989 399.605 225.121 400.7C225.381 402.95 223.901 406.48 221.831 407.07L149.001 407Z" fill="#525298"/>
<g opacity="0.4">
<path d="M186.87 392C187.405 391.606 188.013 391.323 188.659 391.166C189.304 391.01 189.974 390.984 190.63 391.09C191.283 391.212 191.888 391.517 192.373 391.971C192.859 392.424 193.204 393.007 193.37 393.65C193.502 394.301 193.388 394.979 193.05 395.551C192.712 396.123 192.174 396.551 191.54 396.75C189.97 397.13 188.41 395.84 186.81 396.06C186.25 396.191 185.699 396.358 185.16 396.56C182.87 397.17 180.59 395.68 178.69 394.26C177.99 393.801 177.38 393.218 176.89 392.54C176.647 392.197 176.5 391.796 176.465 391.377C176.43 390.959 176.508 390.538 176.69 390.16C177.28 389.16 178.69 389.01 179.82 389.16C182.156 389.433 184.367 390.358 186.2 391.83L186 390.7L186.87 392Z" fill="white"/>
<path d="M153.53 390C154.124 389.523 154.802 389.163 155.53 388.94C155.973 388.741 156.477 388.726 156.931 388.899C157.385 389.071 157.751 389.417 157.95 389.86C158.149 390.303 158.164 390.807 157.991 391.261C157.819 391.714 157.473 392.081 157.03 392.28C156.161 392.862 155.154 393.207 154.11 393.28C153.05 393.44 151.72 393.48 151.2 392.55C151.044 392.191 151.008 391.791 151.096 391.409C151.184 391.028 151.392 390.684 151.69 390.43C152.303 389.951 153.013 389.61 153.77 389.43L153.53 390Z" fill="white"/>
<path d="M206.19 372.67C207.252 373.121 208.192 373.817 208.933 374.702C209.673 375.587 210.193 376.635 210.45 377.76C210.6 378.44 210.58 379.3 209.99 379.66C209.528 379.846 209.012 379.846 208.55 379.66L202.45 378.21C203.442 378.531 204.37 379.025 205.19 379.67C205.598 379.999 205.91 380.431 206.095 380.922C206.279 381.413 206.329 381.944 206.24 382.46C206.039 383.041 205.653 383.541 205.143 383.884C204.632 384.227 204.024 384.394 203.41 384.36C202.179 384.27 201.005 383.802 200.05 383.02C199.482 382.696 198.996 382.246 198.628 381.705C198.261 381.165 198.022 380.547 197.93 379.9C197.93 378.59 199.55 377.38 200.56 378.21C198.228 377.573 196.015 376.56 194.01 375.21C193.256 374.764 192.608 374.16 192.11 373.44C191.867 373.076 191.722 372.656 191.689 372.22C191.656 371.784 191.735 371.346 191.92 370.95C194.01 367.16 196.64 372.72 197.92 373.21C200.36 374.2 203.1 371.38 206.19 372.67Z" fill="white"/>
<path d="M215.68 388.84C215.806 389.208 215.822 389.604 215.726 389.98C215.63 390.357 215.427 390.697 215.14 390.96C214.992 391.078 214.819 391.161 214.634 391.205C214.45 391.249 214.258 391.252 214.072 391.214C213.886 391.176 213.711 391.098 213.559 390.985C213.407 390.872 213.281 390.727 213.19 390.56C214.601 390.841 215.886 391.562 216.86 392.62C217.71 393.77 217.5 395.77 216.14 396.22C215.702 396.298 215.252 396.288 214.818 396.19C214.384 396.092 213.973 395.908 213.61 395.65C211.401 394.44 209.294 393.052 207.31 391.5C207.91 392.89 206.45 394.5 204.94 394.61C203.407 394.573 201.924 394.055 200.7 393.13C199.1 392.13 197.27 390.68 197.7 388.86C198.07 387.27 200.09 386.57 201.65 387.03C203.164 387.646 204.484 388.658 205.47 389.96C204.62 388.72 205.83 386.86 207.33 386.66C208.062 386.622 208.792 386.762 209.458 387.069C210.123 387.375 210.704 387.839 211.15 388.42C209.45 387.49 209.07 385.06 211.35 384.78C212.81 384.6 215.32 387.61 215.68 388.84Z" fill="white"/>
<path d="M169.111 383.39C169.434 383.265 169.781 383.209 170.127 383.227C170.474 383.245 170.813 383.336 171.121 383.494C171.43 383.652 171.702 383.874 171.919 384.145C172.136 384.415 172.293 384.729 172.381 385.065C172.468 385.4 172.483 385.751 172.426 386.093C172.368 386.435 172.239 386.761 172.046 387.05C171.853 387.338 171.602 387.583 171.308 387.767C171.014 387.952 170.685 388.072 170.341 388.12C170.839 388.164 171.323 388.306 171.765 388.538C172.208 388.77 172.601 389.086 172.921 389.47C173.113 389.671 173.262 389.91 173.356 390.172C173.451 390.434 173.49 390.712 173.471 390.99C173.366 391.393 173.128 391.749 172.796 392.001C172.464 392.253 172.058 392.387 171.641 392.38C170.809 392.346 169.997 392.117 169.271 391.71C170.096 391.711 170.905 391.947 171.601 392.39C171.768 392.505 171.911 392.654 172.02 392.825C172.128 392.997 172.201 393.189 172.234 393.39C172.267 393.591 172.259 393.796 172.21 393.994C172.161 394.192 172.073 394.377 171.951 394.54C171.672 394.741 171.346 394.867 171.005 394.905C170.663 394.944 170.317 394.894 170.001 394.76C168.508 394.337 167.138 393.566 166.001 392.51C165.6 393.001 165.085 393.386 164.501 393.631C163.917 393.877 163.282 393.976 162.651 393.92C162.343 393.873 162.048 393.764 161.783 393.6C161.518 393.436 161.289 393.22 161.111 392.964C160.932 392.709 160.807 392.42 160.744 392.115C160.68 391.81 160.679 391.495 160.741 391.19C160.911 390.77 161.195 390.407 161.561 390.14C161.927 389.873 162.36 389.714 162.811 389.68C163.713 389.627 164.617 389.767 165.461 390.09C164.516 389.561 163.769 388.74 163.331 387.75C163.011 386.75 163.701 385.34 164.781 385.43C165.861 385.52 166.601 387.16 167.551 387.75C168.731 386.65 166.531 384.36 169.111 383.39Z" fill="white"/>
<path d="M190.851 378.37C191.492 378.899 191.989 379.581 192.295 380.354C192.601 381.127 192.706 381.965 192.601 382.79C192.501 384.62 191.671 386.57 189.991 387.31C187.781 388.31 184.991 386.44 184.621 384.06C184.501 382.859 184.753 381.651 185.341 380.598C185.929 379.545 186.826 378.697 187.911 378.17C188.382 377.968 188.894 377.881 189.405 377.916C189.916 377.951 190.411 378.106 190.851 378.37Z" fill="white"/>
<path d="M175.451 376.4L174.881 376.89C175.236 376.444 175.722 376.12 176.27 375.962C176.817 375.804 177.401 375.821 177.939 376.009C178.477 376.198 178.943 376.549 179.273 377.014C179.603 377.479 179.78 378.035 179.78 378.605C179.78 379.175 179.603 379.731 179.273 380.196C178.943 380.661 178.477 381.012 177.939 381.2C177.401 381.389 176.817 381.405 176.27 381.247C175.722 381.09 175.236 380.766 174.881 380.32C174.088 380.702 173.193 380.821 172.328 380.659C171.463 380.497 170.672 380.063 170.071 379.42C169.798 379.082 169.598 378.691 169.484 378.272C169.369 377.854 169.341 377.416 169.403 376.986C169.465 376.556 169.615 376.144 169.844 375.775C170.072 375.405 170.374 375.087 170.731 374.84C172.261 373.98 174.581 375.28 174.421 377.03L175.081 376.29L175.451 376.4Z" fill="white"/>
<path d="M158.44 379.15C159.624 380.128 160.531 381.401 161.07 382.84C161.47 384.32 160.81 386.2 159.33 386.58C157.85 386.96 156.45 385.74 155.61 384.47C155.184 383.931 154.882 383.305 154.727 382.636C154.571 381.967 154.565 381.271 154.71 380.6C155.15 379.3 157.02 378.53 157.96 379.53L158.44 379.15Z" fill="white"/>
<path d="M183 370.23C183.155 369.93 183.369 369.666 183.63 369.452C183.89 369.238 184.191 369.079 184.515 368.985C184.839 368.892 185.178 368.865 185.513 368.907C185.847 368.949 186.17 369.059 186.46 369.23C187.023 369.617 187.438 370.185 187.634 370.84C187.83 371.494 187.797 372.197 187.54 372.83C187.261 373.451 186.823 373.987 186.27 374.384C185.716 374.781 185.068 375.024 184.39 375.09C182.72 375.27 180.74 373.92 181.12 372.28C180.731 372.733 180.234 373.082 179.675 373.293C179.116 373.505 178.512 373.572 177.92 373.49C176.736 373.319 175.603 372.893 174.6 372.24C173.19 371.44 171.7 370.24 171.85 368.57C171.959 367.933 172.278 367.351 172.757 366.918C173.235 366.484 173.846 366.225 174.49 366.18C175.137 366.156 175.781 366.26 176.387 366.487C176.993 366.713 177.548 367.058 178.02 367.5C178.731 368.205 179.479 368.873 180.26 369.5C180.656 369.819 181.131 370.025 181.634 370.097C182.137 370.169 182.651 370.105 183.12 369.91L183 370.23Z" fill="white"/>
</g>
<path d="M288.351 407C287.056 406.952 285.82 406.446 284.863 405.573C283.905 404.699 283.288 403.515 283.121 402.23C282.983 400.934 283.295 399.63 284.005 398.537C284.715 397.444 285.781 396.629 287.021 396.23C284.898 395.543 283.045 394.206 281.723 392.409C280.402 390.611 279.679 388.443 279.657 386.212C279.635 383.981 280.315 381.799 281.6 379.975C282.886 378.152 284.712 376.779 286.821 376.05C287.617 375.744 288.477 375.645 289.321 375.76C290.165 375.875 290.967 376.202 291.651 376.71C292.951 377.86 293.121 380.38 291.651 381.3C291.061 379.262 291.148 377.088 291.9 375.104C292.652 373.12 294.028 371.434 295.821 370.3C297.636 369.324 299.738 369.025 301.753 369.455C303.768 369.886 305.564 371.018 306.821 372.65C306.217 371.755 305.89 370.702 305.881 369.622C305.872 368.543 306.182 367.484 306.771 366.58C307.362 365.724 308.215 365.082 309.2 364.751C310.186 364.419 311.253 364.415 312.241 364.74C312.484 363.385 313.227 362.17 314.324 361.338C315.421 360.506 316.791 360.118 318.161 360.25C319.52 360.549 320.723 361.333 321.545 362.457C322.366 363.58 322.749 364.964 322.621 366.35C322.931 363.99 326.621 363.3 327.621 365.4C329.111 364.98 327.181 365.75 327.181 365.75C327.983 364.178 329.267 362.904 330.845 362.116C332.424 361.328 334.213 361.066 335.951 361.37C337.688 361.806 339.248 362.769 340.417 364.126C341.585 365.483 342.307 367.168 342.481 368.95C343.681 368.07 345.12 367.577 346.607 367.538C348.094 367.499 349.557 367.915 350.801 368.73C352.054 369.629 353.031 370.859 353.623 372.283C354.215 373.707 354.398 375.268 354.151 376.79C354.841 376.283 355.628 375.927 356.464 375.743C357.299 375.559 358.164 375.552 359.002 375.723C359.841 375.893 360.634 376.237 361.331 376.733C362.029 377.228 362.614 377.864 363.051 378.6C364.801 381.69 363.441 386.25 360.341 387.74C361.433 387.868 362.438 388.4 363.158 389.231C363.879 390.061 364.263 391.131 364.235 392.23C364.208 393.329 363.77 394.379 363.009 395.172C362.248 395.966 361.218 396.446 360.121 396.52C361.221 396.602 362.258 397.064 363.055 397.827C363.852 398.589 364.36 399.605 364.491 400.7C364.751 402.95 363.261 406.48 361.191 407.07L288.351 407Z" fill="#525298"/>
<g opacity="0.4">
<path d="M326.202 392C326.737 391.606 327.345 391.323 327.991 391.166C328.636 391.01 329.306 390.984 329.962 391.09C330.616 391.212 331.222 391.518 331.709 391.971C332.195 392.424 332.543 393.006 332.712 393.65C332.844 394.301 332.73 394.979 332.392 395.551C332.054 396.123 331.516 396.551 330.882 396.75C329.312 397.13 327.742 395.84 326.142 396.06C325.583 396.193 325.031 396.36 324.492 396.56C322.202 397.17 319.932 395.68 318.022 394.26C317.324 393.799 316.715 393.216 316.222 392.54C315.981 392.196 315.836 391.794 315.802 391.376C315.769 390.957 315.848 390.537 316.032 390.16C316.622 389.16 318.032 389.01 319.162 389.16C321.497 389.433 323.709 390.358 325.542 391.83L325.362 390.74L326.202 392Z" fill="white"/>
<path d="M292.871 390C293.465 389.523 294.144 389.163 294.871 388.94C295.091 388.841 295.327 388.787 295.568 388.78C295.808 388.773 296.047 388.813 296.272 388.899C296.497 388.984 296.702 389.113 296.877 389.278C297.052 389.443 297.193 389.641 297.291 389.86C297.39 390.079 297.444 390.316 297.451 390.556C297.458 390.796 297.418 391.036 297.333 391.26C297.247 391.485 297.118 391.691 296.953 391.866C296.789 392.041 296.591 392.181 296.371 392.28C295.497 392.86 294.488 393.204 293.441 393.28C292.391 393.44 291.051 393.48 290.531 392.55C290.377 392.19 290.342 391.789 290.432 391.407C290.522 391.026 290.732 390.683 291.031 390.43C291.64 389.949 292.346 389.608 293.101 389.43L292.871 390Z" fill="white"/>
<path d="M345.53 372.67C346.59 373.124 347.529 373.822 348.269 374.706C349.009 375.59 349.53 376.637 349.791 377.76C349.941 378.44 349.921 379.3 349.321 379.66C348.858 379.846 348.343 379.846 347.881 379.66L341.78 378.21C342.776 378.53 343.707 379.025 344.53 379.67C344.933 380.003 345.242 380.436 345.427 380.925C345.611 381.415 345.664 381.944 345.58 382.46C345.378 383.04 344.993 383.539 344.482 383.882C343.972 384.224 343.364 384.392 342.75 384.36C341.519 384.27 340.346 383.802 339.391 383.02C338.82 382.698 338.332 382.249 337.963 381.708C337.593 381.167 337.353 380.548 337.261 379.9C337.261 378.59 338.89 377.38 339.9 378.21C337.566 377.571 335.35 376.558 333.34 375.21C332.592 374.761 331.948 374.157 331.451 373.44C331.206 373.077 331.06 372.656 331.027 372.22C330.994 371.784 331.074 371.346 331.261 370.95C333.341 367.16 335.981 372.72 337.261 373.21C339.691 374.2 342.44 371.38 345.53 372.67Z" fill="white"/>
<path d="M355.001 388.84C355.127 389.207 355.143 389.604 355.047 389.98C354.951 390.357 354.748 390.697 354.461 390.96C354.312 391.087 354.136 391.178 353.946 391.228C353.756 391.277 353.557 391.282 353.365 391.244C353.172 391.205 352.991 391.124 352.835 391.005C352.678 390.887 352.551 390.735 352.461 390.56C353.871 390.843 355.155 391.564 356.131 392.62C356.981 393.77 356.771 395.77 355.411 396.22C354.973 396.298 354.523 396.288 354.089 396.19C353.654 396.092 353.244 395.909 352.881 395.65C350.67 394.438 348.56 393.05 346.571 391.5C347.181 392.89 345.721 394.5 344.201 394.61C342.668 394.572 341.185 394.054 339.961 393.13C338.371 392.13 336.541 390.68 336.961 388.86C337.321 387.27 339.351 386.57 340.961 387.03C342.487 387.653 343.814 388.68 344.801 390C343.941 388.76 345.161 386.9 346.661 386.7C347.393 386.662 348.123 386.803 348.788 387.11C349.453 387.416 350.034 387.879 350.481 388.46C348.781 387.53 348.401 385.1 350.671 384.82C352.151 384.6 354.661 387.61 355.001 388.84Z" fill="white"/>
<path d="M308.442 383.39C308.765 383.265 309.112 383.209 309.458 383.227C309.805 383.245 310.143 383.336 310.452 383.494C310.761 383.652 311.033 383.874 311.25 384.145C311.467 384.415 311.624 384.729 311.712 385.065C311.799 385.4 311.814 385.751 311.757 386.093C311.699 386.435 311.569 386.761 311.377 387.05C311.184 387.338 310.933 387.583 310.639 387.767C310.345 387.952 310.016 388.072 309.672 388.12C310.171 388.163 310.657 388.304 311.102 388.536C311.546 388.768 311.941 389.085 312.262 389.47C312.453 389.672 312.599 389.911 312.692 390.173C312.785 390.435 312.822 390.713 312.802 390.99C312.699 391.392 312.463 391.748 312.133 392C311.803 392.252 311.397 392.386 310.982 392.38C310.147 392.345 309.332 392.115 308.602 391.71C309.43 391.711 310.242 391.947 310.942 392.39C311.108 392.506 311.25 392.655 311.358 392.827C311.466 392.999 311.538 393.191 311.571 393.391C311.603 393.591 311.595 393.796 311.548 393.994C311.5 394.191 311.413 394.377 311.292 394.54C311.008 394.75 310.673 394.881 310.322 394.92C309.97 394.958 309.615 394.903 309.292 394.76C307.799 394.338 306.428 393.567 305.292 392.51C304.891 393.001 304.376 393.386 303.792 393.631C303.208 393.877 302.573 393.976 301.942 393.92C301.633 393.874 301.336 393.767 301.071 393.603C300.805 393.439 300.575 393.223 300.395 392.967C300.216 392.712 300.09 392.423 300.026 392.117C299.961 391.811 299.96 391.496 300.022 391.19C300.194 390.772 300.478 390.409 300.844 390.143C301.209 389.876 301.641 389.716 302.092 389.68C302.994 389.626 303.898 389.766 304.742 390.09C303.8 389.557 303.054 388.737 302.612 387.75C302.292 386.75 302.992 385.34 304.062 385.43C305.132 385.52 305.892 387.16 306.842 387.75C308.062 386.65 305.862 384.36 308.442 383.39Z" fill="white"/>
<path d="M330.191 378.37C330.826 378.903 331.319 379.587 331.625 380.358C331.93 381.13 332.039 381.966 331.941 382.79C331.831 384.62 331.001 386.57 329.331 387.31C327.121 388.31 324.331 386.44 323.961 384.06C323.837 382.859 324.086 381.649 324.675 380.595C325.264 379.541 326.163 378.694 327.251 378.17C327.722 377.968 328.234 377.881 328.745 377.916C329.256 377.951 329.751 378.106 330.191 378.37Z" fill="white"/>
<path d="M314.781 376.4L314.221 376.89C314.576 376.444 315.062 376.12 315.61 375.962C316.158 375.804 316.741 375.821 317.279 376.009C317.817 376.198 318.284 376.549 318.613 377.014C318.943 377.479 319.121 378.035 319.121 378.605C319.121 379.175 318.943 379.731 318.613 380.196C318.284 380.661 317.817 381.012 317.279 381.2C316.741 381.389 316.158 381.405 315.61 381.247C315.062 381.09 314.576 380.766 314.221 380.32C313.426 380.703 312.53 380.822 311.663 380.66C310.796 380.498 310.004 380.064 309.401 379.42C309.128 379.082 308.928 378.691 308.814 378.272C308.699 377.854 308.672 377.416 308.733 376.986C308.795 376.556 308.945 376.144 309.174 375.775C309.402 375.405 309.704 375.087 310.061 374.84C311.591 373.98 313.911 375.28 313.751 377.03L314.411 376.29L314.781 376.4Z" fill="white"/>
<path d="M297.781 379.15C298.963 380.129 299.867 381.401 300.401 382.84C300.801 384.32 300.141 386.2 298.661 386.58C297.181 386.96 295.791 385.74 294.951 384.47C294.521 383.933 294.216 383.307 294.061 382.637C293.905 381.967 293.902 381.271 294.051 380.6C294.491 379.3 296.361 378.53 297.301 379.53L297.781 379.15Z" fill="white"/>
<path d="M322.281 370.23C322.438 369.931 322.654 369.667 322.915 369.454C323.177 369.241 323.479 369.083 323.803 368.989C324.127 368.896 324.467 368.869 324.802 368.91C325.137 368.952 325.46 369.06 325.751 369.23C326.313 369.619 326.725 370.187 326.92 370.842C327.114 371.496 327.079 372.198 326.821 372.83C326.546 373.451 326.11 373.988 325.558 374.385C325.006 374.783 324.358 375.026 323.681 375.09C322.001 375.27 320.031 373.92 320.411 372.28C320.02 372.733 319.521 373.082 318.96 373.293C318.4 373.504 317.795 373.572 317.201 373.49C316.018 373.316 314.886 372.89 313.881 372.24C312.481 371.44 310.981 370.24 311.131 368.57C311.242 367.932 311.563 367.35 312.044 366.917C312.524 366.484 313.136 366.224 313.781 366.18C314.428 366.156 315.073 366.26 315.678 366.487C316.284 366.713 316.839 367.058 317.311 367.5C318.023 368.205 318.77 368.873 319.551 369.5C319.947 369.819 320.422 370.025 320.925 370.097C321.428 370.169 321.942 370.105 322.411 369.91L322.281 370.23Z" fill="white"/>
</g>
<path d="M219.461 407.09C219.461 407.09 203.591 364.61 207.631 390.16C207.631 390.16 189.631 377.93 199.021 394.54C199.021 394.54 179.651 389.36 190.141 400.92C190.141 400.92 173.741 405.72 183.961 407.09C194.181 408.46 219.461 407.09 219.461 407.09Z" fill="#525298"/>
<path opacity="0.2" d="M219.461 407.09C219.461 407.09 203.591 364.61 207.631 390.16C207.631 390.16 189.631 377.93 199.021 394.54C199.021 394.54 179.651 389.36 190.141 400.92C190.141 400.92 173.741 405.72 183.961 407.09C194.181 408.46 219.461 407.09 219.461 407.09Z" fill="white"/>
<path d="M214.861 407.17C214.861 407.17 219.951 377.54 229.631 387.27C229.631 387.27 236.901 382.27 239.801 391.19C239.801 391.19 250.221 388.04 246.341 392.88C246.341 392.88 252.641 394.33 250.461 399.66C250.461 399.66 256.461 399.66 255.301 404.5C254.141 409.34 214.861 407.17 214.861 407.17Z" fill="#525298"/>
<path opacity="0.3" d="M214.861 407.17C214.861 407.17 219.951 377.54 229.631 387.27C229.631 387.27 236.901 382.27 239.801 391.19C239.801 391.19 250.221 388.04 246.341 392.88C246.341 392.88 252.641 394.33 250.461 399.66C250.461 399.66 256.461 399.66 255.301 404.5C254.141 409.34 214.861 407.17 214.861 407.17Z" fill="white"/>
<path d="M285.452 373.34C285.542 373.48 284.832 374.26 287.362 374.19C293.592 374.03 304.542 372.87 308.292 366.94C313.632 358.48 300.102 360.14 301.122 355.6C302.142 351.06 316.982 353.71 319.392 347.17C321.802 340.63 311.282 342.58 311.562 339.28C311.842 335.98 323.252 339.46 326.462 332.48C329.672 325.5 320.192 329.76 321.582 326.86C322.972 323.96 334.532 311.52 329.362 309.27C324.192 307.02 313.362 319.93 309.652 321.48C305.942 323.03 304.232 311.2 299.472 315.48C294.712 319.76 299.222 337.53 293.472 340.16C289.222 342.11 291.162 335.52 285.792 336.16C278.522 337 277.812 362.33 285.452 373.34Z" fill="#525298"/>
<g opacity="0.3">
<path d="M285.452 373.34C285.542 373.48 284.832 374.26 287.362 374.19C293.592 374.03 304.542 372.87 308.292 366.94C313.632 358.48 300.102 360.14 301.122 355.6C302.142 351.06 316.982 353.71 319.392 347.17C321.802 340.63 311.282 342.58 311.562 339.28C311.842 335.98 323.252 339.46 326.462 332.48C329.672 325.5 320.192 329.76 321.582 326.86C322.972 323.96 334.532 311.52 329.362 309.27C324.192 307.02 313.362 319.93 309.652 321.48C305.942 323.03 304.232 311.2 299.472 315.48C294.712 319.76 299.222 337.53 293.472 340.16C289.222 342.11 291.162 335.52 285.792 336.16C278.522 337 277.812 362.33 285.452 373.34Z" fill="white"/>
</g>
<path d="M282.111 395.75C282.058 395.747 282.007 395.735 281.959 395.712C281.912 395.689 281.869 395.658 281.834 395.619C281.799 395.58 281.771 395.534 281.754 395.485C281.736 395.435 281.728 395.382 281.731 395.33C283.911 353.25 306.731 334.61 306.991 334.43C307.075 334.364 307.182 334.333 307.288 334.344C307.395 334.355 307.493 334.407 307.561 334.49C307.595 334.532 307.619 334.58 307.634 334.631C307.649 334.683 307.653 334.737 307.647 334.79C307.64 334.843 307.623 334.894 307.596 334.941C307.569 334.987 307.534 335.028 307.491 335.06C307.261 335.24 284.701 353.68 282.541 395.37C282.538 395.423 282.525 395.476 282.502 395.524C282.479 395.572 282.446 395.615 282.406 395.651C282.366 395.686 282.319 395.713 282.269 395.73C282.218 395.747 282.164 395.754 282.111 395.75Z" fill="#525298"/>
<path d="M301.881 340.61C301.799 340.611 301.718 340.587 301.65 340.54C301.582 340.494 301.53 340.427 301.501 340.35C301.48 340.302 301.469 340.249 301.469 340.197C301.469 340.144 301.479 340.091 301.5 340.043C301.52 339.994 301.55 339.95 301.588 339.914C301.626 339.877 301.672 339.849 301.721 339.83C301.871 339.77 305.371 338.39 311.321 339.22C311.426 339.237 311.521 339.295 311.584 339.381C311.648 339.467 311.675 339.574 311.661 339.68C311.655 339.733 311.638 339.785 311.611 339.831C311.584 339.878 311.548 339.918 311.505 339.95C311.462 339.982 311.413 340.005 311.36 340.017C311.308 340.029 311.254 340.03 311.201 340.02C308.14 339.478 304.994 339.67 302.021 340.58C301.977 340.6 301.929 340.611 301.881 340.61Z" fill="#525298"/>
<path d="M297.8 346C297.696 346 297.594 345.962 297.517 345.891C297.439 345.821 297.39 345.724 297.38 345.62C296.38 333.01 302.99 322.62 303.06 322.54C303.119 322.45 303.21 322.386 303.315 322.364C303.421 322.341 303.53 322.362 303.62 322.42C303.71 322.478 303.774 322.57 303.796 322.675C303.819 322.78 303.799 322.89 303.74 322.98C303.67 323.08 297.21 333.23 298.19 345.56C298.194 345.613 298.188 345.665 298.172 345.715C298.155 345.766 298.129 345.812 298.095 345.852C298.06 345.892 298.018 345.925 297.971 345.948C297.924 345.972 297.873 345.986 297.82 345.99L297.8 346Z" fill="#525298"/>
<path d="M291.392 357.17C291.285 357.17 291.182 357.131 291.102 357.06C291.028 356.983 290.986 356.881 290.986 356.775C290.986 356.669 291.028 356.566 291.102 356.49C291.152 356.43 296.212 351.05 303.462 353.1C303.513 353.114 303.561 353.138 303.604 353.17C303.646 353.203 303.681 353.244 303.707 353.291C303.733 353.337 303.75 353.389 303.756 353.442C303.762 353.495 303.757 353.549 303.742 353.6C303.711 353.703 303.642 353.789 303.549 353.842C303.455 353.894 303.345 353.908 303.242 353.88C296.462 351.97 291.742 356.98 291.692 357.04C291.613 357.121 291.505 357.168 291.392 357.17Z" fill="#525298"/>
<path d="M288.171 364.88C288.093 364.881 288.017 364.861 287.95 364.822C287.884 364.783 287.828 364.727 287.791 364.66C285.646 359.772 284.822 354.406 285.401 349.1C285.405 349.047 285.42 348.996 285.445 348.95C285.469 348.903 285.502 348.861 285.543 348.827C285.583 348.793 285.63 348.768 285.68 348.752C285.73 348.736 285.783 348.73 285.836 348.735C285.888 348.74 285.939 348.754 285.986 348.779C286.033 348.803 286.074 348.836 286.108 348.877C286.142 348.917 286.168 348.964 286.184 349.014C286.2 349.064 286.205 349.117 286.201 349.17C285.665 354.325 286.46 359.53 288.511 364.29C288.536 364.336 288.552 364.387 288.558 364.44C288.563 364.493 288.558 364.546 288.542 364.596C288.526 364.647 288.5 364.694 288.465 364.734C288.431 364.774 288.388 364.807 288.341 364.83C288.287 364.854 288.229 364.871 288.171 364.88Z" fill="#525298"/>
<path d="M223.301 383.46C218.381 384.89 208.701 382.56 204.181 378.98C199.661 375.4 209.821 375.62 207.891 372.32C205.961 369.02 195.001 374.79 191.481 370.26C187.961 365.73 196.691 364.65 195.661 362.14C194.631 359.63 186.041 362.49 181.791 357.82C177.541 353.15 186.021 354.13 184.211 352.21C182.401 350.29 170.211 343.41 173.741 340.35C177.271 337.29 188.901 344.73 192.221 345.02C195.541 345.31 194.411 338.32 199.221 340.52C204.031 342.72 204.901 357.73 210.031 358.36C213.851 358.83 210.641 352.72 215.031 353.3C222.761 354.31 225.301 382.89 223.301 383.46Z" fill="#525298"/>
<g opacity="0.2">
<path d="M223.301 383.46C218.381 384.89 208.701 382.56 204.181 378.98C199.661 375.4 209.821 375.62 207.891 372.32C205.961 369.02 195.001 374.79 191.481 370.26C187.961 365.73 196.691 364.65 195.661 362.14C194.631 359.63 186.041 362.49 181.791 357.82C177.541 353.15 186.021 354.13 184.211 352.21C182.401 350.29 170.211 343.41 173.741 340.35C177.271 337.29 188.901 344.73 192.221 345.02C195.541 345.31 194.411 338.32 199.221 340.52C204.031 342.72 204.901 357.73 210.031 358.36C213.851 358.83 210.641 352.72 215.031 353.3C222.761 354.31 225.301 382.89 223.301 383.46Z" fill="white"/>
</g>
<path d="M233.87 412.19C233.771 412.209 233.668 412.192 233.581 412.14C233.495 412.088 233.43 412.006 233.4 411.91L230.05 401.34C219.11 366.13 188.27 348.4 187.96 348.22C187.913 348.195 187.871 348.161 187.838 348.119C187.804 348.078 187.779 348.03 187.764 347.979C187.749 347.927 187.745 347.874 187.751 347.821C187.757 347.768 187.774 347.716 187.8 347.67C187.854 347.576 187.944 347.507 188.049 347.479C188.154 347.451 188.266 347.466 188.36 347.52C188.67 347.69 219.79 365.58 230.82 401.1L234.17 411.68C234.185 411.731 234.19 411.784 234.185 411.836C234.18 411.889 234.164 411.94 234.139 411.986C234.114 412.033 234.08 412.074 234.039 412.107C233.998 412.14 233.951 412.165 233.9 412.18L233.87 412.19Z" fill="#525298"/>
<path d="M201.581 358.92H201.511C201.468 358.929 201.423 358.929 201.381 358.92H201.251C197.712 358.441 194.112 358.686 190.671 359.64C190.62 359.654 190.567 359.659 190.515 359.653C190.463 359.647 190.412 359.63 190.366 359.605C190.32 359.579 190.28 359.545 190.247 359.504C190.214 359.463 190.19 359.415 190.176 359.365C190.161 359.314 190.157 359.261 190.163 359.209C190.169 359.157 190.185 359.106 190.211 359.06C190.236 359.014 190.27 358.974 190.312 358.941C190.353 358.909 190.4 358.884 190.451 358.87C193.994 357.876 197.704 357.621 201.351 358.12H201.501H201.571C201.658 358.139 201.737 358.187 201.795 358.256C201.852 358.325 201.886 358.41 201.891 358.5C201.9 358.596 201.873 358.692 201.816 358.769C201.759 358.847 201.675 358.901 201.581 358.92Z" fill="#525298"/>
<path d="M206.251 362.59C206.145 362.607 206.037 362.583 205.949 362.521C205.861 362.459 205.801 362.366 205.781 362.26C203.941 351.5 196.201 344.26 196.131 344.26C196.093 344.223 196.063 344.178 196.043 344.129C196.022 344.081 196.012 344.028 196.012 343.975C196.012 343.922 196.022 343.869 196.043 343.82C196.063 343.772 196.093 343.727 196.131 343.69C196.208 343.616 196.31 343.575 196.416 343.575C196.522 343.575 196.625 343.616 196.701 343.69C196.781 343.76 204.701 351.14 206.611 362.18C206.614 362.281 206.579 362.38 206.512 362.456C206.445 362.532 206.352 362.58 206.251 362.59Z" fill="#525298"/>
<path d="M211.421 367.74C211.321 367.758 211.219 367.74 211.131 367.69C209.51 366.853 207.706 366.431 205.882 366.465C204.058 366.498 202.27 366.984 200.681 367.88C200.635 367.908 200.584 367.927 200.532 367.934C200.479 367.942 200.425 367.939 200.373 367.924C200.322 367.91 200.273 367.886 200.232 367.852C200.19 367.819 200.156 367.777 200.131 367.73C200.08 367.637 200.067 367.527 200.095 367.425C200.123 367.322 200.189 367.234 200.281 367.18C201.987 366.196 203.916 365.662 205.886 365.628C207.856 365.595 209.802 366.064 211.541 366.99C211.633 367.046 211.7 367.136 211.728 367.24C211.756 367.344 211.743 367.455 211.691 367.55C211.629 367.646 211.532 367.714 211.421 367.74Z" fill="#525298"/>
<path d="M218.611 376.57H218.431C218.379 376.558 218.329 376.536 218.286 376.505C218.242 376.474 218.205 376.434 218.177 376.388C218.149 376.343 218.131 376.292 218.123 376.239C218.115 376.186 218.118 376.132 218.131 376.08C218.843 371.561 218.389 366.934 216.811 362.64C216.794 362.59 216.787 362.537 216.79 362.485C216.793 362.432 216.807 362.38 216.83 362.333C216.853 362.285 216.886 362.243 216.925 362.208C216.965 362.173 217.011 362.147 217.061 362.13C217.11 362.109 217.163 362.1 217.216 362.101C217.269 362.102 217.321 362.114 217.369 362.137C217.417 362.159 217.46 362.192 217.495 362.232C217.53 362.272 217.556 362.319 217.571 362.37C219.225 366.803 219.69 371.591 218.921 376.26C218.903 376.335 218.864 376.404 218.81 376.459C218.755 376.513 218.686 376.552 218.611 376.57Z" fill="#525298"/>
<path d="M229.921 398.77C229.867 398.776 229.814 398.77 229.762 398.755C229.711 398.739 229.663 398.713 229.622 398.678C229.581 398.644 229.548 398.601 229.523 398.554C229.499 398.506 229.485 398.454 229.481 398.4C229.481 398.33 229.361 397.55 229.121 396.2C228.781 394.2 228.021 389.98 226.721 384.41C226.725 384.33 226.725 384.25 226.721 384.17C225.261 377.94 223.561 371.88 221.671 366.17C219.911 360.8 217.961 355.65 215.861 350.85C214.066 346.721 212.063 342.686 209.861 338.76L208.861 337.04C208.581 336.57 208.301 336.1 208.001 335.64C207.261 334.43 206.561 333.27 205.941 332.18C204.571 329.8 203.301 327.4 202.151 325.06C201.461 323.65 200.811 322.25 200.231 320.91C197.99 315.836 196.187 310.581 194.841 305.2C194.311 303.08 193.841 300.95 193.531 298.86C193.165 296.672 192.918 294.465 192.791 292.25C192.791 292.09 192.791 291.94 192.791 291.8V291.59C192.757 291.496 192.757 291.394 192.791 291.3C192.848 291.209 192.939 291.145 193.044 291.12C193.149 291.096 193.259 291.114 193.351 291.17C193.412 291.209 193.462 291.262 193.497 291.325C193.532 291.387 193.55 291.458 193.551 291.53V291.75V292.21C193.675 294.395 193.919 296.572 194.281 298.73C194.621 300.8 195.051 302.91 195.571 305.01C196.913 310.346 198.706 315.558 200.931 320.59C201.501 321.92 202.141 323.3 202.831 324.7C203.971 327.03 205.231 329.42 206.601 331.78C207.211 332.86 207.901 334.01 208.601 335.21C208.891 335.68 209.181 336.15 209.461 336.62L210.461 338.35C212.698 342.298 214.728 346.36 216.541 350.52C218.651 355.35 220.621 360.52 222.381 365.91C224.281 371.69 225.981 377.78 227.441 384.01C227.47 384.102 227.493 384.195 227.511 384.29C228.801 389.85 229.571 394.08 229.911 396.11C230.151 397.47 230.271 398.3 230.281 398.37C230.281 398.47 230.245 398.566 230.178 398.64C230.112 398.714 230.02 398.76 229.921 398.77Z" fill="#525298"/>
<path d="M193 291.59C193.52 290.804 194.127 290.079 194.81 289.43C195.566 288.732 196.405 288.13 197.31 287.64" fill="#525298"/>
<path d="M193.081 292C193.004 292.017 192.923 292.01 192.849 291.981C192.775 291.952 192.711 291.902 192.666 291.836C192.621 291.771 192.597 291.693 192.596 291.614C192.595 291.534 192.618 291.457 192.661 291.39C192.656 291.374 192.656 291.356 192.661 291.34C193.203 290.535 193.83 289.791 194.531 289.12C195.312 288.395 196.182 287.773 197.121 287.27C197.214 287.22 197.323 287.209 197.424 287.239C197.525 287.269 197.61 287.338 197.661 287.43C197.712 287.524 197.723 287.635 197.693 287.738C197.663 287.84 197.594 287.927 197.501 287.98C196.627 288.45 195.817 289.032 195.091 289.71C194.432 290.336 193.845 291.034 193.341 291.79C193.317 291.843 193.281 291.89 193.236 291.926C193.191 291.963 193.138 291.988 193.081 292Z" fill="#525298"/>
<path d="M193.861 299.13C193.77 299.16 193.672 299.16 193.581 299.13L190.431 297.51C190.335 297.461 190.263 297.376 190.23 297.274C190.197 297.171 190.207 297.06 190.256 296.965C190.305 296.869 190.39 296.797 190.492 296.764C190.594 296.732 190.705 296.741 190.801 296.79L193.951 298.41C194.025 298.446 194.087 298.505 194.126 298.578C194.166 298.651 194.182 298.734 194.172 298.817C194.162 298.899 194.127 298.977 194.071 299.038C194.015 299.099 193.942 299.142 193.861 299.16V299.13Z" fill="#525298"/>
<path d="M206.23 332.36C206.124 332.378 206.015 332.355 205.926 332.295C205.837 332.236 205.774 332.145 205.75 332.04C205.692 331.283 205.715 330.522 205.82 329.77C205.942 328.706 206.229 327.667 206.67 326.69C206.999 325.956 207.405 325.259 207.88 324.61C207.911 324.566 207.951 324.53 207.997 324.502C208.043 324.475 208.095 324.456 208.148 324.449C208.201 324.441 208.255 324.445 208.307 324.459C208.359 324.473 208.407 324.497 208.45 324.53C208.493 324.561 208.529 324.6 208.557 324.645C208.585 324.69 208.603 324.74 208.61 324.793C208.618 324.845 208.614 324.899 208.6 324.95C208.587 325.001 208.563 325.048 208.53 325.09C208.086 325.685 207.707 326.325 207.4 327C206.994 327.905 206.728 328.866 206.61 329.85C206.514 330.512 206.491 331.183 206.54 331.85C206.552 331.899 206.553 331.95 206.545 332C206.537 332.05 206.519 332.098 206.492 332.141C206.465 332.184 206.429 332.221 206.388 332.25C206.346 332.279 206.299 332.299 206.25 332.31L206.23 332.36Z" fill="#525298"/>
<path d="M210.17 338.92C210.093 338.939 210.012 338.935 209.938 338.909C209.863 338.882 209.798 338.834 209.75 338.77C209.188 338.022 208.478 337.397 207.664 336.934C206.851 336.472 205.951 336.181 205.02 336.08C204.968 336.075 204.917 336.059 204.87 336.035C204.823 336.01 204.782 335.976 204.749 335.935C204.715 335.894 204.69 335.847 204.675 335.796C204.66 335.746 204.655 335.692 204.66 335.64C204.671 335.533 204.722 335.434 204.805 335.365C204.887 335.296 204.993 335.261 205.1 335.27C206.142 335.38 207.15 335.703 208.062 336.219C208.974 336.735 209.77 337.433 210.4 338.27C210.433 338.311 210.457 338.359 210.471 338.41C210.485 338.461 210.488 338.515 210.481 338.567C210.473 338.619 210.455 338.67 210.428 338.715C210.4 338.76 210.364 338.799 210.32 338.83C210.279 338.872 210.227 338.903 210.17 338.92Z" fill="#525298"/>
<path d="M224 372.77C222.88 371.97 221.19 368.25 220.28 366.25C220.07 365.77 219.88 365.36 219.74 365.07" fill="#525298"/>
<path d="M224.081 373.16C224.025 373.175 223.967 373.178 223.91 373.167C223.853 373.157 223.799 373.134 223.751 373.1C222.641 372.31 221.181 369.23 219.901 366.42C219.691 365.94 219.511 365.54 219.371 365.25C219.347 365.203 219.333 365.151 219.329 365.098C219.325 365.046 219.332 364.992 219.349 364.942C219.365 364.892 219.392 364.846 219.427 364.806C219.462 364.766 219.504 364.733 219.551 364.71C219.598 364.684 219.65 364.669 219.703 364.664C219.756 364.66 219.81 364.666 219.86 364.683C219.911 364.7 219.958 364.727 219.997 364.762C220.037 364.798 220.069 364.841 220.091 364.89C220.241 365.19 220.421 365.6 220.641 366.08C221.471 367.91 223.191 371.7 224.221 372.44C224.266 372.469 224.304 372.507 224.334 372.551C224.363 372.596 224.383 372.646 224.393 372.698C224.402 372.751 224.401 372.805 224.388 372.856C224.376 372.908 224.353 372.957 224.321 373C224.266 373.083 224.179 373.14 224.081 373.16Z" fill="#525298"/>
<path d="M202.461 325.25C202.367 325.266 202.271 325.251 202.187 325.205C202.103 325.16 202.038 325.088 202.001 325C201.811 324.36 197.421 309.36 204.481 301.4C204.557 301.326 204.659 301.285 204.766 301.285C204.872 301.285 204.974 301.326 205.051 301.4C205.125 301.478 205.167 301.582 205.167 301.69C205.167 301.798 205.125 301.902 205.051 301.98C198.301 309.59 202.701 324.66 202.751 324.81C202.779 324.912 202.767 325.021 202.716 325.114C202.666 325.207 202.582 325.278 202.481 325.31L202.461 325.25Z" fill="#525298"/>
<path d="M210.512 358.23C210.362 362.13 219.972 366.91 219.972 366.91C219.972 366.91 229.912 362.86 230.052 358.91C230.192 354.96 226.052 349.81 220.622 349.61C215.192 349.41 210.652 354.33 210.512 358.23Z" fill="#525298"/>
<path d="M190.152 316.8C192.152 320.37 200.252 321.11 200.252 321.11C200.252 321.11 203.792 313.8 201.772 310.24C199.752 306.68 194.562 303.55 191.362 305.36C188.162 307.17 188.142 313.24 190.152 316.8Z" fill="#525298"/>
<path d="M212.83 323.86C212.111 324.898 211.201 325.79 210.15 326.49C209.62 326.832 209.006 327.023 208.375 327.043C207.744 327.062 207.12 326.909 206.57 326.6C205.28 325.73 205.07 323.89 205.33 322.35C205.83 319.3 209.14 313.47 212.99 313.85C218.55 314.41 214.63 321.59 212.83 323.86Z" fill="#525298"/>
<path d="M204.36 333.56C205.24 334.2 206.22 335.05 206.13 336.14C206.035 336.612 205.788 337.039 205.427 337.357C205.065 337.675 204.61 337.866 204.13 337.9C203.157 337.935 202.189 337.747 201.3 337.35C199.19 336.59 194.84 334.98 196.52 331.92C198.2 328.86 202.5 332.21 204.36 333.56Z" fill="#525298"/>
<path d="M210.001 295C210.387 294.926 210.787 294.973 211.146 295.136C211.504 295.299 211.803 295.57 212.001 295.91C212.121 296.359 212.119 296.832 211.996 297.28C211.873 297.728 211.633 298.135 211.301 298.46C209.901 300.3 205.571 305.4 203.431 302.17C201.431 299.13 207.581 295.39 210.001 295Z" fill="#525298"/>
<path d="M197.062 286C198.192 285.81 199.172 285.12 200.292 284.89C201.412 284.66 202.872 285.22 202.912 286.36C202.952 287.5 201.812 288.08 200.812 288.42C199.102 288.981 197.328 289.317 195.532 289.42C195.114 289.494 194.685 289.404 194.332 289.17C193.712 288.64 194.182 287.57 194.882 287.17C195.63 286.86 196.341 286.468 197.002 286H197.062Z" fill="#525298"/>
<path d="M188.37 296.39C187.27 296.72 186.08 296.54 184.98 296.83C183.88 297.12 182.82 298.27 183.28 299.31C183.74 300.35 185.03 300.36 186.08 300.22C187.865 299.981 189.61 299.507 191.27 298.81C191.478 298.757 191.673 298.663 191.845 298.535C192.016 298.406 192.161 298.245 192.27 298.06C192.59 297.3 191.7 296.56 190.88 296.47C190.066 296.531 189.248 296.5 188.44 296.38L188.37 296.39Z" fill="#525298"/>
<path d="M193.001 293.14C192.895 293.154 192.788 293.127 192.702 293.063C192.616 293 192.559 292.905 192.541 292.8C192.211 290.6 191.541 288.58 191.081 288.55C190.975 288.54 190.877 288.49 190.806 288.41C190.736 288.33 190.698 288.226 190.701 288.12C190.704 288.066 190.717 288.014 190.74 287.966C190.763 287.918 190.796 287.874 190.836 287.839C190.876 287.804 190.923 287.777 190.974 287.76C191.024 287.743 191.078 287.736 191.131 287.74C192.471 287.83 193.131 291.22 193.341 292.68C193.353 292.785 193.325 292.891 193.262 292.977C193.199 293.062 193.106 293.12 193.001 293.14Z" fill="#525298"/>
<path d="M192.632 287.9C191.678 286.491 190.371 285.356 188.842 284.61C187.262 284 185.122 284.5 184.512 286.07C183.832 287.84 185.512 289.8 187.372 290.14C189.232 290.48 191.102 289.73 192.852 288.99L192.672 288.17L192.632 287.9Z" fill="#525298"/>
<path d="M281.65 385L281.55 384.93C281.423 384.821 281.344 384.668 281.329 384.501C281.314 384.335 281.364 384.169 281.47 384.04C296.16 366.36 312.18 364.04 312.35 363.98C312.432 363.969 312.515 363.974 312.596 363.995C312.676 364.016 312.751 364.052 312.817 364.103C312.883 364.153 312.938 364.215 312.98 364.287C313.022 364.359 313.049 364.438 313.06 364.52C313.08 364.685 313.035 364.852 312.934 364.985C312.833 365.117 312.684 365.205 312.52 365.23C312.36 365.23 296.79 367.57 282.44 384.85C282.346 384.963 282.216 385.04 282.072 385.067C281.928 385.095 281.778 385.071 281.65 385Z" fill="#525298"/>
<path d="M307.171 366.52C307.037 366.451 306.932 366.336 306.876 366.196C306.819 366.056 306.815 365.901 306.863 365.758C306.912 365.615 307.01 365.494 307.14 365.418C307.27 365.341 307.423 365.313 307.571 365.34C309.762 365.835 311.796 366.866 313.491 368.34C313.557 368.392 313.611 368.456 313.652 368.528C313.692 368.601 313.718 368.681 313.727 368.764C313.736 368.847 313.729 368.931 313.706 369.011C313.682 369.091 313.644 369.165 313.591 369.23C313.485 369.36 313.333 369.443 313.167 369.462C313 369.48 312.833 369.433 312.701 369.33C311.172 368.002 309.348 367.056 307.381 366.57C307.309 366.565 307.238 366.548 307.171 366.52Z" fill="#525298"/>
<path d="M303.002 368.22C302.862 368.14 302.757 368.01 302.709 367.856C302.661 367.702 302.672 367.536 302.742 367.39C305.289 362.485 309.254 358.46 314.122 355.84C314.271 355.766 314.445 355.754 314.603 355.807C314.762 355.861 314.892 355.975 314.967 356.125C315.041 356.275 315.053 356.448 314.999 356.607C314.946 356.765 314.831 356.896 314.682 356.97C310.075 359.494 306.315 363.32 303.872 367.97C303.836 368.045 303.786 368.112 303.725 368.167C303.663 368.223 303.591 368.265 303.513 368.292C303.435 368.319 303.352 368.33 303.269 368.325C303.186 368.319 303.106 368.297 303.032 368.26L303.002 368.22Z" fill="#525298"/>
<path d="M295.411 372.47C295.338 372.433 295.274 372.38 295.222 372.317C295.17 372.253 295.133 372.179 295.111 372.1C295.064 371.938 295.083 371.765 295.164 371.617C295.244 371.469 295.38 371.359 295.541 371.31C297.069 370.913 298.674 370.925 300.196 371.344C301.718 371.764 303.102 372.576 304.211 373.7C304.329 373.82 304.396 373.981 304.396 374.15C304.396 374.318 304.329 374.48 304.211 374.6C304.093 374.718 303.933 374.784 303.766 374.784C303.599 374.784 303.439 374.718 303.321 374.6C302.372 373.644 301.191 372.952 299.893 372.593C298.595 372.233 297.226 372.218 295.921 372.55C295.835 372.573 295.745 372.577 295.658 372.564C295.57 372.55 295.486 372.518 295.411 372.47Z" fill="#525298"/>
<path d="M290.9 375.82C290.795 375.764 290.709 375.678 290.652 375.573C290.595 375.468 290.57 375.349 290.58 375.23C291.013 371.603 292.393 368.155 294.58 365.23C294.628 365.162 294.689 365.104 294.759 365.06C294.83 365.016 294.909 364.987 294.991 364.974C295.073 364.96 295.157 364.964 295.237 364.984C295.318 365.004 295.394 365.04 295.46 365.09C295.527 365.139 295.584 365.2 295.627 365.27C295.671 365.341 295.7 365.419 295.713 365.501C295.726 365.583 295.722 365.666 295.703 365.747C295.684 365.827 295.649 365.903 295.6 365.97C293.56 368.709 292.256 371.924 291.81 375.31C291.798 375.476 291.72 375.631 291.595 375.741C291.47 375.851 291.307 375.908 291.14 375.9C291.057 375.887 290.975 375.86 290.9 375.82Z" fill="#525298"/>
<path d="M286.401 379.17C286.401 379.29 285.711 379.45 287.241 380.43C290.991 382.85 297.901 386.6 302.241 384.68C308.411 381.93 299.801 377.44 302.011 375.22C304.221 373 312.091 380.52 315.841 377.72C319.591 374.92 312.651 371.79 313.981 369.99C315.311 368.19 320.861 374.81 325.241 372.07C329.621 369.33 322.491 367.96 324.331 366.85C326.171 365.74 337.461 363.19 335.181 359.8C332.901 356.41 321.941 359.53 319.181 358.92C316.421 358.31 319.601 350.78 315.241 351.36C310.881 351.94 307.241 364.02 302.961 363.24C299.741 362.65 303.241 359.62 299.831 357.81C295.171 355.34 285.771 369.72 286.401 379.17Z" fill="#525298"/>
<g opacity="0.3">
<path d="M286.401 379.17C286.401 379.29 285.711 379.45 287.241 380.43C290.991 382.85 297.901 386.6 302.241 384.68C308.411 381.93 299.801 377.44 302.011 375.22C304.221 373 312.091 380.52 315.841 377.72C319.591 374.92 312.651 371.79 313.981 369.99C315.311 368.19 320.861 374.81 325.241 372.07C329.621 369.33 322.491 367.96 324.331 366.85C326.171 365.74 337.461 363.19 335.181 359.8C332.901 356.41 321.941 359.53 319.181 358.92C316.421 358.31 319.601 350.78 315.241 351.36C310.881 351.94 307.241 364.02 302.961 363.24C299.741 362.65 303.241 359.62 299.831 357.81C295.171 355.34 285.771 369.72 286.401 379.17Z" fill="white"/>
</g>
<path d="M281 385.28C280.876 385.214 280.779 385.108 280.724 384.978C280.669 384.849 280.661 384.705 280.7 384.57C283.543 372.829 283.26 360.548 279.88 348.95C279.849 348.871 279.834 348.786 279.836 348.701C279.838 348.616 279.858 348.532 279.893 348.455C279.929 348.377 279.98 348.308 280.043 348.251C280.106 348.193 280.18 348.15 280.261 348.122C280.341 348.094 280.427 348.083 280.512 348.089C280.597 348.095 280.679 348.119 280.755 348.158C280.831 348.197 280.898 348.251 280.952 348.317C281.006 348.382 281.046 348.458 281.07 348.54C284.533 360.373 284.826 372.908 281.92 384.89C281.9 384.97 281.863 385.045 281.813 385.111C281.763 385.177 281.7 385.233 281.629 385.275C281.557 385.316 281.478 385.344 281.396 385.355C281.314 385.366 281.231 385.361 281.15 385.34C281.097 385.329 281.047 385.308 281 385.28Z" fill="#525298"/>
<path d="M282.071 360.6L281.971 360.53C281.931 360.504 281.897 360.47 281.871 360.43L281.811 360.37C280.287 358.584 278.411 357.13 276.301 356.1C276.152 356.026 276.037 355.898 275.981 355.741C275.925 355.584 275.932 355.411 276.001 355.26C276.035 355.184 276.085 355.116 276.146 355.059C276.207 355.003 276.279 354.96 276.357 354.932C276.436 354.904 276.519 354.892 276.602 354.897C276.685 354.901 276.766 354.923 276.841 354.96C279.107 356.069 281.125 357.628 282.771 359.54L282.831 359.62C282.934 359.735 282.992 359.885 282.992 360.04C282.992 360.195 282.934 360.344 282.831 360.46C282.739 360.566 282.614 360.637 282.476 360.663C282.338 360.688 282.195 360.666 282.071 360.6ZM282.831 359.6L282.921 359.71C282.898 359.674 282.867 359.643 282.831 359.62V359.6Z" fill="#525298"/>
<path d="M282.781 364.53C282.711 364.486 282.65 364.429 282.601 364.361C282.553 364.294 282.519 364.217 282.5 364.136C282.482 364.056 282.479 363.972 282.493 363.89C282.507 363.808 282.537 363.73 282.581 363.66C284.909 359.685 286.002 355.108 285.721 350.51C285.713 350.427 285.721 350.344 285.745 350.264C285.769 350.184 285.809 350.11 285.862 350.046C285.915 349.982 285.98 349.929 286.054 349.89C286.128 349.851 286.208 349.827 286.291 349.82C286.373 349.81 286.457 349.817 286.536 349.84C286.616 349.863 286.69 349.902 286.754 349.954C286.819 350.006 286.872 350.071 286.911 350.144C286.95 350.217 286.974 350.297 286.981 350.38C287.305 355.26 286.145 360.123 283.651 364.33C283.607 364.4 283.55 364.461 283.482 364.51C283.415 364.558 283.338 364.592 283.258 364.611C283.177 364.629 283.093 364.632 283.011 364.618C282.93 364.604 282.851 364.574 282.781 364.53Z" fill="#525298"/>
<path d="M283.08 369.43C282.943 369.35 282.84 369.222 282.79 369.07C282.375 367.983 281.693 367.017 280.807 366.262C279.921 365.507 278.86 364.987 277.72 364.75C277.556 364.716 277.412 364.617 277.32 364.477C277.228 364.336 277.196 364.164 277.23 364C277.265 363.836 277.363 363.692 277.504 363.6C277.644 363.508 277.816 363.476 277.98 363.51C279.337 363.791 280.6 364.414 281.65 365.318C282.699 366.223 283.501 367.38 283.98 368.68C284.007 368.759 284.018 368.842 284.012 368.925C284.006 369.008 283.984 369.089 283.947 369.163C283.91 369.238 283.858 369.304 283.795 369.358C283.732 369.413 283.659 369.454 283.58 369.48C283.413 369.527 283.235 369.509 283.08 369.43Z" fill="#525298"/>
<path d="M282.75 377.08C282.669 377.033 282.601 376.968 282.55 376.89C282.501 376.823 282.466 376.747 282.447 376.667C282.428 376.586 282.425 376.503 282.438 376.421C282.451 376.339 282.479 376.261 282.523 376.19C282.566 376.12 282.623 376.058 282.69 376.01C285.017 374.1 286.814 371.624 287.91 368.82C287.974 368.666 288.096 368.545 288.25 368.481C288.403 368.417 288.576 368.417 288.73 368.48C288.808 368.51 288.878 368.555 288.938 368.612C288.998 368.67 289.046 368.739 289.079 368.816C289.111 368.892 289.128 368.974 289.128 369.058C289.129 369.141 289.112 369.223 289.08 369.3C287.907 372.33 285.959 375 283.43 377.04C283.332 377.11 283.216 377.151 283.096 377.158C282.975 377.165 282.855 377.138 282.75 377.08Z" fill="#525298"/>
<path d="M282.211 382.32C279.101 380.84 275.271 375.32 274.601 371.54C273.931 367.76 278.931 372.37 279.441 369.85C279.951 367.33 271.861 365.33 272.101 361.48C272.341 357.63 277.231 360.99 277.831 359.26C278.431 357.53 272.831 355.15 272.831 350.9C272.831 346.65 276.601 350.9 276.551 349.16C276.501 347.42 273.461 338.5 276.551 338.53C279.641 338.56 282.221 347.53 283.751 349.12C285.281 350.71 287.851 346.73 289.291 349.98C290.731 353.23 284.461 361.17 286.751 363.78C288.461 365.72 289.581 361.21 291.541 363.47C295.001 367.43 283.471 382.93 282.211 382.32Z" fill="#525298"/>
<g opacity="0.2">
<path d="M282.211 382.32C279.101 380.84 275.271 375.32 274.601 371.54C273.931 367.76 278.931 372.37 279.441 369.85C279.951 367.33 271.861 365.33 272.101 361.48C272.341 357.63 277.231 360.99 277.831 359.26C278.431 357.53 272.831 355.15 272.831 350.9C272.831 346.65 276.601 350.9 276.551 349.16C276.501 347.42 273.461 338.5 276.551 338.53C279.641 338.56 282.221 347.53 283.751 349.12C285.281 350.71 287.851 346.73 289.291 349.98C290.731 353.23 284.461 361.17 286.751 363.78C288.461 365.72 289.581 361.21 291.541 363.47C295.001 367.43 283.471 382.93 282.211 382.32Z" fill="white"/>
</g>
<path d="M225.641 386C225.731 386.06 225.441 386.62 226.971 386.15C230.751 384.97 237.231 382.39 238.371 378.36C240.011 372.61 232.061 375.91 231.811 373.15C231.561 370.39 241.141 369.31 241.361 365.15C241.581 360.99 235.521 363.95 235.051 362.02C234.581 360.09 242.241 360.09 242.861 355.55C243.481 351.01 238.501 355.09 238.801 353.2C239.101 351.31 243.801 342.2 240.161 341.82C236.521 341.44 232.451 350.67 230.471 352.21C228.491 353.75 225.171 347.3 223.091 350.59C221.011 353.88 227.181 363.2 224.191 365.69C221.971 367.55 221.891 363.45 218.721 364.74C214.421 366.54 218.861 381.09 225.641 386Z" fill="#525298"/>
<g opacity="0.3">
<path d="M225.641 386C225.731 386.06 225.441 386.62 226.971 386.15C230.751 384.97 237.231 382.39 238.371 378.36C240.011 372.61 232.061 375.91 231.811 373.15C231.561 370.39 241.141 369.31 241.361 365.15C241.581 360.99 235.521 363.95 235.051 362.02C234.581 360.09 242.241 360.09 242.861 355.55C243.481 351.01 238.501 355.09 238.801 353.2C239.101 351.31 243.801 342.2 240.161 341.82C236.521 341.44 232.451 350.67 230.471 352.21C228.491 353.75 225.171 347.3 223.091 350.59C221.011 353.88 227.181 363.2 224.191 365.69C221.971 367.55 221.891 363.45 218.721 364.74C214.421 366.54 218.861 381.09 225.641 386Z" fill="white"/>
</g>
<path d="M226.931 392.6H226.831C226.685 392.626 226.534 392.593 226.413 392.509C226.291 392.425 226.207 392.296 226.181 392.15C222.501 372.15 229.991 359.87 230.071 359.75C230.109 359.687 230.16 359.633 230.22 359.591C230.28 359.548 230.348 359.518 230.42 359.502C230.491 359.486 230.566 359.485 230.638 359.498C230.71 359.512 230.779 359.539 230.841 359.58C230.966 359.658 231.056 359.783 231.09 359.928C231.123 360.072 231.099 360.224 231.021 360.35C230.951 360.47 223.681 372.35 227.281 391.95C227.313 392.082 227.295 392.222 227.231 392.342C227.166 392.462 227.059 392.554 226.931 392.6Z" fill="#525298"/>
<path d="M228.832 364.72C228.71 364.765 228.576 364.766 228.453 364.723C228.331 364.68 228.227 364.596 228.159 364.485C228.092 364.374 228.065 364.243 228.084 364.114C228.103 363.986 228.165 363.867 228.262 363.78C229.853 362.58 231.713 361.786 233.682 361.47C233.754 361.455 233.828 361.455 233.9 361.47C233.973 361.484 234.042 361.512 234.103 361.553C234.164 361.594 234.217 361.646 234.258 361.708C234.299 361.769 234.327 361.838 234.342 361.91C234.368 362.056 234.337 362.206 234.255 362.329C234.173 362.452 234.046 362.539 233.902 362.57C232.13 362.86 230.452 363.562 229.002 364.62C228.954 364.666 228.895 364.701 228.832 364.72Z" fill="#525298"/>
<path d="M227.601 368.55C227.467 368.602 227.318 368.6 227.184 368.547C227.051 368.493 226.942 368.39 226.881 368.26C224.994 363.741 224.51 358.758 225.491 353.96C225.508 353.888 225.539 353.821 225.582 353.761C225.626 353.702 225.68 353.651 225.743 353.613C225.805 353.574 225.875 353.548 225.948 353.537C226.02 353.525 226.095 353.528 226.166 353.545C226.238 353.562 226.305 353.593 226.365 353.636C226.424 353.679 226.475 353.734 226.513 353.797C226.552 353.859 226.578 353.929 226.589 354.002C226.601 354.074 226.598 354.148 226.581 354.22C225.678 358.779 226.14 363.503 227.911 367.8C227.941 367.868 227.957 367.94 227.959 368.014C227.96 368.088 227.947 368.162 227.92 368.23C227.893 368.299 227.853 368.362 227.802 368.415C227.75 368.468 227.689 368.511 227.621 368.54L227.601 368.55Z" fill="#525298"/>
<path d="M226.2 376.1C226.134 376.13 226.062 376.145 225.99 376.145C225.917 376.145 225.846 376.13 225.78 376.1C225.645 376.039 225.539 375.927 225.485 375.789C225.43 375.651 225.432 375.497 225.49 375.36C226.083 374.092 227.002 373.004 228.152 372.206C229.303 371.408 230.644 370.93 232.04 370.82C232.113 370.814 232.187 370.824 232.257 370.847C232.327 370.87 232.392 370.907 232.448 370.955C232.504 371.003 232.549 371.062 232.582 371.128C232.615 371.194 232.635 371.266 232.64 371.34C232.648 371.489 232.597 371.636 232.498 371.749C232.399 371.861 232.259 371.93 232.11 371.94C230.923 372.043 229.784 372.453 228.804 373.129C227.823 373.806 227.036 374.727 226.52 375.8C226.491 375.87 226.448 375.933 226.392 375.985C226.337 376.036 226.272 376.076 226.2 376.1Z" fill="#525298"/>
<path d="M225.92 381.08C225.821 381.116 225.713 381.124 225.609 381.102C225.505 381.081 225.408 381.032 225.33 380.96C223.116 378.597 221.56 375.693 220.82 372.54C220.783 372.395 220.805 372.242 220.881 372.113C220.957 371.985 221.081 371.892 221.225 371.855C221.37 371.818 221.523 371.84 221.652 371.915C221.78 371.991 221.873 372.115 221.91 372.26C222.612 375.204 224.054 377.92 226.1 380.15C226.153 380.201 226.195 380.262 226.224 380.33C226.253 380.398 226.268 380.471 226.268 380.545C226.268 380.619 226.253 380.691 226.224 380.759C226.195 380.827 226.153 380.889 226.1 380.94C226.049 380.997 225.988 381.044 225.92 381.08Z" fill="#525298"/>
<path d="M296.871 397.9C296.871 397.9 301.091 389.74 308.351 389.81C315.611 389.88 318.811 388.59 318.811 388.59C318.811 388.59 312.881 401.37 296.871 397.9Z" fill="#525298"/>
<mask id="mask0_1065_3095" style="mask-type:luminance" maskUnits="userSpaceOnUse" x="296" y="388" width="23" height="11">
<path d="M296.871 397.9C296.871 397.9 301.091 389.74 308.351 389.81C315.611 389.88 318.811 388.59 318.811 388.59C318.811 388.59 312.881 401.37 296.871 397.9Z" fill="white"/>
</mask>
<g mask="url(#mask0_1065_3095)">
<path opacity="0.2" d="M296.871 397.9C296.871 397.9 301.091 389.74 308.351 389.81C315.611 389.88 318.811 388.59 318.811 388.59C318.811 388.59 312.881 401.37 296.871 397.9Z" fill="white"/>
</g>
<path d="M297.09 397.9C296.97 397.871 296.865 397.795 296.8 397.69C296.767 397.632 296.746 397.567 296.738 397.501C296.73 397.434 296.735 397.367 296.754 397.303C296.773 397.238 296.804 397.178 296.846 397.126C296.889 397.074 296.941 397.031 297 397C301.522 394.197 306.626 392.466 311.92 391.94C312.053 391.926 312.185 391.964 312.29 392.046C312.394 392.128 312.463 392.248 312.48 392.38C312.495 392.512 312.456 392.645 312.374 392.749C312.292 392.854 312.172 392.922 312.04 392.94C306.893 393.445 301.93 395.121 297.53 397.84C297.467 397.885 297.394 397.913 297.318 397.924C297.241 397.934 297.163 397.926 297.09 397.9Z" fill="#525298"/>
<path d="M295.65 404.37C295.65 404.37 300.15 390.73 292.13 382.68C284.11 374.63 282.04 369.68 282.04 369.68C282.04 369.68 274.26 390.28 295.65 404.37Z" fill="#525298"/>
<g opacity="0.2">
<path d="M295.65 404.37C295.65 404.37 300.15 390.73 292.13 382.68C284.11 374.63 282.04 369.68 282.04 369.68C282.04 369.68 274.26 390.28 295.65 404.37Z" fill="white"/>
</g>
<path d="M295.001 403.75C294.915 403.726 294.836 403.679 294.774 403.614C294.713 403.549 294.67 403.468 294.651 403.38C292.43 394.45 288.257 386.123 282.431 379C282.384 378.95 282.347 378.89 282.324 378.825C282.301 378.76 282.291 378.69 282.296 378.621C282.301 378.552 282.32 378.485 282.353 378.424C282.385 378.362 282.43 378.308 282.484 378.265C282.538 378.222 282.601 378.191 282.668 378.173C282.734 378.156 282.804 378.152 282.873 378.163C282.941 378.174 283.007 378.198 283.065 378.236C283.123 378.273 283.173 378.322 283.211 378.38C289.118 385.636 293.34 394.114 295.571 403.2C295.586 403.264 295.588 403.331 295.577 403.396C295.566 403.461 295.542 403.523 295.506 403.579C295.471 403.635 295.425 403.683 295.371 403.721C295.317 403.759 295.256 403.786 295.191 403.8C295.125 403.797 295.061 403.78 295.001 403.75Z" fill="#525298"/>
<path d="M295.151 405.89C295.027 405.855 294.921 405.773 294.855 405.661C294.79 405.549 294.771 405.416 294.801 405.29C300.301 382.96 302.801 378.29 302.931 378.08C302.963 378.022 303.005 377.971 303.057 377.93C303.108 377.888 303.167 377.857 303.23 377.839C303.293 377.82 303.359 377.814 303.425 377.821C303.49 377.828 303.554 377.848 303.611 377.88C303.726 377.945 303.812 378.053 303.849 378.18C303.886 378.306 303.873 378.443 303.811 378.56C303.811 378.61 301.211 383.43 295.811 405.56C295.781 405.688 295.7 405.799 295.588 405.869C295.475 405.938 295.34 405.96 295.211 405.93L295.151 405.89Z" fill="#525298"/>
<path d="M301.88 362.13C301.69 363.9 302.44 370.35 304.21 370.54C305.98 370.73 308.1 364.6 308.29 362.82C308.336 362.399 308.298 361.973 308.178 361.567C308.059 361.161 307.861 360.782 307.595 360.453C307.33 360.123 307.002 359.849 306.631 359.646C306.259 359.443 305.851 359.315 305.43 359.27C305.009 359.225 304.584 359.263 304.178 359.382C303.771 359.501 303.393 359.699 303.063 359.965C302.733 360.23 302.459 360.558 302.256 360.93C302.053 361.301 301.926 361.709 301.88 362.13Z" fill="#525298"/>
<path d="M306.121 382.89C306.311 381.12 305.561 374.66 303.781 374.47C302.001 374.28 299.901 380.42 299.701 382.19C299.63 383.03 299.891 383.864 300.426 384.515C300.962 385.165 301.731 385.581 302.569 385.672C303.407 385.763 304.248 385.523 304.911 385.004C305.575 384.484 306.009 383.725 306.121 382.89Z" fill="#525298"/>
<path d="M293.621 374.63C295.391 374.82 301.841 374.07 302.031 372.29C302.221 370.51 296.081 368.41 294.311 368.21C293.474 368.146 292.644 368.41 291.999 368.947C291.353 369.484 290.942 370.251 290.852 371.085C290.763 371.92 291.002 372.757 291.518 373.419C292.035 374.08 292.789 374.515 293.621 374.63Z" fill="#525298"/>
<path d="M314.381 370.39C312.601 370.2 306.151 370.95 305.961 372.72C305.771 374.49 311.961 376.61 313.681 376.8C314.531 376.893 315.383 376.644 316.05 376.109C316.717 375.573 317.143 374.795 317.236 373.945C317.329 373.095 317.08 372.243 316.545 371.576C316.01 370.91 315.231 370.483 314.381 370.39Z" fill="#525298"/>
<path d="M295.161 366.67C296.281 368.06 301.371 372.08 302.761 370.97C304.151 369.86 301.301 363.97 300.191 362.63C299.953 362.236 299.634 361.897 299.255 361.635C298.876 361.374 298.445 361.197 297.992 361.116C297.539 361.035 297.074 361.052 296.628 361.165C296.182 361.279 295.765 361.486 295.406 361.774C295.046 362.061 294.752 362.422 294.544 362.833C294.335 363.243 294.217 363.693 294.197 364.153C294.176 364.613 294.254 365.072 294.426 365.499C294.597 365.926 294.858 366.312 295.191 366.63L295.161 366.67Z" fill="#525298"/>
<path d="M312.83 378.35C311.72 376.96 306.62 372.93 305.24 374.05C303.86 375.17 306.69 381 307.81 382.39C308.37 382.954 309.118 383.291 309.912 383.336C310.705 383.381 311.487 383.132 312.107 382.636C312.727 382.139 313.142 381.431 313.272 380.648C313.402 379.864 313.238 379.06 312.81 378.39L312.83 378.35Z" fill="#525298"/>
<path d="M298.161 381.34C299.551 380.23 303.571 375.13 302.461 373.75C301.351 372.37 295.461 375.2 294.111 376.32C293.739 376.57 293.423 376.895 293.184 377.274C292.944 377.653 292.786 378.077 292.719 378.521C292.653 378.964 292.679 379.417 292.797 379.849C292.915 380.282 293.121 380.685 293.404 381.034C293.686 381.382 294.038 381.668 294.436 381.873C294.835 382.078 295.272 382.198 295.72 382.225C296.167 382.252 296.615 382.185 297.036 382.029C297.456 381.874 297.84 381.632 298.161 381.32V381.34Z" fill="#525298"/>
<path d="M309.84 363.67C308.45 364.79 304.42 369.88 305.54 371.27C306.66 372.66 312.49 369.81 313.88 368.7C314.421 368.134 314.738 367.392 314.773 366.61C314.807 365.828 314.557 365.06 314.068 364.449C313.579 363.838 312.885 363.425 312.115 363.288C311.345 363.15 310.55 363.296 309.88 363.7L309.84 363.67Z" fill="#525298"/>
<path opacity="0.5" d="M301.88 362.13C301.69 363.9 302.44 370.35 304.21 370.54C305.98 370.73 308.1 364.6 308.29 362.82C308.336 362.399 308.298 361.973 308.178 361.567C308.059 361.161 307.861 360.782 307.595 360.453C307.33 360.123 307.002 359.849 306.631 359.646C306.259 359.443 305.851 359.315 305.43 359.27C305.009 359.225 304.584 359.263 304.178 359.382C303.771 359.501 303.393 359.699 303.063 359.965C302.733 360.23 302.459 360.558 302.256 360.93C302.053 361.301 301.926 361.709 301.88 362.13Z" fill="white"/>
<path opacity="0.5" d="M306.121 382.89C306.311 381.12 305.561 374.66 303.781 374.47C302.001 374.28 299.901 380.42 299.701 382.19C299.63 383.03 299.891 383.864 300.426 384.515C300.962 385.165 301.731 385.581 302.569 385.672C303.407 385.763 304.248 385.523 304.911 385.004C305.575 384.484 306.009 383.725 306.121 382.89Z" fill="white"/>
<path opacity="0.5" d="M293.621 374.63C295.391 374.82 301.841 374.07 302.031 372.29C302.221 370.51 296.081 368.41 294.311 368.21C293.474 368.146 292.644 368.41 291.999 368.947C291.353 369.484 290.942 370.251 290.852 371.085C290.763 371.92 291.002 372.757 291.518 373.419C292.035 374.08 292.789 374.515 293.621 374.63Z" fill="white"/>
<path opacity="0.5" d="M314.381 370.39C312.601 370.2 306.151 370.95 305.961 372.72C305.771 374.49 311.961 376.61 313.681 376.8C314.531 376.893 315.383 376.644 316.05 376.109C316.717 375.573 317.143 374.795 317.236 373.945C317.329 373.095 317.08 372.243 316.545 371.576C316.01 370.91 315.231 370.483 314.381 370.39Z" fill="white"/>
<path opacity="0.5" d="M295.161 366.67C296.281 368.06 301.371 372.08 302.761 370.97C304.151 369.86 301.301 363.97 300.191 362.63C299.953 362.236 299.634 361.897 299.255 361.635C298.876 361.374 298.445 361.197 297.992 361.116C297.539 361.035 297.074 361.052 296.628 361.165C296.182 361.279 295.765 361.486 295.406 361.774C295.046 362.061 294.752 362.422 294.544 362.833C294.335 363.243 294.217 363.693 294.197 364.153C294.176 364.613 294.254 365.072 294.426 365.499C294.597 365.926 294.858 366.312 295.191 366.63L295.161 366.67Z" fill="white"/>
<path opacity="0.5" d="M312.83 378.35C311.72 376.96 306.62 372.93 305.24 374.05C303.86 375.17 306.69 381 307.81 382.39C308.37 382.954 309.118 383.291 309.912 383.336C310.705 383.381 311.487 383.132 312.107 382.636C312.727 382.139 313.142 381.431 313.272 380.648C313.402 379.864 313.238 379.06 312.81 378.39L312.83 378.35Z" fill="white"/>
<path opacity="0.5" d="M298.161 381.34C299.551 380.23 303.571 375.13 302.461 373.75C301.351 372.37 295.461 375.2 294.111 376.32C293.739 376.57 293.423 376.895 293.184 377.274C292.944 377.653 292.786 378.077 292.719 378.521C292.653 378.964 292.679 379.417 292.797 379.849C292.915 380.282 293.121 380.685 293.404 381.034C293.686 381.382 294.038 381.668 294.436 381.873C294.835 382.078 295.272 382.198 295.72 382.225C296.167 382.252 296.615 382.185 297.036 382.029C297.456 381.874 297.84 381.632 298.161 381.32V381.34Z" fill="white"/>
<path opacity="0.5" d="M309.84 363.67C308.45 364.79 304.42 369.88 305.54 371.27C306.66 372.66 312.49 369.81 313.88 368.7C314.421 368.134 314.738 367.392 314.773 366.61C314.807 365.828 314.557 365.06 314.068 364.449C313.579 363.838 312.885 363.425 312.115 363.288C311.345 363.15 310.55 363.296 309.88 363.7L309.84 363.67Z" fill="white"/>
<path d="M300.202 372.1C300.121 372.851 300.265 373.609 300.615 374.278C300.965 374.948 301.506 375.498 302.169 375.86C302.832 376.222 303.587 376.38 304.339 376.312C305.092 376.245 305.807 375.957 306.395 375.483C306.984 375.009 307.418 374.372 307.645 373.651C307.871 372.93 307.878 372.159 307.666 371.434C307.453 370.709 307.031 370.063 306.452 369.578C305.872 369.093 305.162 368.791 304.412 368.71C303.912 368.654 303.407 368.698 302.925 368.839C302.442 368.979 301.993 369.214 301.601 369.529C301.21 369.844 300.885 370.233 300.645 370.675C300.404 371.116 300.254 371.6 300.202 372.1Z" fill="white"/>
<path d="M234.66 215.7C234.66 215.87 234.66 216.05 234.66 216.21C234.438 220.732 233.144 225.137 230.883 229.06C228.623 232.982 225.461 236.311 221.66 238.77C219.73 242.341 217.029 245.437 213.753 247.833C210.477 250.229 206.708 251.864 202.72 252.62C198.891 253.325 194.951 253.128 191.212 252.045C187.474 250.962 184.038 249.022 181.18 246.38C177.678 248.801 173.524 250.101 169.267 250.107C165.01 250.113 160.852 248.826 157.343 246.415C153.835 244.004 151.142 240.584 149.621 236.607C148.101 232.631 147.825 228.287 148.83 224.15C149.066 223.189 149.363 222.243 149.72 221.32C152.49 214.17 158.91 207.75 166.33 206.83C165.243 204.566 164.724 202.07 164.82 199.56C164.884 197.396 165.384 195.267 166.29 193.3C166.801 192.184 167.449 191.136 168.22 190.18C170.103 187.921 172.571 186.225 175.355 185.278C178.139 184.331 181.13 184.169 184 184.81C188.94 182.81 195.65 181.91 200.46 184.15C205.27 186.39 208.46 190.82 210.18 195.86C215.76 192.48 223.47 193.86 228.25 198.36C233.03 202.86 235 209.34 234.66 215.7Z" fill="#525298"/>
<g opacity="0.2">
<path d="M234.659 215.7C232.691 221.97 228.558 227.336 222.999 230.84C221.071 234.411 218.37 237.506 215.093 239.901C211.817 242.295 208.047 243.928 204.059 244.68C200.231 245.389 196.29 245.194 192.55 244.111C188.811 243.027 185.376 241.086 182.519 238.44C179.384 240.622 175.711 241.904 171.899 242.149C168.088 242.393 164.281 241.59 160.893 239.827C157.505 238.064 154.663 235.408 152.676 232.145C150.689 228.883 149.632 225.14 149.619 221.32C152.389 214.17 158.809 207.75 166.229 206.83C165.142 204.566 164.624 202.07 164.719 199.56C165.675 199.245 166.66 199.024 167.659 198.9C166.813 197.145 166.314 195.244 166.189 193.3C166.7 192.184 167.348 191.136 168.119 190.18C170.011 187.904 172.496 186.197 175.3 185.249C178.103 184.301 181.115 184.149 183.999 184.81C188.939 182.81 195.649 181.91 200.459 184.15C205.269 186.39 208.459 190.82 210.179 195.86C215.759 192.48 223.469 193.86 228.249 198.36C233.029 202.86 234.999 209.34 234.659 215.7Z" fill="black"/>
</g>
<path d="M374.939 205.07C359.259 223.07 331.089 225.39 304.359 213.32C303.646 212.996 302.856 212.88 302.079 212.984C301.303 213.088 300.572 213.409 299.969 213.91C294.769 218.56 287.129 219.59 279.319 217.22C278.389 216.899 277.373 216.937 276.47 217.328C275.566 217.718 274.842 218.433 274.439 219.33C273.747 221.248 272.732 223.033 271.439 224.61C264.109 233.56 249.699 233.06 237.789 224.03C237.054 223.488 236.162 223.201 235.249 223.21C234.653 223.198 234.062 223.317 233.518 223.559C232.974 223.801 232.489 224.16 232.099 224.61C225.099 233.14 211.689 233.08 200.099 225.23C199.376 224.757 198.529 224.511 197.665 224.521C196.801 224.532 195.96 224.8 195.249 225.29C179.189 236.67 152.629 232.49 132.169 214.29C124.49 207.557 118.35 199.248 114.169 189.93C107.169 174.03 107.849 157.4 117.459 146.37C120.882 142.469 125.218 139.477 130.079 137.66C131.431 137.202 132.601 136.325 133.42 135.156C134.238 133.987 134.662 132.587 134.629 131.16C134.179 121.78 136.709 113.04 142.529 106.35C144.929 103.618 147.797 101.335 150.999 99.6101C155.563 97.1289 159.326 93.4004 161.849 88.8601C163.315 86.1542 165.076 83.6188 167.099 81.3001C185.459 60.2201 229.699 62.8801 256.999 85.2101C259.72 87.3378 262.94 88.7349 266.353 89.2687C269.766 89.8025 273.258 89.4553 276.499 88.2601C299.049 80.1001 329.819 87.5901 354.349 109.44C372.879 125.96 383.829 147.09 385.829 166.65C387.299 181.17 383.859 194.82 374.939 205.07Z" fill="#525298"/>
<path opacity="0.3" d="M374.94 205.07C359.26 223.07 331.09 225.39 304.36 213.32C303.647 212.996 302.856 212.88 302.08 212.984C301.304 213.088 300.572 213.409 299.97 213.91C294.77 218.56 287.13 219.59 279.32 217.22C278.39 216.899 277.373 216.937 276.47 217.328C275.567 217.718 274.843 218.433 274.44 219.33C273.747 221.248 272.733 223.033 271.44 224.61C264.11 233.56 249.7 233.06 237.79 224.03C237.055 223.488 236.163 223.201 235.25 223.21C234.654 223.198 234.063 223.317 233.519 223.559C232.974 223.801 232.49 224.16 232.1 224.61C225.1 233.14 211.69 233.08 200.1 225.23C199.377 224.757 198.529 224.511 197.666 224.521C196.802 224.532 195.961 224.8 195.25 225.29C179.19 236.67 152.63 232.49 132.17 214.29C124.49 207.557 118.351 199.248 114.17 189.93C113.78 180.65 116.31 172 122.09 165.37C125.508 161.471 129.841 158.481 134.7 156.67C136.052 156.212 137.222 155.335 138.04 154.166C138.859 152.997 139.283 151.597 139.25 150.17C138.8 140.8 141.32 132.06 147.15 125.37C149.516 122.654 152.343 120.375 155.5 118.64C160.057 116.162 163.814 112.436 166.33 107.9C167.803 105.193 169.566 102.655 171.59 100.33C189.95 79.26 234.19 81.9 261.5 104.25C264.226 106.365 267.446 107.751 270.856 108.276C274.266 108.8 277.754 108.447 280.99 107.25C303.54 99.1 334.31 106.58 358.83 128.44C370.709 138.841 379.923 151.936 385.7 166.63C387.3 181.17 383.86 194.82 374.94 205.07Z" fill="black"/>
<path d="M366.859 192.37C365.203 193.646 363.217 194.424 361.134 194.612C359.051 194.799 356.958 194.39 355.099 193.43C356.169 197.79 354.909 203.12 351.649 205.31C348.389 207.5 343.649 207.02 340.369 204.16C334.909 210.7 316.869 218.02 301.539 212.16H301.489C294.919 209.64 288.869 204.69 284.489 196.23C281.489 190.39 282.659 183.17 285.979 178.23C289.299 173.29 294.469 170.42 299.769 168.32C302.219 157.95 311.769 150.13 321.619 148.85L322.569 148.75C332.739 147.85 343.779 154.11 349.679 164.08C358.969 161.85 361.199 170.75 361.159 171.36C365.309 171.96 369.159 175.81 370.299 180.36C371.439 184.91 369.999 189.75 366.859 192.37Z" fill="#525298"/>
<g opacity="0.1">
<path d="M360.559 189.71C359.118 190.967 357.319 191.739 355.415 191.919C353.512 192.098 351.6 191.675 349.949 190.71C350.949 195.07 350.329 200.86 347.379 203.05C344.429 205.24 340.169 204.76 337.199 201.9C332.439 208.23 315.839 216.28 301.539 212.11H301.489C294.919 209.59 288.869 204.64 284.489 196.18C281.489 190.34 282.659 183.12 285.979 178.18C289.299 173.24 294.469 170.37 299.769 168.27C302.219 157.9 311.769 150.08 321.619 148.8C329.869 150.04 338.329 158.8 343.049 167.62C351.379 165.4 353.429 174.21 353.409 174.89C366.199 175.16 363.429 187.08 360.559 189.71Z" fill="black"/>
</g>
<path d="M212.93 260L232.05 277.76C230.52 302.82 229.05 370.01 229.05 370.01L222.25 410.36L282.18 410.91C282.18 410.91 279.46 376.84 279.46 374.99C279.46 373.14 267.88 307.86 267.88 307.86L261.29 244.48L292.18 235.06L297.83 218.77L320.54 205.91L331.64 188.91L327.35 187.91L315.1 203.65L300.79 206.76L306.92 192.26H300.11L283.11 225.85L261.17 230.35L263.28 182.98C245.74 191.18 240.13 177.53 240.13 177.53C240.13 177.53 236.34 258.53 233.79 265.78C226.389 262.048 220.138 256.38 215.7 249.38L210.21 240.72H204.76L212.93 260Z" fill="#525298"/>
<path opacity="0.2" d="M331.67 188.78L320.56 205.78L297.85 218.63L292.21 235L261.31 244.42L267.89 307.81C267.89 307.81 279.48 373.08 279.48 374.92C279.48 376.76 282.2 410.85 282.2 410.85L222.27 410.29L229.07 369.95C229.07 369.95 230.52 302.76 232.07 277.7L212.93 259.9L204.76 240.54H210.2L215.69 249.2C220.125 256.205 226.377 261.877 233.78 265.61C236.33 258.37 240.12 177.36 240.12 177.36C241.206 179.657 242.896 181.615 245.01 183.024C247.124 184.433 249.582 185.241 252.12 185.36C255.966 185.429 259.771 184.553 263.2 182.81L263.3 182.76L261.3 228.17L261.21 230.12L283.15 225.63L300.15 192.04H306.97L300.84 206.54L315.14 203.43L327.4 187.69L331.67 188.78Z" fill="black"/>
<path d="M266.71 229.14L262 230.3C260.523 230.668 258.981 230.682 257.498 230.342C256.014 230.002 254.632 229.317 253.463 228.343C252.295 227.369 251.372 226.133 250.77 224.736C250.168 223.338 249.904 221.819 250 220.3L252.1 185.39C255.946 185.459 259.75 184.583 263.18 182.84L261.25 228.2L261.16 230.15V230.26L266.71 229.14Z" fill="#525298"/>
<path d="M295.55 216.17L287.33 232.11L254.87 240.88C253.252 241.314 251.825 242.277 250.819 243.617C249.813 244.957 249.285 246.595 249.32 248.27L250.18 294.19C250.18 294.19 257.18 266.11 257.18 267.38C257.18 268.65 259.83 313 259.83 313L252.49 380.67L265.72 334.41L259.72 410.72L282.19 410.93C282.19 410.93 279.47 376.86 279.47 375.01C279.47 373.16 267.89 307.88 267.89 307.88L262 250.65C261.808 248.91 262.231 247.158 263.195 245.697C264.16 244.235 265.605 243.158 267.28 242.65L292.28 235.03L297.93 218.74L320.64 205.88L331.74 188.88L329.1 188.24C324.47 195.24 317.97 205.69 317.97 205.69L295.55 216.17Z" fill="#525298"/>
<path d="M358.85 405.52H141.15L115.24 416.8H384.76L358.85 405.52Z" fill="#525298"/>
<path opacity="0.7" d="M358.85 405.52H141.15L115.24 416.8H384.76L358.85 405.52Z" fill="white"/>
<path d="M234.609 276.69C234.743 276.233 234.995 275.819 235.341 275.491C235.686 275.164 236.113 274.933 236.577 274.825C237.041 274.716 237.525 274.732 237.981 274.872C238.436 275.012 238.846 275.27 239.169 275.62L239.289 275.76C240.006 276.716 240.443 277.852 240.552 279.042C240.662 280.232 240.439 281.429 239.909 282.5C238.82 284.628 237.235 286.463 235.289 287.85C234.012 288.982 232.356 289.593 230.649 289.56C228.989 289.41 226.009 287.07 226.249 282.87C226.349 281.05 226.929 279.28 227.009 277.45C227.17 275.611 226.646 273.777 225.539 272.3C226.323 272.501 227.023 272.946 227.539 273.57C227.528 272.979 227.35 272.402 227.026 271.907C226.703 271.412 226.246 271.018 225.709 270.77C226.424 270.289 227.244 269.987 228.101 269.889C228.957 269.792 229.824 269.902 230.629 270.21C231.384 270.571 232.038 271.113 232.532 271.789C233.025 272.464 233.344 273.251 233.459 274.08C233.821 273.589 234.053 273.014 234.134 272.409C234.214 271.804 234.14 271.189 233.919 270.62C233.67 270.072 233.281 269.598 232.791 269.247C232.302 268.896 231.729 268.68 231.129 268.62C233.619 268.23 236.309 269.62 235.859 273.11C235.545 274.337 235.127 275.534 234.609 276.69Z" fill="#263238"/>
<path d="M234.609 276.69C234.743 276.233 234.995 275.819 235.341 275.491C235.686 275.164 236.113 274.933 236.577 274.825C237.041 274.716 237.525 274.732 237.981 274.872C238.436 275.012 238.846 275.27 239.169 275.62L239.289 275.76C240.006 276.716 240.443 277.852 240.552 279.042C240.662 280.232 240.439 281.429 239.909 282.5C238.82 284.628 237.235 286.463 235.289 287.85C234.012 288.982 232.356 289.593 230.649 289.56C228.989 289.41 226.009 287.07 226.249 282.87C226.349 281.05 226.929 279.28 227.009 277.45C227.17 275.611 226.646 273.777 225.539 272.3C226.323 272.501 227.023 272.946 227.539 273.57C227.528 272.979 227.35 272.402 227.026 271.907C226.703 271.412 226.246 271.018 225.709 270.77C226.424 270.289 227.244 269.987 228.101 269.889C228.957 269.792 229.824 269.902 230.629 270.21C231.384 270.571 232.038 271.113 232.532 271.789C233.025 272.464 233.344 273.251 233.459 274.08C233.821 273.589 234.053 273.014 234.134 272.409C234.214 271.804 234.14 271.189 233.919 270.62C233.67 270.072 233.281 269.598 232.791 269.247C232.302 268.896 231.729 268.68 231.129 268.62C233.619 268.23 236.309 269.62 235.859 273.11C235.545 274.337 235.127 275.534 234.609 276.69Z" fill="#263238"/>
<path opacity="0.2" d="M234.609 276.69C234.743 276.233 234.995 275.819 235.341 275.491C235.686 275.164 236.113 274.933 236.577 274.825C237.041 274.716 237.525 274.732 237.981 274.872C238.436 275.012 238.846 275.27 239.169 275.62L239.289 275.76C240.006 276.716 240.443 277.852 240.552 279.042C240.662 280.232 240.439 281.429 239.909 282.5C238.82 284.628 237.235 286.463 235.289 287.85C234.012 288.982 232.356 289.593 230.649 289.56C228.989 289.41 226.009 287.07 226.249 282.87C226.349 281.05 226.929 279.28 227.009 277.45C227.17 275.611 226.646 273.777 225.539 272.3C226.323 272.501 227.023 272.946 227.539 273.57C227.528 272.979 227.35 272.402 227.026 271.907C226.703 271.412 226.246 271.018 225.709 270.77C226.424 270.289 227.244 269.987 228.101 269.889C228.957 269.792 229.824 269.902 230.629 270.21C231.384 270.571 232.038 271.113 232.532 271.789C233.025 272.464 233.344 273.251 233.459 274.08C233.821 273.589 234.053 273.014 234.134 272.409C234.214 271.804 234.14 271.189 233.919 270.62C233.67 270.072 233.281 269.598 232.791 269.247C232.302 268.896 231.729 268.68 231.129 268.62C233.619 268.23 236.309 269.62 235.859 273.11C235.545 274.337 235.127 275.534 234.609 276.69Z" fill="black"/>
<path d="M259.22 262.76L255.41 252.76L247.17 258C247.17 258 249.99 263.32 254.52 264.07L259.22 262.76Z" fill="#FFC3BD"/>
<path d="M250.759 248.75L247.239 250.06C246.565 250.316 246.019 250.826 245.716 251.48C245.414 252.134 245.379 252.881 245.619 253.56L247.169 257.99L255.409 252.75L254.239 250.18C253.947 249.546 253.426 249.045 252.78 248.78C252.135 248.515 251.412 248.504 250.759 248.75Z" fill="#FFC3BD"/>
<path d="M260.17 316.63L271.47 325.94C274.39 321.31 283.7 301.55 283.35 284.7C283.24 279.18 280.46 278.39 280.46 278.39L258 260.18C253.21 259.39 254 263.63 254 263.63C254 263.63 272.42 285.4 272.08 286.81C271.86 287.61 260.17 316.63 260.17 316.63Z" fill="#FFC3BD"/>
<path d="M270.63 342.25C269.85 347.25 268.11 356.11 267.56 360.53C267.4 361.89 267.23 367.83 268.56 377.27C269.47 385.025 269.988 392.822 270.11 400.63L223.93 397.52C225.55 376.38 235.83 362.2 235.82 359.28C235.82 355.28 234.25 353.55 230.36 340.7L270.63 342.25Z" fill="#FFC3BD"/>
<path d="M232.64 347.82C230.198 340.996 228.125 334.046 226.43 327C225.55 323.05 229.68 317.89 233.64 317C233.86 316.95 234.08 316.92 234.3 316.89C236.37 316.62 238.66 316.37 240.99 316.25C246.199 315.86 251.429 315.84 256.64 316.19C260.31 316.51 264.24 317.12 267.05 317.59C268.386 317.812 269.603 318.493 270.491 319.515C271.38 320.537 271.885 321.836 271.92 323.19C271.905 331.431 271.202 339.656 269.82 347.78L232.64 347.82Z" fill="#525298"/>
<path d="M242.429 298.68C243.429 303.68 244.429 312.93 240.949 316.29C246.343 318.522 251.296 321.695 255.579 325.66C259.509 318.66 256.579 316.23 256.579 316.23C250.959 314.92 251.089 310.75 252.049 306.84L242.429 298.68Z" fill="#FFC3BD"/>
<path opacity="0.2" d="M243.479 299.57C243.561 302.565 244.284 305.508 245.599 308.2C246.519 310.05 249.039 310.87 251.599 311.06C251.537 309.637 251.699 308.213 252.079 306.84L243.479 299.57Z" fill="black"/>
<path d="M234.39 292.41C236.86 300.47 237.67 303.93 242.84 307.15C250.54 311.99 259.9 307.23 259.92 298.61C259.92 290.86 255.92 278.99 247.18 277.61C245.246 277.296 243.264 277.482 241.422 278.151C239.58 278.819 237.94 279.948 236.658 281.429C235.376 282.911 234.495 284.696 234.098 286.614C233.701 288.533 233.801 290.521 234.39 292.39V292.41Z" fill="#FFC3BD"/>
<path d="M239.68 276C245.08 271 251.03 273 254.15 274.66C255.714 275.487 257.087 276.634 258.179 278.026C259.271 279.418 260.059 281.024 260.49 282.74C260.82 284.09 260.49 287.21 257.87 288.08C257.148 286.51 256.129 285.094 254.87 283.91C252.87 282.36 249.27 282.2 247.82 282.63C246.412 285.966 244.5 289.065 242.15 291.82C239.84 294.37 236.43 296.18 233.02 295.71C231.43 293.743 230.403 291.383 230.047 288.879C229.692 286.375 230.021 283.822 231 281.49C233.06 276.87 239.68 276 239.68 276Z" fill="#263238"/>
<path d="M232.559 297C232.789 297.778 233.174 298.502 233.689 299.129C234.204 299.756 234.84 300.273 235.559 300.65C237.469 301.65 238.859 300.03 238.699 297.99C238.549 296.17 237.369 293.44 235.269 293.29C234.905 293.274 234.542 293.33 234.201 293.454C233.859 293.579 233.545 293.77 233.278 294.016C233.01 294.263 232.794 294.559 232.641 294.889C232.489 295.22 232.403 295.577 232.389 295.94C232.375 296.301 232.433 296.661 232.559 297Z" fill="#FFC3BD"/>
<path d="M254.439 290.17C254.599 290.84 255.069 291.3 255.509 291.17C255.949 291.04 256.179 290.45 256.009 289.78C255.839 289.11 255.379 288.66 254.939 288.78C254.499 288.9 254.279 289.51 254.439 290.17Z" fill="#263238"/>
<path d="M254.76 288.86L256.25 288.02C256.25 288.02 255.72 289.47 254.76 288.86Z" fill="#263238"/>
<path d="M254.67 299.38C254.7 299.355 254.722 299.322 254.735 299.285C254.747 299.248 254.749 299.208 254.74 299.17C254.733 299.144 254.721 299.12 254.704 299.099C254.688 299.078 254.668 299.06 254.644 299.047C254.621 299.034 254.595 299.026 254.569 299.023C254.542 299.02 254.515 299.022 254.49 299.03C253.673 299.27 252.812 299.316 251.975 299.163C251.138 299.01 250.348 298.663 249.67 298.15C249.652 298.131 249.63 298.115 249.606 298.104C249.582 298.094 249.556 298.088 249.53 298.088C249.503 298.088 249.477 298.094 249.453 298.104C249.429 298.115 249.407 298.131 249.39 298.15C249.37 298.168 249.355 298.189 249.344 298.213C249.334 298.238 249.328 298.264 249.328 298.29C249.328 298.316 249.334 298.342 249.344 298.366C249.355 298.39 249.37 298.412 249.39 298.43C250.111 299.004 250.961 299.395 251.867 299.569C252.772 299.743 253.707 299.696 254.59 299.43L254.67 299.38Z" fill="#263238"/>
<path d="M249.619 291.25C249.64 291.217 249.652 291.179 249.652 291.14C249.652 291.101 249.64 291.063 249.619 291.03C249.601 291.011 249.58 290.995 249.555 290.985C249.531 290.974 249.505 290.969 249.479 290.969C249.453 290.969 249.427 290.974 249.403 290.985C249.378 290.995 249.357 291.011 249.339 291.03C248.732 291.628 247.993 292.075 247.182 292.335C246.371 292.596 245.51 292.662 244.669 292.53C244.643 292.524 244.617 292.523 244.591 292.528C244.565 292.532 244.54 292.541 244.518 292.555C244.496 292.569 244.476 292.587 244.461 292.609C244.446 292.63 244.435 292.654 244.429 292.68C244.423 292.706 244.422 292.732 244.427 292.758C244.431 292.784 244.44 292.809 244.454 292.831C244.468 292.853 244.486 292.873 244.508 292.888C244.529 292.903 244.553 292.914 244.579 292.92C245.481 293.069 246.406 293 247.276 292.718C248.146 292.436 248.936 291.95 249.579 291.3L249.619 291.25Z" fill="#263238"/>
<path d="M244.629 289.81C244.681 289.764 244.725 289.71 244.759 289.65C244.949 289.182 245.245 288.765 245.626 288.433C246.006 288.101 246.46 287.864 246.949 287.74C247.002 287.733 247.052 287.715 247.098 287.688C247.143 287.66 247.182 287.624 247.213 287.581C247.244 287.538 247.266 287.489 247.277 287.437C247.289 287.386 247.289 287.332 247.279 287.28C247.26 287.176 247.201 287.084 247.116 287.023C247.03 286.961 246.924 286.935 246.819 286.95C246.198 287.093 245.619 287.383 245.132 287.795C244.645 288.207 244.263 288.73 244.019 289.32C243.999 289.37 243.988 289.423 243.988 289.477C243.989 289.531 244 289.585 244.021 289.634C244.043 289.684 244.074 289.728 244.113 289.765C244.153 289.803 244.199 289.831 244.249 289.85C244.312 289.873 244.378 289.881 244.444 289.875C244.51 289.868 244.574 289.846 244.629 289.81Z" fill="#263238"/>
<path d="M256.59 286.93L256.64 286.87C256.677 286.834 256.707 286.79 256.728 286.742C256.748 286.694 256.758 286.642 256.758 286.59C256.758 286.538 256.748 286.486 256.728 286.438C256.707 286.39 256.677 286.346 256.64 286.31C256.189 285.87 255.641 285.543 255.039 285.356C254.438 285.168 253.801 285.125 253.18 285.23C253.129 285.242 253.081 285.264 253.038 285.294C252.996 285.325 252.96 285.364 252.933 285.409C252.906 285.453 252.888 285.503 252.881 285.555C252.873 285.607 252.877 285.659 252.89 285.71C252.9 285.762 252.921 285.811 252.952 285.855C252.982 285.898 253.021 285.935 253.065 285.963C253.11 285.991 253.161 286.01 253.213 286.018C253.265 286.026 253.319 286.023 253.37 286.01C253.868 285.926 254.378 285.96 254.86 286.112C255.341 286.263 255.78 286.526 256.14 286.88C256.202 286.932 256.277 286.964 256.357 286.973C256.437 286.982 256.518 286.967 256.59 286.93Z" fill="#263238"/>
<path d="M254.128 296.31C254.559 296.322 254.986 296.238 255.38 296.065C255.775 295.892 256.126 295.634 256.408 295.31C255.073 294.215 253.892 292.943 252.898 291.53L254.128 296.31Z" fill="#FF5652"/>
<path d="M237.109 262.65L240.929 252.65L249.159 257.89C249.159 257.89 246.339 263.21 241.809 263.96L237.109 262.65Z" fill="#FFC3BD"/>
<path d="M245.57 248.63L249.09 249.95C249.763 250.206 250.31 250.716 250.612 251.37C250.915 252.024 250.95 252.771 250.71 253.45L249.16 257.88L240.93 252.64L242.09 250.07C242.381 249.436 242.902 248.935 243.547 248.668C244.193 248.401 244.915 248.387 245.57 248.63Z" fill="#FFC3BD"/>
<path d="M236.709 315.74L236.439 316.74C235.379 320.74 229.759 326.32 225.859 325.01C222.939 320.38 212.629 301.44 212.979 284.59C213.089 279.07 215.869 278.28 215.869 278.28L238.349 260.07C243.139 259.28 242.349 263.52 242.349 263.52C242.349 263.52 223.929 285.29 224.269 286.7C224.469 287.5 236.709 315.74 236.709 315.74Z" fill="#FFC3BD"/>
<path d="M267.809 370.66C272.129 377.38 275.909 384.83 279.809 391.79C269.394 396.672 258.733 401.011 247.869 404.79C237.421 401.164 227.521 396.116 218.449 389.79L231.579 369.79L267.809 370.66Z" fill="#263238"/>
<path d="M249.14 405.05C246.71 415.5 226.14 413.25 220.76 412.9C206.91 412.02 192.82 408.09 181.9 402.28C180.96 398.83 180.9 393.66 184.01 391.87C200.51 382.3 222.81 383.77 235.08 389.06C241.62 391.89 249.14 396.33 249.14 405.05Z" fill="#263238"/>
<path d="M249.14 405.05C246.71 415.5 226.14 413.25 220.76 412.9C206.91 412.02 192.82 408.09 181.9 402.28C180.96 398.83 180.9 393.66 184.01 391.87C200.51 382.3 222.81 383.77 235.08 389.06C241.62 391.89 249.14 396.33 249.14 405.05Z" fill="#263238"/>
<path opacity="0.2" d="M249.14 405.05C246.71 415.5 226.14 413.25 220.76 412.9C206.91 412.02 192.82 408.09 181.9 402.28C180.96 398.83 180.9 393.66 184.01 391.87C200.51 382.3 222.81 383.77 235.08 389.06C241.62 391.89 249.14 396.33 249.14 405.05Z" fill="black"/>
<path d="M245.469 404.58C247.939 414.64 268.809 412.47 274.319 412.14C288.399 411.29 302.729 407.5 313.829 401.91C314.779 398.58 314.829 393.61 311.679 391.91C294.909 382.69 272.239 384.11 259.769 389.21C253.119 391.9 245.469 396.18 245.469 404.58Z" fill="#263238"/>
<path opacity="0.2" d="M245.469 404.58C247.939 414.64 268.809 412.47 274.319 412.14C288.399 411.29 302.729 407.5 313.829 401.91C314.779 398.58 314.829 393.61 311.679 391.91C294.909 382.69 272.239 384.11 259.769 389.21C253.119 391.9 245.469 396.18 245.469 404.58Z" fill="black"/>
<path d="M262.27 411.66L258.75 408.79C258.608 408.671 258.501 408.514 258.443 408.337C258.385 408.16 258.377 407.971 258.42 407.79L260.78 403.5L262.78 399.94C263.41 398.31 264.61 399.18 264.65 399.21C277.45 406.38 280.8 410.14 282.12 411.21C285.9 414.27 283.6 417.43 282.17 416.83C275.76 414.16 271.06 411.9 266.51 412.2C262.33 412.5 262.71 412 262.27 411.66Z" fill="#FFC3BD"/>
<path d="M266.9 411.86C266.9 411.86 252.75 414.45 241.32 414.34L236.5 414.39L238.62 404.71C238.62 404.71 250.48 407.3 260.45 406.46L266.38 405.95L266.9 411.86Z" fill="#FFC3BD"/>
<path d="M183.119 392.31C189.839 388.04 205.739 388.43 213.419 390.55C221.099 392.67 245.669 405.85 253.629 405.75L254.199 414.98C221.729 415.14 191.199 415.07 181.339 402.18C180.519 397.81 181.079 396.26 183.119 392.31Z" fill="#263238"/>
<path opacity="0.2" d="M183.119 392.31C189.839 388.04 205.739 388.43 213.419 390.55C221.099 392.67 245.669 405.85 253.629 405.75L254.199 414.98C221.729 415.14 191.199 415.07 181.339 402.18C180.519 397.81 181.079 396.26 183.119 392.31Z" fill="black"/>
<path d="M256.479 406.34L251.849 405.34C244.204 403.658 236.719 401.316 229.479 398.34C228.314 397.939 227.194 397.416 226.139 396.78C221.539 394.34 215.689 394.28 207.769 394.04C205.999 393.99 205.099 389.63 210.459 388.22C212.339 387.72 221.529 387.13 234.269 383.94C234.329 383.94 235.979 383.6 235.869 385.58L236.229 390.2L236.299 391.13C236.382 392.132 236.788 393.079 237.455 393.831C238.122 394.583 239.014 395.098 239.999 395.3C245.404 396.36 250.914 396.796 256.419 396.6L256.479 406.34Z" fill="#FFC3BD"/>
<path d="M313.68 392.82C308 387.27 298 386.89 290 387.41C282 387.93 250.29 396.92 242.51 395.21L241 404C272.76 410.75 291.53 412.76 313.47 402.85C315.11 398.73 314.88 397.09 313.68 392.82Z" fill="#263238"/>
<path d="M222.789 319.54C224.939 323.7 227.219 328.83 229.429 333.39C229.637 333.838 229.951 334.228 230.345 334.525C230.739 334.822 231.201 335.017 231.688 335.093C232.176 335.169 232.675 335.124 233.141 334.961C233.606 334.798 234.025 334.523 234.359 334.16C238.819 329.55 241.359 322.41 239.739 316.46C237.369 315.24 234.599 314.01 232.229 312.79C228.639 314.35 224.999 316.3 222.789 319.54Z" fill="#FFC3BD"/>
<path d="M260.5 316.36C263.752 318.707 266.261 321.938 267.73 325.67C269.3 329.34 270.53 331.81 271.37 335.67C272.37 332.73 274.09 318.88 270.71 315.14C268.63 312.84 264.3 313.2 263.37 313.71C262.273 314.428 261.303 315.324 260.5 316.36Z" fill="#FFC3BD"/>
</svg>
