<svg width="649" height="631" viewBox="0 0 649 631" fill="none" xmlns="http://www.w3.org/2000/svg">
<path d="M202.202 180.163C238.832 174.737 270.996 151.831 296.359 122.641C406.274 -27.1582 632.943 79.1148 504.273 264.288C441.969 359.998 357.767 377.868 271.087 383.736C97.2587 404.219 77.2566 259.77 94.1176 217.594C111.628 176.226 167.104 186.397 202.202 180.163Z" fill="#525298"/>
<path opacity="0.9" d="M202.202 180.163C238.832 174.737 270.996 151.831 296.359 122.641C406.274 -27.1582 632.943 79.1148 504.273 264.288C441.969 359.998 357.767 377.868 271.087 383.736C97.2587 404.219 77.2566 259.77 94.1176 217.594C111.628 176.226 167.104 186.397 202.202 180.163Z" fill="white"/>
<path d="M324.499 539.581C463.492 539.581 576.169 533.185 576.169 525.295C576.169 517.405 463.492 511.009 324.499 511.009C185.506 511.009 72.8301 517.405 72.8301 525.295C72.8301 533.185 185.506 539.581 324.499 539.581Z" fill="#F5F5F5"/>
<path d="M215.469 145.938C218.74 138.656 189.768 132.056 181.007 154.494C173.063 174.85 159.875 180.05 166.08 194.146C172.791 209.404 210.757 211.234 227.242 194.323C240.611 180.605 226.099 174.825 227.969 161.927C229.838 149.03 225.918 144.827 215.469 145.938Z" fill="#263238"/>
<path d="M162.692 189.628C161.186 181.677 164.224 178.396 168.066 174.244C173.258 169.122 176.815 162.648 178.307 155.605C179.081 151.758 181.059 148.238 183.971 145.527C186.882 142.816 190.585 141.046 194.571 140.461C203.138 138.921 212.211 141.647 214.612 145.105C214.995 145.592 215.212 146.182 215.236 146.795C215.259 147.407 215.086 148.012 214.742 148.525L213.652 147.843C213.862 147.538 213.964 147.175 213.943 146.808C213.922 146.442 213.778 146.092 213.535 145.811C211.406 142.732 202.761 140.271 194.818 141.71C189.145 142.732 181.838 146.013 179.579 155.882C178.041 163.137 174.376 169.804 169.026 175.077C165.288 179.116 162.536 182.043 163.977 189.388L162.692 189.628Z" fill="#263238"/>
<path d="M144.844 183.583L144.039 181.059C143.484 179.344 142.477 177.8 141.119 176.579L138.523 174.282C137.702 173.544 136.641 173.108 135.524 173.051C134.408 172.993 133.306 173.317 132.409 173.967L129.631 175.986C129.124 176.355 128.696 176.818 128.374 177.349C128.052 177.879 127.841 178.467 127.754 179.077C127.667 179.688 127.706 180.309 127.868 180.905C128.029 181.5 128.311 182.059 128.697 182.548L130.488 184.82C130.488 184.82 134.693 191.736 140.781 194.133L142.183 192.972C143.524 191.833 144.491 190.336 144.964 188.666C145.437 186.997 145.396 185.229 144.844 183.583Z" fill="#FFC3BD"/>
<path d="M195.298 227.4L194.467 228.018L193.792 228.498L192.494 229.381C191.624 229.936 190.742 230.454 189.898 230.959C188.132 231.945 186.312 232.839 184.446 233.634C180.61 235.279 176.576 236.449 172.44 237.117C168.072 237.831 163.615 237.856 159.239 237.193C157 236.85 154.8 236.297 152.671 235.54C152.139 235.376 151.607 235.161 151.088 234.946L150.309 234.631L149.92 234.467L149.491 234.29L148.946 234.038C147.813 233.474 146.769 232.755 145.844 231.905C145.179 231.303 144.567 230.649 144.014 229.949C142.545 228.013 141.357 225.89 140.483 223.639C139.704 221.771 139.107 219.979 138.575 218.225C137.607 214.83 136.823 211.389 136.226 207.914C135.04 201.2 134.376 194.408 134.24 187.596C134.079 186.321 134.425 185.034 135.206 183.998C135.987 182.962 137.145 182.255 138.444 182.02C139.743 181.785 141.085 182.04 142.197 182.734C143.309 183.428 144.107 184.508 144.429 185.754V185.893C146.688 191.938 148.855 198.134 151.14 204.015C152.321 206.943 153.463 209.858 154.761 212.508C155.384 213.833 156.059 215.095 156.695 216.193C157.128 216.998 157.684 217.734 158.344 218.376C158.344 218.376 158.344 218.376 158.253 218.2C157.954 217.898 157.602 217.65 157.214 217.468L156.968 217.342C156.89 217.342 156.734 217.253 156.825 217.278H157.033L157.435 217.379C157.703 217.46 157.976 217.524 158.253 217.569C159.348 217.781 160.459 217.912 161.576 217.96C163.913 218.029 166.248 217.792 168.52 217.253C171.013 216.642 173.438 215.797 175.763 214.729C176.97 214.199 178.164 213.581 179.332 212.962C179.916 212.647 180.487 212.306 181.033 211.978L182.331 211.17L183.343 210.552C185.624 209.142 188.378 208.647 191.026 209.169C193.675 209.691 196.012 211.191 197.548 213.354C199.083 215.516 199.697 218.173 199.261 220.766C198.824 223.359 197.371 225.687 195.207 227.261L195.298 227.4Z" fill="#FFC3BD"/>
<path d="M218.063 519.792C226.28 517.155 233.198 511.753 231.809 502.276C231.199 498.212 244.607 496.622 244.607 496.622C243.089 509.532 244.75 511.766 246.347 514.681C247.943 517.597 247.852 521.168 245.049 521.483C241.726 521.875 240.986 521.483 236.858 522.051C232.03 522.67 228.902 525.118 219.257 525.118C214.052 525.118 215.467 520.625 218.063 519.792Z" fill="#525298"/>
<path d="M243.05 381.894C243.997 317.229 237.858 281.981 237.858 281.981L188.65 284.366C188.65 284.366 195.932 343.529 208.86 387.106C212.313 410.491 220.088 450.042 225.475 476.607C233.467 475.942 241.37 474.487 249.059 472.266C250.941 448.931 251.279 415.198 243.05 381.894Z" fill="#525298"/>
<path d="M244.115 502.957C244.115 502.957 246.036 490.741 247.334 472.266C240.804 474.476 234.03 475.933 227.15 476.607C229.954 492.735 231.953 503.008 231.953 503.008C235.887 504.384 240.194 504.366 244.115 502.957Z" fill="#FFC3BD"/>
<path d="M222.789 468.871C223.218 471.092 224.412 476.657 225.593 478.613C225.661 478.726 225.755 478.823 225.868 478.895C225.98 478.967 226.108 479.013 226.242 479.03C235.419 480.153 244.583 478.361 248.308 476.746C248.412 476.705 248.506 476.643 248.585 476.565C248.663 476.487 248.723 476.394 248.762 476.291C249.801 473.616 250.177 467.987 250.294 465.615C250.301 465.486 250.277 465.358 250.225 465.24C250.173 465.122 250.094 465.017 249.993 464.933C249.893 464.849 249.775 464.788 249.647 464.756C249.519 464.723 249.385 464.719 249.256 464.744C240.751 466.276 232.16 467.322 223.529 467.874C223.411 467.887 223.297 467.924 223.195 467.983C223.092 468.041 223.003 468.12 222.933 468.214C222.864 468.308 222.815 468.414 222.79 468.528C222.766 468.641 222.765 468.758 222.789 468.871Z" fill="#263238"/>
<path d="M189.301 208.331C182.006 209.593 170.882 215.588 170.882 215.588C170.882 215.588 165.028 229.217 172.038 239.036C178.943 240.626 182.422 239.326 182.422 239.326L189.301 208.331Z" fill="#263238"/>
<path opacity="0.2" d="M172.037 239.035C178.942 240.625 182.421 239.326 182.421 239.326L182.175 220.938C177.489 227.072 173.582 233.154 172.037 239.035Z" fill="black"/>
<path opacity="0.2" d="M242.791 343.743C237.287 330.656 231.369 319.879 229.097 310.035C225.203 336.802 228.266 361.424 243.077 379.067C243.245 366.043 243.103 354.256 242.791 343.743Z" fill="black"/>
<path d="M318.01 446.369L298.371 459.948C282.341 439.643 258.302 408.623 252.487 395.119C237.716 360.856 208.018 285.325 208.018 285.325L246.568 276.618C246.568 276.618 270.893 298.576 286.586 381.439C299.721 399.587 310.78 426.291 318.01 446.369Z" fill="#525298"/>
<path d="M316.88 510.731C321.774 501.43 321.839 491.183 316.556 483.106C314.284 479.648 325.824 472.821 325.824 472.821C329.899 485.201 333.222 485.92 336.052 487.839C338.882 489.757 339.167 493.884 336.779 495.284C334.172 496.774 331.952 498.825 330.289 501.279C327.329 505.065 325.668 510.264 321.423 513.508C318.711 515.565 314.726 514.808 316.88 510.731Z" fill="#525298"/>
<path d="M327.966 478.5C327.966 478.5 324.578 466.915 317.932 449.562C312.913 454.184 307.36 458.224 301.383 461.602C310.767 475.181 317.634 484.936 317.634 484.936C321.624 483.761 325.2 481.533 327.966 478.5Z" fill="#FFC3BD"/>
<path d="M294.126 456.301C295.424 458.144 298.903 462.75 300.811 464.05C300.923 464.127 301.051 464.178 301.186 464.2C301.321 464.222 301.459 464.214 301.59 464.176C310.416 461.526 318.01 456.213 320.787 453.222C320.865 453.142 320.924 453.046 320.96 452.942C320.996 452.837 321.008 452.726 320.995 452.616C320.813 449.777 318.763 444.489 317.867 442.281C317.818 442.163 317.743 442.059 317.646 441.973C317.55 441.888 317.436 441.825 317.311 441.789C317.187 441.753 317.055 441.744 316.927 441.764C316.798 441.783 316.676 441.83 316.569 441.902C309.486 446.707 302.118 451.102 294.503 455.065C294.387 455.114 294.284 455.188 294.201 455.28C294.118 455.372 294.056 455.481 294.02 455.598C293.984 455.716 293.975 455.84 293.994 455.961C294.012 456.083 294.057 456.199 294.126 456.301Z" fill="#263238"/>
<path d="M178.163 227.16C179.928 238.329 173.088 246.986 183.615 252.135C181.862 260.628 184.458 277.589 188.625 284.316C194.479 287.408 223.113 282.839 246.516 276.605C246.178 266.888 237.962 247.768 240.246 215.941C240.369 214.2 240.115 212.453 239.499 210.814C238.883 209.174 237.92 207.679 236.671 206.425C235.423 205.171 233.918 204.186 232.253 203.534C230.588 202.882 228.801 202.577 227.007 202.639C224.982 202.639 222.827 202.829 220.647 203.018C212.98 203.496 205.358 204.509 197.841 206.047C195.413 206.602 192.908 207.233 190.533 207.889C186.404 209.074 182.865 211.69 180.585 215.241C178.306 218.792 177.444 223.033 178.163 227.16Z" fill="#263238"/>
<path d="M194.699 218.667C194.699 218.667 202.033 216.067 205.875 222.453C212.274 218.957 221.269 204.179 220.633 203.056C209.925 205.92 194.699 218.667 194.699 218.667Z" fill="white"/>
<path d="M194.7 218.667C194.7 218.667 189.131 218.023 187.561 222.819C187.561 213.354 194.128 207.397 196.997 206.287C195.998 208.76 194.7 218.667 194.7 218.667Z" fill="white"/>
<path d="M217.83 178.005C217.012 185.388 216.883 197.251 220.647 203.068C220.647 203.068 206.369 212.571 194.687 218.667C191.013 210.401 196.984 206.287 196.984 206.287C202.553 204.217 202.501 197.288 201.748 191.988L217.83 178.005Z" fill="#FFC3BD"/>
<path opacity="0.2" d="M201.773 191.988L210.859 184.037C211.165 185.521 211.066 187.057 210.574 188.492C209 192.628 205.976 196.092 202.033 198.273C202.176 196.175 202.089 194.068 201.773 191.988Z" fill="black"/>
<path d="M220.764 164.287C219.466 176.276 219.271 181.362 212.911 187.293C203.332 196.216 188.755 192.127 186.354 180.037C184.186 169.146 186.562 151.377 198.607 147.048C210.653 142.72 221.958 152.311 220.764 164.287Z" fill="#FFC3BD"/>
<path d="M218.064 173.058C216.161 171.287 215.048 168.86 214.966 166.299C214.883 163.739 215.837 161.249 217.623 159.365C220.868 156.173 225.411 162.785 225.411 162.785L218.064 173.058Z" fill="#263238"/>
<path d="M203.02 167.606C203.02 168.591 202.41 169.36 201.722 169.335C201.034 169.31 200.567 168.49 200.606 167.518C200.645 166.546 201.216 165.764 201.904 165.789C202.592 165.814 203.059 166.584 203.02 167.606Z" fill="#263238"/>
<path d="M190.637 167.316C190.637 168.288 190.04 169.058 189.339 169.032C188.638 169.007 188.184 168.199 188.223 167.215C188.262 166.231 188.82 165.473 189.521 165.499C190.222 165.524 190.676 166.332 190.637 167.316Z" fill="#263238"/>
<path d="M189.806 165.562L187.418 164.792C187.418 164.792 188.586 166.672 189.806 165.562Z" fill="#263238"/>
<path d="M193.687 167.695C192.684 169.895 191.374 171.95 189.793 173.803C190.292 174.176 190.868 174.44 191.483 174.575C192.097 174.71 192.734 174.714 193.349 174.585L193.687 167.695Z" fill="#ED847E"/>
<path d="M199.048 178.422C198.485 178.499 197.916 178.524 197.348 178.497C197.271 178.494 197.198 178.462 197.145 178.408C197.092 178.354 197.062 178.282 197.063 178.207C197.064 178.169 197.074 178.131 197.09 178.097C197.107 178.062 197.13 178.031 197.159 178.005C197.188 177.98 197.222 177.96 197.259 177.947C197.296 177.934 197.335 177.928 197.374 177.929C198.624 178.002 199.874 177.789 201.023 177.306C202.173 176.824 203.19 176.087 203.994 175.153C204.015 175.122 204.042 175.095 204.074 175.074C204.105 175.054 204.141 175.039 204.179 175.032C204.216 175.025 204.255 175.026 204.292 175.033C204.329 175.041 204.365 175.056 204.396 175.077C204.429 175.099 204.456 175.126 204.478 175.158C204.499 175.19 204.514 175.226 204.521 175.264C204.529 175.301 204.528 175.34 204.52 175.377C204.512 175.414 204.496 175.45 204.474 175.481C203.128 177.111 201.182 178.166 199.048 178.422Z" fill="#263238"/>
<path d="M222.815 174.333C222.333 175.324 221.64 176.204 220.78 176.913C219.92 177.623 218.915 178.146 217.831 178.447C215.066 179.116 213.781 176.163 214.638 173.209C215.403 170.547 217.779 167 220.505 167.644C223.23 168.288 224.152 171.746 222.815 174.333Z" fill="#FFC3BD"/>
<path d="M214.377 147.238C205.639 152.538 195.828 155.943 185.613 157.22C185.613 148.601 202.955 138.921 214.377 147.238Z" fill="#263238"/>
<path d="M207.68 148.285C205.669 155.857 225.852 169.739 221.958 183.091C228.552 173.108 223.802 150.645 223.802 150.645C223.802 150.645 206.798 140.183 207.68 148.285Z" fill="#263238"/>
<path d="M205.603 161.17C205.524 161.159 205.449 161.132 205.382 161.091C205.315 161.05 205.257 160.995 205.214 160.93C204.813 160.322 204.27 159.814 203.63 159.448C202.989 159.082 202.269 158.867 201.527 158.823C201.45 158.826 201.373 158.814 201.301 158.788C201.228 158.762 201.162 158.721 201.107 158.669C201.051 158.617 201.006 158.555 200.976 158.486C200.946 158.417 200.93 158.343 200.93 158.267C200.927 158.191 200.939 158.114 200.967 158.042C200.995 157.971 201.037 157.905 201.092 157.849C201.146 157.794 201.212 157.75 201.285 157.72C201.357 157.69 201.435 157.674 201.514 157.674C202.452 157.714 203.365 157.972 204.178 158.426C204.992 158.881 205.681 159.519 206.187 160.287C206.231 160.349 206.262 160.418 206.278 160.492C206.294 160.566 206.295 160.642 206.281 160.716C206.266 160.79 206.237 160.86 206.194 160.923C206.151 160.986 206.096 161.04 206.031 161.082C205.969 161.123 205.9 161.152 205.826 161.167C205.753 161.183 205.677 161.183 205.603 161.17Z" fill="#263238"/>
<path d="M185.16 160.754C185.008 160.743 184.866 160.681 184.757 160.577C184.702 160.524 184.659 160.461 184.629 160.392C184.599 160.322 184.584 160.248 184.584 160.173C184.584 160.098 184.599 160.024 184.629 159.954C184.659 159.885 184.702 159.822 184.757 159.769C185.405 159.108 186.206 158.607 187.093 158.308C187.981 158.01 188.929 157.922 189.859 158.053C190.011 158.086 190.144 158.176 190.229 158.303C190.314 158.431 190.344 158.586 190.313 158.734C190.297 158.808 190.267 158.879 190.223 158.941C190.179 159.004 190.123 159.057 190.058 159.099C189.993 159.14 189.92 159.168 189.843 159.181C189.766 159.194 189.688 159.193 189.612 159.176C188.875 159.085 188.127 159.164 187.427 159.407C186.728 159.651 186.098 160.052 185.588 160.577C185.475 160.688 185.321 160.752 185.16 160.754Z" fill="#263238"/>
<path d="M202.189 165.852L199.801 165.095C199.801 165.095 200.956 166.975 202.189 165.852Z" fill="#263238"/>
<path opacity="0.2" d="M239.935 222.112C239.702 228.85 239.932 235.596 240.623 242.304C234.133 235.641 225.981 223.059 225.449 216.749L239.935 222.112Z" fill="black"/>
<path d="M282.314 198.412L283.729 190.398L296.541 195.206C296.541 195.206 293.568 202.665 288.104 205.958L286.585 205.025C285.394 204.32 284.388 203.356 283.647 202.208C282.906 201.06 282.45 199.76 282.314 198.412Z" fill="#FFC3BD"/>
<path d="M291.725 185.931L295.943 188.164C296.865 188.651 297.551 189.471 297.853 190.448C298.154 191.424 298.047 192.477 297.553 193.376L296.553 195.206L283.742 190.398L286.792 186.852C287.381 186.171 288.192 185.708 289.091 185.541C289.989 185.373 290.919 185.51 291.725 185.931Z" fill="#FFC3BD"/>
<path d="M237.651 207.561L239.287 209.202L241.065 210.956C242.272 212.104 243.479 213.278 244.725 214.388C247.191 216.647 249.735 218.742 252.293 220.698C254.705 222.537 257.266 224.183 259.951 225.62C262.004 226.743 264.238 227.519 266.558 227.917L263.066 228.548C262.209 228.952 262.261 229.129 262.443 228.99C262.793 228.761 263.116 228.495 263.403 228.195C264.353 227.234 265.221 226.2 265.999 225.103C267.765 222.667 269.556 219.903 271.191 217.039C272.827 214.174 274.566 211.233 276.241 208.205L281.238 199.219V199.143C281.824 198.073 282.783 197.239 283.942 196.793C285.102 196.346 286.388 196.314 287.569 196.704C288.75 197.094 289.75 197.88 290.391 198.921C291.031 199.962 291.269 201.19 291.064 202.387C290.467 206.021 289.649 209.454 288.74 212.95C287.832 216.445 286.858 219.903 285.56 223.374C284.288 226.952 282.78 230.447 281.043 233.836C280.036 235.744 278.896 237.582 277.63 239.338C276.83 240.421 275.936 241.435 274.956 242.367C273.504 243.774 271.79 244.9 269.906 245.686C268.982 246.069 267.991 246.279 266.986 246.304H266.415C261.286 246.333 256.21 245.297 251.527 243.263C249.46 242.404 247.441 241.439 245.478 240.373C243.6 239.296 241.787 238.181 240.039 237.029C236.643 234.716 233.408 232.187 230.356 229.457C228.864 228.119 227.384 226.769 225.969 225.343C225.268 224.636 224.554 223.929 223.866 223.185C223.178 222.44 222.568 221.758 221.725 220.812C219.859 218.804 218.89 216.157 219.031 213.454C219.172 210.752 220.412 208.214 222.477 206.4C224.543 204.586 227.265 203.644 230.045 203.781C232.825 203.918 235.435 205.124 237.301 207.132L237.651 207.561Z" fill="#FFC3BD"/>
<path d="M227.578 202.702C237.093 202.98 246.555 214.06 246.555 214.06C246.555 214.06 242.895 228.763 232.472 235.098C226.605 230.656 221.633 227.097 221.633 227.097C213.339 215.272 216.104 207.422 227.578 202.702Z" fill="#263238"/>
<path d="M186.731 283.496C187.432 287.446 188.276 290.55 188.548 291.497C188.574 291.597 188.621 291.692 188.686 291.774C188.751 291.856 188.832 291.925 188.925 291.976C190.313 292.721 196.648 295.762 208.278 295.094C221.258 294.412 240.299 287.522 250.177 280.189C250.321 280.081 250.424 279.93 250.471 279.759C250.518 279.588 250.506 279.406 250.437 279.243C249.674 277.598 248.784 276.012 247.776 274.498C247.677 274.352 247.533 274.242 247.365 274.183C247.196 274.124 247.013 274.119 246.841 274.17C242.584 275.432 215.78 282.89 187.549 282.562C187.429 282.562 187.31 282.588 187.202 282.637C187.093 282.686 186.997 282.757 186.919 282.846C186.841 282.935 186.784 283.039 186.752 283.151C186.719 283.263 186.712 283.381 186.731 283.496Z" fill="#525298"/>
<path opacity="0.3" d="M186.731 283.496C187.432 287.446 188.276 290.55 188.548 291.497C188.574 291.597 188.621 291.692 188.686 291.774C188.751 291.856 188.832 291.925 188.925 291.976C190.313 292.721 196.648 295.762 208.278 295.094C221.258 294.412 240.299 287.522 250.177 280.189C250.321 280.081 250.424 279.93 250.471 279.759C250.518 279.588 250.506 279.406 250.437 279.243C249.674 277.598 248.784 276.012 247.776 274.498C247.677 274.352 247.533 274.242 247.365 274.183C247.196 274.124 247.013 274.119 246.841 274.17C242.584 275.432 215.78 282.89 187.549 282.562C187.429 282.562 187.31 282.588 187.202 282.637C187.093 282.686 186.997 282.757 186.919 282.846C186.841 282.935 186.784 283.039 186.752 283.151C186.719 283.263 186.712 283.381 186.731 283.496Z" fill="white"/>
<path d="M446.862 487.649H275.967C272.806 487.678 269.673 487.07 266.766 485.864C263.859 484.658 261.239 482.88 259.073 480.642C256.906 478.404 255.24 475.755 254.178 472.86C253.116 469.966 252.681 466.889 252.901 463.823L273.669 118.476C274.143 112.066 277.073 106.062 281.88 101.65C286.686 97.2389 293.02 94.7408 299.629 94.6499H470.563C473.724 94.6215 476.857 95.2294 479.764 96.4353C482.671 97.6412 485.291 99.419 487.457 101.657C489.624 103.895 491.29 106.544 492.352 109.439C493.415 112.334 493.849 115.411 493.629 118.476L472.796 463.823C472.322 470.229 469.396 476.229 464.595 480.64C459.794 485.051 453.466 487.552 446.862 487.649Z" fill="#525298"/>
<path opacity="0.8" d="M446.862 487.649H275.967C272.806 487.678 269.673 487.07 266.766 485.864C263.859 484.658 261.239 482.88 259.073 480.642C256.906 478.404 255.24 475.755 254.178 472.86C253.116 469.966 252.681 466.889 252.901 463.823L273.669 118.476C274.143 112.066 277.073 106.062 281.88 101.65C286.686 97.2389 293.02 94.7408 299.629 94.6499H470.563C473.724 94.6215 476.857 95.2294 479.764 96.4353C482.671 97.6412 485.291 99.419 487.457 101.657C489.624 103.895 491.29 106.544 492.352 109.439C493.415 112.334 493.849 115.411 493.629 118.476L472.796 463.823C472.322 470.229 469.396 476.229 464.595 480.64C459.794 485.051 453.466 487.552 446.862 487.649Z" fill="white"/>
<path d="M445.85 480.734H279.706C277.485 480.755 275.284 480.328 273.241 479.482C271.198 478.635 269.357 477.387 267.834 475.815C266.311 474.244 265.14 472.382 264.393 470.349C263.646 468.315 263.34 466.154 263.494 464L284.262 120.155C284.595 115.662 286.644 111.453 290.006 108.354C293.369 105.255 297.802 103.491 302.434 103.408H468.578C470.799 103.389 473.001 103.817 475.044 104.665C477.087 105.513 478.928 106.762 480.45 108.335C481.973 109.908 483.144 111.77 483.891 113.804C484.638 115.838 484.944 118 484.79 120.155L464.022 464C463.689 468.491 461.639 472.699 458.277 475.796C454.914 478.893 450.481 480.654 445.85 480.734Z" fill="#525298"/>
<path d="M444.059 478.891H277.915C275.693 478.91 273.492 478.482 271.449 477.635C269.406 476.787 267.565 475.537 266.043 473.964C264.52 472.392 263.348 470.53 262.602 468.495C261.855 466.461 261.549 464.299 261.703 462.144L282.471 118.3C282.804 113.807 284.853 109.598 288.215 106.499C291.578 103.4 296.011 101.636 300.643 101.553H466.787C469.008 101.534 471.21 101.962 473.253 102.81C475.296 103.658 477.137 104.907 478.659 106.48C480.182 108.053 481.353 109.915 482.1 111.949C482.847 113.983 483.153 116.145 482.999 118.3L462.231 462.144C461.898 466.637 459.849 470.847 456.486 473.945C453.124 477.044 448.691 478.808 444.059 478.891Z" fill="white"/>
<path opacity="0.1" d="M439.203 466.107H284.261C282.888 466.119 281.528 465.855 280.265 465.331C279.002 464.807 277.865 464.035 276.924 463.063C275.983 462.091 275.259 460.941 274.797 459.684C274.335 458.427 274.146 457.09 274.241 455.759L282.963 312.332C283.168 309.549 284.439 306.942 286.525 305.026C288.611 303.11 291.36 302.024 294.23 301.984H449.107C450.48 301.972 451.84 302.236 453.103 302.76C454.366 303.284 455.504 304.056 456.445 305.028C457.386 306 458.11 307.151 458.572 308.408C459.033 309.665 459.223 311.001 459.128 312.332L450.47 455.759C450.266 458.542 448.995 461.149 446.909 463.065C444.822 464.981 442.073 466.067 439.203 466.107Z" fill="#525298"/>
<path opacity="0.1" d="M404.793 127.058H359.636C359.145 127.063 358.659 126.969 358.207 126.782C357.756 126.595 357.349 126.319 357.013 125.971C356.676 125.624 356.417 125.213 356.252 124.764C356.087 124.314 356.019 123.836 356.053 123.36C356.125 122.362 356.58 121.427 357.328 120.74C358.075 120.053 359.061 119.664 360.09 119.65H405.235C405.731 119.638 406.224 119.728 406.683 119.912C407.141 120.097 407.555 120.373 407.898 120.722C408.24 121.072 408.503 121.487 408.671 121.941C408.838 122.396 408.906 122.879 408.869 123.36C408.797 124.364 408.336 125.303 407.58 125.989C406.824 126.675 405.828 127.057 404.793 127.058Z" fill="#525298"/>
<path opacity="0.1" d="M422.76 265.485C450.567 239.231 452.465 197.279 427 171.783C401.535 146.288 358.349 146.903 330.542 173.157C302.735 199.411 300.837 241.363 326.302 266.859C351.767 292.355 394.953 291.74 422.76 265.485Z" fill="#525298"/>
<path d="M328.914 263.215C323.232 257.334 318.861 250.375 316.076 242.774C313.291 235.173 312.151 227.095 312.728 219.045H314.026C313.463 226.922 314.58 234.826 317.305 242.264C320.029 249.701 324.304 256.512 329.861 262.269L328.914 263.215Z" fill="#525298"/>
<path d="M440.567 219.588L439.269 219.512C439.623 213.953 439.186 208.373 437.971 202.929L439.269 202.652C440.51 208.211 440.947 213.911 440.567 219.588Z" fill="#525298"/>
<path d="M434.207 191.95C431.03 185.098 426.486 178.927 420.838 173.795C415.189 168.663 408.549 164.672 401.303 162.053L401.757 160.867C409.169 163.539 415.96 167.619 421.734 172.869C427.508 178.119 432.15 184.434 435.388 191.445L434.207 191.95Z" fill="#525298"/>
<path d="M416.826 259.546C441.059 236.666 442.716 200.109 420.527 177.893C398.338 155.678 360.706 156.216 336.473 179.096C312.24 201.976 310.583 238.533 332.772 260.748C354.961 282.964 392.594 282.426 416.826 259.546Z" fill="#525298"/>
<path d="M370.047 227.16C372.903 226.542 374.24 224.169 374.85 221.468C374.915 221.178 374.967 220.901 375.019 220.623V220.37C375.174 219.245 375.261 218.111 375.278 216.976C372.514 216.71 369.946 215.464 368.065 213.477C366.184 211.49 365.12 208.899 365.076 206.198C364.933 200.843 366.155 195.536 368.632 190.751C367.994 190.832 367.39 191.076 366.88 191.458C366.831 191.495 366.774 191.52 366.713 191.533C366.653 191.546 366.59 191.547 366.53 191.534C366.417 191.515 366.316 191.456 366.244 191.37C366.175 191.275 366.146 191.158 366.163 191.043C366.18 190.928 366.241 190.824 366.335 190.751C367.142 190.158 368.127 189.839 369.139 189.843C369.333 189.54 369.515 189.224 369.71 188.934C368.879 188.934 368.074 188.934 367.296 188.934C368.152 183.104 379.691 178.207 387.557 182.624C391.062 183.306 396.851 188.177 396.851 188.177C396.967 191.28 396.876 194.386 396.578 197.478C396.059 202.753 394.774 208.949 391.646 212.407C392.424 210.638 392.711 208.702 392.477 206.791C391.727 207.512 390.796 208.03 389.777 208.293C389.407 209.067 388.973 209.809 388.479 210.514C387.259 215.928 386.389 223.134 388.245 227.286C389.92 227.387 391.542 227.539 393.087 227.703L393.463 227.766C394.482 227.184 395.462 226.539 396.397 225.835C408.079 217.001 395.683 206.627 398.603 197.124C401.524 187.622 399.058 184.012 391.075 183.709C394.385 178.573 373.357 170.37 364.115 186.309C355.743 200.759 353.043 207.978 356.055 219.273C357.187 222.964 359.752 226.083 363.207 227.968C363.795 227.811 364.394 227.693 364.998 227.614C366.647 227.463 368.36 227.286 370.047 227.16Z" fill="#263238"/>
<path d="M351.888 249.371C351.412 248.552 350.979 247.709 350.59 246.847C349.708 249.371 348.838 251.895 347.994 254.419C347.189 256.691 346.424 258.962 345.619 261.133L344.412 264.2L343.892 265.462C343.711 265.802 343.892 265.6 343.892 265.701C343.339 266.328 342.726 266.903 342.062 267.418C341.92 267.557 341.738 267.683 341.582 267.809C345.174 270.164 349.038 272.1 353.095 273.576C353.186 267.809 353.913 261.814 354.692 260.212C350.019 257.057 350.72 253.662 351.888 249.371Z" fill="#FFC3BD"/>
<path d="M356.43 232.347L356.105 232.789C356.209 232.637 356.326 232.498 356.443 232.36L356.43 232.347Z" fill="#263238"/>
<path d="M353.432 240.802C353.413 238.024 354.279 235.309 355.911 233.028C353.423 236.835 351.377 240.898 349.811 245.144C349.811 245.144 350.044 245.812 350.537 246.86C350.926 247.722 351.359 248.564 351.835 249.384C352.761 246.606 353.298 243.719 353.432 240.802Z" fill="#263238"/>
<path d="M398.68 259.114C397.141 256.915 395.775 254.608 394.591 252.211C394.202 252.413 393.8 252.614 393.384 252.791C389.49 248.791 386.167 245.56 386.167 245.56C381.313 235.716 384.311 230.113 393.514 227.829C394.942 228.115 396.305 228.649 397.538 229.406C396.324 228.577 394.929 228.032 393.462 227.816L393.086 227.753C391.541 227.589 389.918 227.438 388.244 227.337C388.607 228.258 380.274 239.957 375.043 241.812C372.902 236.562 366.892 236.208 366.892 236.208C366.892 236.208 361.285 235.085 359.545 238.518C360.688 231.425 367.71 227.69 370.046 227.16C368.359 227.299 366.645 227.475 364.997 227.677C364.392 227.756 363.794 227.874 363.206 228.031C360.535 228.743 358.166 230.264 356.443 232.372C356.326 232.511 356.209 232.65 356.106 232.801L355.911 233.041C354.279 235.321 353.413 238.037 353.432 240.815C353.313 243.725 352.794 246.607 351.887 249.384C350.719 253.624 350.018 257.069 354.6 260.224C353.821 261.827 353.094 267.796 353.003 273.589C359.454 275.914 366.282 277.094 373.161 277.072C381.97 277.059 390.673 275.204 398.68 271.633C398.457 266.935 398.496 262.23 398.797 257.536C398.758 258.041 398.706 258.596 398.68 259.114Z" fill="#263238"/>
<path d="M366.893 236.209C366.893 236.209 372.902 236.562 375.044 241.812C380.236 239.894 388.608 228.258 388.245 227.337C388.245 227.337 376.42 232.915 366.893 236.209Z" fill="white"/>
<path d="M370.073 227.16C367.737 227.703 360.715 231.438 359.572 238.518C361.312 235.085 366.919 236.208 366.919 236.208C365.102 229.57 370.073 227.16 370.073 227.16Z" fill="white"/>
<path d="M388.479 210.565C387.351 212.156 385.924 213.526 384.273 214.603C383.579 215.089 382.84 215.511 382.067 215.865C380.366 218.518 377.831 220.568 374.837 221.708V221.494C374.227 224.194 372.89 226.542 370.034 227.185C370.034 227.185 365.063 229.608 366.854 236.246C376.394 232.953 388.206 227.412 388.206 227.412C386.389 223.197 387.259 215.979 388.479 210.565Z" fill="#FFC3BD"/>
<path d="M374.875 221.456C374.94 221.165 374.991 220.888 375.043 220.61C374.991 220.85 374.94 221.165 374.875 221.456Z" fill="#263238"/>
<path opacity="0.2" d="M374.875 221.456C374.94 221.165 374.991 220.888 375.043 220.61C374.991 220.85 374.94 221.165 374.875 221.456Z" fill="black"/>
<path d="M375.343 216.963C375.325 218.099 375.239 219.232 375.084 220.358C375.245 219.233 375.331 218.099 375.343 216.963Z" fill="#263238"/>
<path opacity="0.2" d="M375.343 216.963C375.325 218.099 375.239 219.232 375.084 220.358C375.245 219.233 375.331 218.099 375.343 216.963Z" fill="black"/>
<path d="M382.066 215.802C379.975 216.776 377.648 217.169 375.342 216.938C375.331 218.074 375.244 219.208 375.083 220.333V220.585C375.083 220.863 374.979 221.14 374.914 221.431V221.645C377.879 220.491 380.386 218.443 382.066 215.802Z" fill="#FFC3BD"/>
<path opacity="0.2" d="M382.066 215.802C379.975 216.776 377.648 217.169 375.342 216.938C375.331 218.074 375.244 219.208 375.083 220.333V220.585C375.083 220.863 374.979 221.14 374.914 221.431V221.645C377.879 220.491 380.386 218.443 382.066 215.802Z" fill="black"/>
<path d="M382.067 215.802C382.841 215.448 383.579 215.026 384.274 214.54C385.924 213.463 387.351 212.093 388.479 210.502C388.973 209.797 389.407 209.054 389.777 208.281C389.531 208.281 389.284 208.407 389.05 208.432C386.883 208.621 386.273 206.249 387.259 204.129C387.593 203.412 388.03 202.745 388.557 202.147C387.991 200.345 388.129 198.404 388.946 196.695C386.973 192.758 384.884 189.123 384.689 186.486C379.832 187.945 374.792 188.748 369.71 188.871C369.515 189.161 369.334 189.477 369.139 189.78C369.579 189.778 370.017 189.842 370.437 189.969C370.492 189.989 370.542 190.019 370.585 190.057C370.627 190.096 370.662 190.142 370.686 190.194C370.71 190.246 370.723 190.301 370.725 190.358C370.727 190.415 370.717 190.471 370.697 190.524C370.655 190.632 370.573 190.72 370.466 190.769C370.36 190.819 370.237 190.826 370.125 190.789C369.659 190.652 369.167 190.617 368.685 190.688C366.24 195.477 365.05 200.779 365.219 206.123C365.263 208.823 366.327 211.414 368.208 213.401C370.089 215.389 372.657 216.634 375.421 216.9C377.698 217.129 379.996 216.749 382.067 215.802ZM379.172 191.016C379.879 191.152 380.542 191.452 381.103 191.892C381.664 192.331 382.106 192.897 382.392 193.54C382.442 193.646 382.448 193.767 382.41 193.877C382.371 193.988 382.29 194.08 382.184 194.134C382.076 194.177 381.954 194.177 381.846 194.134C381.788 194.118 381.734 194.089 381.689 194.05C381.644 194.01 381.609 193.961 381.587 193.906C381.351 193.397 380.992 192.95 380.539 192.605C380.087 192.26 379.556 192.027 378.991 191.925C378.874 191.906 378.768 191.845 378.696 191.754C378.624 191.662 378.59 191.548 378.601 191.433C378.607 191.368 378.627 191.306 378.66 191.249C378.693 191.193 378.738 191.144 378.793 191.107C378.847 191.07 378.909 191.044 378.975 191.033C379.041 191.022 379.108 191.025 379.172 191.042V191.016ZM378.718 197.251C378.935 197.409 379.095 197.629 379.176 197.88C379.258 198.131 379.257 198.401 379.172 198.652C379.03 199.383 378.51 199.914 378.017 199.8C377.524 199.686 377.238 199.043 377.381 198.311C377.453 197.94 377.649 197.602 377.939 197.352C377.535 197.143 377.218 196.804 377.044 196.393L378.718 197.251ZM368.075 196.721C368.144 196.356 368.336 196.023 368.62 195.774C368.222 195.556 367.911 195.213 367.737 194.802L369.437 195.648C369.647 195.812 369.802 196.032 369.882 196.282C369.963 196.531 369.967 196.798 369.892 197.049C369.736 197.781 369.23 198.311 368.737 198.21C368.243 198.109 367.932 197.478 368.075 196.746V196.721ZM371.086 202.854C370.605 202.882 370.123 202.807 369.675 202.635C369.226 202.462 368.822 202.197 368.49 201.857C369.88 200.633 371.093 199.232 372.098 197.692L371.086 202.854ZM373.591 206.236C373.533 206.221 373.484 206.185 373.453 206.136C373.421 206.087 373.41 206.028 373.422 205.971C373.435 205.916 373.469 205.868 373.518 205.837C373.566 205.807 373.625 205.796 373.682 205.807C374.619 206.003 375.59 205.982 376.517 205.745C377.444 205.508 378.3 205.063 379.017 204.444C379.037 204.423 379.062 204.407 379.089 204.395C379.116 204.384 379.145 204.377 379.174 204.377C379.204 204.376 379.233 204.381 379.261 204.392C379.288 204.402 379.313 204.418 379.335 204.438C379.356 204.458 379.373 204.481 379.385 204.508C379.397 204.534 379.403 204.562 379.404 204.591C379.404 204.62 379.399 204.648 379.388 204.675C379.378 204.702 379.362 204.726 379.341 204.747C378.134 205.827 376.542 206.407 374.902 206.362C374.463 206.359 374.025 206.325 373.591 206.261V206.236Z" fill="#FFC3BD"/>
<path d="M390.699 200.658C390.154 199.396 389.531 198.046 388.895 196.784C388.077 198.492 387.939 200.434 388.505 202.236C389.081 201.531 389.838 200.987 390.699 200.658Z" fill="#263238"/>
<path d="M377.913 197.39C377.623 197.64 377.427 197.978 377.355 198.349C377.212 199.081 377.498 199.749 377.991 199.838C378.484 199.926 379.004 199.421 379.146 198.689C379.23 198.439 379.232 198.169 379.15 197.918C379.069 197.667 378.909 197.447 378.692 197.289C378.583 197.37 378.453 197.422 378.316 197.44C378.18 197.457 378.041 197.44 377.913 197.39Z" fill="#263238"/>
<path d="M369.93 197.087C370.004 196.836 370.001 196.569 369.92 196.319C369.839 196.07 369.685 195.85 369.475 195.686C369.363 195.766 369.232 195.818 369.094 195.838C368.956 195.858 368.815 195.845 368.684 195.799C368.4 196.048 368.208 196.381 368.138 196.746C367.996 197.478 368.281 198.147 368.774 198.248C369.268 198.349 369.709 197.819 369.93 197.087Z" fill="#263238"/>
<path d="M369.411 195.686L367.711 194.84C367.885 195.251 368.196 195.593 368.594 195.812C368.73 195.86 368.876 195.873 369.019 195.851C369.162 195.829 369.297 195.772 369.411 195.686Z" fill="#263238"/>
<path d="M368.502 201.92C368.834 202.26 369.238 202.525 369.687 202.698C370.135 202.87 370.617 202.945 371.098 202.917L372.123 197.755C371.114 199.296 369.896 200.697 368.502 201.92Z" fill="#ED847E"/>
<path d="M379.314 204.444C379.27 204.403 379.212 204.38 379.151 204.38C379.091 204.38 379.033 204.403 378.989 204.444C378.275 205.059 377.423 205.502 376.501 205.739C375.579 205.976 374.613 205.999 373.68 205.807C373.624 205.796 373.565 205.807 373.516 205.837C373.467 205.868 373.433 205.916 373.421 205.971C373.409 206.028 373.42 206.087 373.451 206.136C373.482 206.185 373.532 206.221 373.59 206.236C374.019 206.307 374.452 206.35 374.888 206.362C376.527 206.407 378.12 205.827 379.327 204.747C379.363 204.704 379.382 204.649 379.38 204.593C379.377 204.537 379.354 204.484 379.314 204.444Z" fill="#263238"/>
<path d="M390.698 200.658C389.837 200.987 389.08 201.531 388.504 202.235C387.977 202.833 387.54 203.5 387.206 204.217C386.22 206.337 386.83 208.71 388.998 208.52C389.231 208.52 389.478 208.419 389.724 208.369C390.744 208.106 391.674 207.588 392.424 206.867C392.153 204.729 391.571 202.638 390.698 200.658Z" fill="#FFC3BD"/>
<path d="M384.935 184.656C385.013 182.839 386.078 182.397 387.531 182.674C379.665 178.207 368.126 183.104 367.27 188.984C368.048 188.984 368.853 188.984 369.684 188.984C374.766 188.861 379.806 188.059 384.663 186.599C384.587 185.94 384.681 185.272 384.935 184.656Z" fill="#263238"/>
<path d="M384.934 184.656C384.688 185.256 384.595 185.906 384.662 186.549C384.856 189.224 386.946 192.859 388.919 196.758C389.555 198.02 390.217 199.282 390.723 200.633C391.597 202.613 392.178 204.703 392.45 206.842C392.684 208.752 392.397 210.689 391.619 212.458C394.747 209 396.032 202.803 396.551 197.528C396.849 194.437 396.94 191.33 396.824 188.227C396.824 188.227 391.035 183.356 387.53 182.675C386.076 182.397 385.012 182.839 384.934 184.656Z" fill="#263238"/>
<path d="M379.016 191.912C379.582 192.014 380.113 192.247 380.565 192.592C381.017 192.937 381.377 193.384 381.612 193.894C381.634 193.948 381.669 193.998 381.714 194.037C381.76 194.076 381.813 194.105 381.872 194.121C381.98 194.164 382.101 194.164 382.209 194.121C382.316 194.067 382.397 193.975 382.435 193.865C382.474 193.754 382.467 193.634 382.417 193.528C382.131 192.885 381.689 192.319 381.128 191.879C380.567 191.439 379.905 191.139 379.198 191.004C379.079 190.989 378.96 191.021 378.865 191.092C378.77 191.163 378.708 191.267 378.692 191.382C378.667 191.494 378.687 191.611 378.747 191.709C378.808 191.807 378.904 191.88 379.016 191.912Z" fill="#263238"/>
<path d="M370.047 190.852C370.159 190.889 370.281 190.882 370.388 190.832C370.494 190.783 370.577 190.695 370.618 190.587C370.639 190.534 370.649 190.478 370.647 190.421C370.645 190.364 370.632 190.308 370.607 190.257C370.583 190.205 370.549 190.159 370.506 190.12C370.463 190.082 370.413 190.052 370.359 190.032C369.938 189.905 369.501 189.841 369.061 189.843C368.049 189.839 367.064 190.158 366.257 190.751C366.163 190.823 366.102 190.928 366.085 191.043C366.068 191.158 366.097 191.275 366.166 191.37C366.237 191.456 366.339 191.515 366.452 191.534C366.512 191.546 366.575 191.546 366.635 191.533C366.696 191.52 366.753 191.494 366.802 191.458C367.312 191.076 367.916 190.832 368.554 190.751C369.053 190.672 369.564 190.707 370.047 190.852Z" fill="#263238"/>
<path d="M377.912 197.389C378.039 197.44 378.178 197.457 378.315 197.439C378.452 197.422 378.581 197.37 378.691 197.288L376.99 196.443C377.173 196.854 377.5 197.189 377.912 197.389Z" fill="#263238"/>
<path d="M398.68 259.114C398.68 258.596 398.758 258.041 398.784 257.511C398.057 256.388 397.318 255.252 396.552 254.129L395.059 251.971L394.592 252.211C395.775 254.608 397.142 256.916 398.68 259.114Z" fill="#263238"/>
<path opacity="0.2" d="M398.68 259.114C398.68 258.596 398.758 258.041 398.784 257.511C398.057 256.388 397.318 255.252 396.552 254.129L395.059 251.971L394.592 252.211C395.775 254.608 397.142 256.916 398.68 259.114Z" fill="black"/>
<path d="M402.535 269.563V269.765C407.712 267.045 412.481 263.648 416.709 259.669C416 257.633 415.168 255.64 414.217 253.7C412.958 251.061 411.558 248.487 410.025 245.989C408.727 243.818 407.351 241.749 405.936 239.679C404.638 242.317 400.952 248.664 395.098 251.933L396.59 254.091C397.356 255.214 398.096 256.35 398.823 257.473C399.459 258.458 400.121 259.454 400.653 260.439C401.653 262.143 402.587 263.859 403.249 265.487L403.119 266.345C402.964 267.392 402.769 268.465 402.535 269.563Z" fill="#FFC3BD"/>
<path d="M386.167 245.56C386.167 245.56 389.49 248.791 393.384 252.791C393.799 252.615 394.202 252.413 394.591 252.211L395.058 251.971C400.912 248.702 404.573 242.354 405.897 239.717C406.273 238.972 406.468 238.518 406.468 238.518C406.468 238.518 402.704 232.46 397.538 229.406C396.305 228.649 394.942 228.115 393.514 227.829C384.311 230.113 381.313 235.716 386.167 245.56Z" fill="#263238"/>
<path d="M448.408 118.969H466.696C467.196 118.961 467.674 118.771 468.037 118.437C468.4 118.103 468.621 117.649 468.656 117.164C468.673 116.933 468.639 116.702 468.559 116.484C468.479 116.266 468.353 116.067 468.19 115.899C468.026 115.73 467.829 115.597 467.61 115.506C467.391 115.415 467.155 115.37 466.917 115.372H448.615C448.118 115.38 447.641 115.568 447.279 115.9C446.916 116.231 446.694 116.682 446.655 117.164C446.637 117.397 446.669 117.631 446.75 117.851C446.83 118.072 446.957 118.273 447.121 118.443C447.286 118.613 447.486 118.747 447.707 118.838C447.929 118.928 448.167 118.973 448.408 118.969Z" fill="#525298"/>
<path d="M448.031 125.165H466.32C466.819 125.157 467.297 124.967 467.66 124.633C468.023 124.299 468.244 123.845 468.28 123.36C468.298 123.129 468.266 122.896 468.186 122.676C468.107 122.457 467.981 122.256 467.818 122.086C467.654 121.917 467.456 121.782 467.236 121.691C467.016 121.599 466.779 121.553 466.54 121.556H448.251C447.75 121.561 447.268 121.749 446.903 122.084C446.537 122.418 446.314 122.874 446.278 123.36C446.264 123.592 446.299 123.825 446.381 124.043C446.463 124.262 446.589 124.462 446.753 124.631C446.918 124.8 447.116 124.935 447.335 125.026C447.555 125.118 447.792 125.165 448.031 125.165Z" fill="#525298"/>
<path d="M300.071 125.165H318.36C318.861 125.157 319.341 124.968 319.706 124.634C320.071 124.3 320.294 123.846 320.333 123.36C320.349 123.128 320.316 122.895 320.235 122.675C320.154 122.456 320.027 122.255 319.863 122.086C319.698 121.916 319.499 121.782 319.279 121.691C319.058 121.599 318.821 121.553 318.581 121.556H300.292C299.792 121.561 299.312 121.75 298.948 122.085C298.585 122.419 298.365 122.875 298.332 123.36C298.316 123.592 298.349 123.824 298.429 124.042C298.51 124.261 298.635 124.461 298.798 124.63C298.961 124.8 299.159 124.934 299.378 125.026C299.597 125.118 299.833 125.166 300.071 125.165Z" fill="#525298"/>
<path d="M447.655 131.349H465.982C466.484 131.344 466.966 131.156 467.331 130.821C467.697 130.487 467.92 130.031 467.955 129.544C467.97 129.312 467.935 129.08 467.853 128.861C467.771 128.643 467.645 128.443 467.48 128.274C467.316 128.105 467.118 127.97 466.899 127.878C466.679 127.787 466.442 127.739 466.203 127.74H447.875C447.374 127.748 446.895 127.937 446.53 128.271C446.165 128.605 445.941 129.059 445.902 129.544C445.886 129.777 445.92 130.01 446.001 130.229C446.082 130.449 446.208 130.649 446.373 130.819C446.538 130.988 446.736 131.123 446.957 131.214C447.177 131.305 447.415 131.351 447.655 131.349Z" fill="#525298"/>
<path d="M423.616 357.764H312.974C310.908 357.783 308.86 357.386 306.959 356.598C305.058 355.81 303.346 354.648 301.929 353.186C300.513 351.723 299.423 349.991 298.728 348.099C298.033 346.207 297.748 344.196 297.892 342.191C298.203 338.003 300.118 334.08 303.259 331.197C306.399 328.314 310.538 326.68 314.856 326.618H425.498C427.564 326.6 429.612 326.997 431.513 327.785C433.414 328.573 435.126 329.735 436.543 331.197C437.96 332.66 439.05 334.392 439.744 336.284C440.439 338.176 440.724 340.187 440.581 342.191C440.269 346.38 438.354 350.303 435.214 353.186C432.073 356.069 427.935 357.703 423.616 357.764Z" fill="white"/>
<path d="M421.097 399.625H310.442C308.376 399.64 306.328 399.24 304.429 398.45C302.529 397.66 300.817 396.497 299.401 395.034C297.985 393.57 296.895 391.839 296.2 389.947C295.504 388.055 295.218 386.044 295.359 384.039C295.68 379.857 297.599 375.944 300.739 373.068C303.879 370.193 308.012 368.565 312.324 368.504H422.979C425.045 368.485 427.093 368.882 428.994 369.67C430.894 370.458 432.607 371.62 434.024 373.083C435.44 374.546 436.53 376.277 437.225 378.169C437.92 380.062 438.205 382.073 438.061 384.077C437.741 388.26 435.822 392.175 432.683 395.053C429.544 397.93 425.41 399.561 421.097 399.625Z" fill="white"/>
<path d="M418.567 441.473H307.925C305.859 441.492 303.811 441.094 301.91 440.306C300.01 439.518 298.297 438.357 296.881 436.894C295.464 435.431 294.374 433.699 293.679 431.807C292.984 429.915 292.699 427.904 292.843 425.9C293.154 421.71 295.068 417.785 298.209 414.9C301.349 412.015 305.487 410.379 309.808 410.314H420.449C422.516 410.297 424.564 410.696 426.465 411.485C428.366 412.275 430.078 413.438 431.495 414.901C432.911 416.365 434.001 418.097 434.696 419.99C435.39 421.883 435.675 423.895 435.532 425.9C435.221 430.088 433.306 434.011 430.165 436.894C427.024 439.777 422.886 441.411 418.567 441.473Z" fill="white"/>
<path d="M321.568 347.773C324.937 344.592 325.17 339.513 322.088 336.428C319.007 333.343 313.778 333.42 310.41 336.601C307.041 339.781 306.808 344.86 309.89 347.945C312.971 351.03 318.2 350.953 321.568 347.773Z" fill="#525298"/>
<path d="M315.012 376.455L316.102 380.455C316.165 380.675 316.301 380.868 316.489 381.005C316.676 381.142 316.905 381.215 317.14 381.212H321.463C321.706 381.215 321.943 381.294 322.135 381.439C322.328 381.584 322.467 381.787 322.53 382.016C322.593 382.245 322.578 382.488 322.486 382.707C322.394 382.927 322.23 383.111 322.021 383.231L318.373 385.755C318.166 385.89 318.007 386.083 317.919 386.31C317.83 386.536 317.817 386.783 317.88 387.017L318.97 391.018C319.035 391.248 319.026 391.491 318.943 391.715C318.861 391.94 318.709 392.134 318.509 392.272C318.31 392.409 318.071 392.484 317.826 392.486C317.581 392.487 317.342 392.415 317.14 392.28L313.791 389.756C313.601 389.626 313.375 389.557 313.142 389.557C312.91 389.557 312.683 389.626 312.493 389.756L308.846 392.28C308.655 392.428 308.418 392.509 308.174 392.511C307.93 392.512 307.692 392.434 307.499 392.288C307.306 392.143 307.169 391.939 307.109 391.708C307.05 391.478 307.072 391.235 307.172 391.018L308.742 387.017C308.839 386.801 308.858 386.559 308.797 386.33C308.735 386.101 308.598 385.899 308.405 385.755L305.056 383.231C304.871 383.077 304.741 382.872 304.681 382.643C304.621 382.414 304.635 382.172 304.722 381.951C304.809 381.731 304.963 381.541 305.165 381.409C305.366 381.276 305.605 381.208 305.848 381.212H310.17C310.415 381.212 310.654 381.14 310.856 381.005C311.058 380.87 311.212 380.678 311.299 380.455L312.818 376.455C312.887 376.224 313.031 376.021 313.229 375.876C313.427 375.732 313.667 375.654 313.915 375.654C314.162 375.654 314.403 375.732 314.6 375.876C314.798 376.021 314.942 376.224 315.012 376.455Z" fill="#525298"/>
<path d="M318.011 421.659L317.323 432.891C317.29 433.362 317.075 433.804 316.721 434.127C316.367 434.45 315.9 434.631 315.415 434.633H305.303C305.08 434.62 304.861 434.564 304.66 434.468C304.46 434.371 304.281 434.237 304.134 434.072C303.988 433.907 303.877 433.716 303.808 433.509C303.739 433.301 303.713 433.083 303.733 432.866L304.577 418.883C304.606 418.412 304.818 417.969 305.169 417.644C305.521 417.318 305.986 417.134 306.472 417.129H313.74L318.011 421.659Z" fill="#525298"/>
<path d="M313.674 417.154L318.049 421.659H315.206C314.975 421.662 314.746 421.618 314.533 421.529C314.32 421.441 314.129 421.311 313.97 421.148C313.812 420.984 313.69 420.791 313.612 420.579C313.534 420.367 313.502 420.142 313.519 419.918L313.674 417.154ZM312.519 414.062L312.337 417.078L312.169 419.842C312.146 420.245 312.207 420.648 312.347 421.027C312.488 421.406 312.705 421.754 312.986 422.051C313.272 422.344 313.616 422.576 313.998 422.735C314.38 422.893 314.791 422.974 315.206 422.972H321.151L319.022 420.763L314.661 416.258L312.519 414.062Z" fill="white"/>
<path opacity="0.2" d="M419.902 340.538H337.103C336.768 340.54 336.436 340.476 336.127 340.348C335.819 340.22 335.541 340.032 335.311 339.795C335.081 339.558 334.903 339.278 334.79 338.972C334.676 338.665 334.628 338.339 334.65 338.014C334.704 337.334 335.018 336.699 335.529 336.232C336.041 335.765 336.713 335.501 337.414 335.49H420.201C420.536 335.488 420.868 335.552 421.176 335.68C421.484 335.808 421.762 335.996 421.992 336.233C422.222 336.47 422.4 336.75 422.514 337.057C422.628 337.363 422.675 337.689 422.654 338.014C422.602 338.693 422.291 339.328 421.782 339.795C421.273 340.262 420.602 340.527 419.902 340.538Z" fill="#525298"/>
<path opacity="0.2" d="M404.211 348.918H336.611C336.275 348.92 335.943 348.855 335.634 348.728C335.325 348.6 335.046 348.412 334.815 348.175C334.584 347.939 334.405 347.659 334.29 347.352C334.175 347.046 334.125 346.72 334.145 346.394C334.2 345.714 334.513 345.078 335.025 344.612C335.536 344.145 336.208 343.88 336.91 343.87H404.509C404.846 343.866 405.179 343.929 405.489 344.056C405.799 344.183 406.078 344.371 406.31 344.608C406.541 344.845 406.72 345.126 406.834 345.433C406.949 345.741 406.997 346.068 406.976 346.394C406.918 347.073 406.603 347.707 406.092 348.173C405.582 348.639 404.911 348.905 404.211 348.918Z" fill="#525298"/>
<path opacity="0.2" d="M417.177 385.692H394.332C393.63 385.7 392.956 385.964 392.444 386.431C391.932 386.898 391.619 387.536 391.567 388.216C391.546 388.542 391.594 388.868 391.708 389.174C391.821 389.48 391.999 389.761 392.229 389.998C392.459 390.234 392.737 390.422 393.045 390.55C393.354 390.678 393.686 390.743 394.021 390.74H416.865C417.568 390.733 418.241 390.469 418.753 390.002C419.265 389.535 419.578 388.897 419.63 388.216C419.652 387.891 419.604 387.565 419.49 387.259C419.376 386.953 419.199 386.672 418.969 386.435C418.738 386.199 418.461 386.01 418.152 385.883C417.844 385.755 417.512 385.69 417.177 385.692Z" fill="#525298"/>
<path opacity="0.2" d="M380.977 385.693H334.392C333.689 385.7 333.016 385.964 332.504 386.431C331.992 386.899 331.679 387.536 331.627 388.217C331.604 388.542 331.65 388.869 331.763 389.176C331.876 389.483 332.054 389.765 332.284 390.002C332.515 390.239 332.793 390.427 333.103 390.554C333.412 390.681 333.745 390.745 334.08 390.741H380.678C381.38 390.73 382.052 390.466 382.563 389.999C383.074 389.532 383.388 388.896 383.443 388.217C383.465 387.89 383.417 387.563 383.302 387.256C383.187 386.949 383.009 386.668 382.777 386.431C382.546 386.194 382.266 386.006 381.956 385.879C381.647 385.752 381.313 385.688 380.977 385.693Z" fill="#525298"/>
<path opacity="0.2" d="M402.498 377.338H334.885C334.183 377.346 333.509 377.609 332.997 378.076C332.485 378.544 332.172 379.181 332.12 379.862C332.099 380.187 332.147 380.513 332.26 380.819C332.374 381.126 332.552 381.406 332.782 381.643C333.012 381.88 333.29 382.068 333.598 382.196C333.906 382.324 334.238 382.388 334.573 382.386H402.173C402.875 382.375 403.547 382.111 404.058 381.644C404.569 381.177 404.883 380.542 404.938 379.862C404.959 379.538 404.912 379.213 404.799 378.907C404.686 378.602 404.51 378.322 404.281 378.085C404.052 377.849 403.776 377.66 403.469 377.532C403.162 377.403 402.832 377.337 402.498 377.338Z" fill="#525298"/>
<path opacity="0.2" d="M414.646 427.54H331.86C331.159 427.554 330.489 427.819 329.978 428.285C329.467 428.752 329.153 429.386 329.095 430.064C329.073 430.391 329.121 430.718 329.236 431.025C329.351 431.332 329.529 431.613 329.761 431.85C329.992 432.087 330.272 432.275 330.582 432.402C330.891 432.529 331.225 432.592 331.561 432.588H414.347C415.047 432.578 415.718 432.313 416.227 431.846C416.736 431.379 417.047 430.743 417.099 430.064C417.121 429.739 417.073 429.413 416.959 429.107C416.845 428.8 416.668 428.52 416.438 428.283C416.207 428.046 415.93 427.858 415.621 427.73C415.313 427.603 414.981 427.538 414.646 427.54Z" fill="#525298"/>
<path opacity="0.2" d="M399.965 419.173H332.365C331.664 419.184 330.992 419.448 330.481 419.915C329.969 420.382 329.656 421.018 329.601 421.697C329.579 422.023 329.627 422.348 329.741 422.655C329.855 422.961 330.032 423.242 330.262 423.478C330.493 423.715 330.77 423.903 331.079 424.031C331.387 424.159 331.719 424.224 332.054 424.221H399.667C400.367 424.211 401.037 423.946 401.546 423.479C402.056 423.012 402.367 422.376 402.418 421.697C402.44 421.372 402.392 421.046 402.278 420.74C402.165 420.434 401.987 420.153 401.757 419.916C401.527 419.68 401.249 419.491 400.941 419.364C400.632 419.236 400.3 419.171 399.965 419.173Z" fill="#525298"/>
</svg>
