<svg width="500" height="500" viewBox="0 0 500 500" fill="none" xmlns="http://www.w3.org/2000/svg">
<path opacity="0.7" d="M67.9295 167.09C67.9295 167.09 40.0495 239.09 79.2295 311.59C118.41 384.09 199.11 422.39 263.7 455.14C328.289 487.89 395.36 471.94 427.23 418.3C459.1 364.66 415.389 326.37 415.329 249.88C415.27 173.39 426.78 153.14 385.329 88.52C343.879 23.9 242.27 9.59001 165.429 57.52C88.5895 105.45 67.9295 167.09 67.9295 167.09Z" fill="white"/>
<path d="M109.999 112.47C123.459 96.39 141.649 84 163.329 84.21C200.329 84.67 220.329 117.42 241.549 142.68C252.549 155.78 265.039 168.42 281.379 174.58C305.889 183.81 333.189 178.42 357.069 169.85C367.769 166.01 380.439 160.61 392.489 163.37C429.119 171.75 425.309 216.45 419.259 244.76C411.089 283 397.809 323.66 370.899 353C306.469 423.29 190.519 380.2 132.399 324.11C128.129 319.98 124.039 315.68 120.189 311.11C110.187 299.449 101.721 286.554 94.9988 272.74C76.2788 233.79 73.6988 186.45 89.9988 146.2C94.8934 133.996 101.639 122.619 109.999 112.47Z" fill="#525298"/>
<path opacity="0.7" d="M109.999 112.47C123.459 96.39 141.649 84 163.329 84.21C200.329 84.67 220.329 117.42 241.549 142.68C252.549 155.78 265.039 168.42 281.379 174.58C305.889 183.81 333.189 178.42 357.069 169.85C367.769 166.01 380.439 160.61 392.489 163.37C429.119 171.75 425.309 216.45 419.259 244.76C411.089 283 397.809 323.66 370.899 353C306.469 423.29 190.519 380.2 132.399 324.11C128.129 319.98 124.039 315.68 120.189 311.11C110.187 299.449 101.721 286.554 94.9988 272.74C76.2788 233.79 73.6988 186.45 89.9988 146.2C94.8934 133.996 101.639 122.619 109.999 112.47Z" fill="white"/>
<path d="M54.0508 443.43H445.951" stroke="#263238" stroke-linecap="round" stroke-linejoin="round"/>
<path d="M291.971 240.8V93.66H301.081" stroke="#263238" stroke-linecap="round" stroke-linejoin="round"/>
<path d="M291.971 258.31V254.41" stroke="#263238" stroke-linecap="round" stroke-linejoin="round"/>
<path d="M324.511 93.66H418.521V272.03H291.971" stroke="#263238" stroke-linecap="round" stroke-linejoin="round"/>
<path d="M312.99 93.66H321.25" stroke="#263238" stroke-linecap="round" stroke-linejoin="round"/>
<path d="M413.76 98.41H296.73V267.28H413.76V98.41Z" stroke="#263238" stroke-linecap="round" stroke-linejoin="round"/>
<path d="M408.32 107.45V177.58H302.17V173" stroke="#263238" stroke-linecap="round" stroke-linejoin="round"/>
<path d="M302.17 162.28V103.39H408.32" stroke="#263238" stroke-linecap="round" stroke-linejoin="round"/>
<path d="M302.17 169.49V165.04" stroke="#263238" stroke-linecap="round" stroke-linejoin="round"/>
<path d="M390.391 182.84H413.761" stroke="#263238" stroke-linecap="round" stroke-linejoin="round"/>
<path d="M382.08 182.84H385.39" stroke="#263238" stroke-linecap="round" stroke-linejoin="round"/>
<path d="M296.73 182.84H378.14" stroke="#263238" stroke-linecap="round" stroke-linejoin="round"/>
<path d="M349.361 177.58V175.16H359.151V176.53H355.251V177.58" stroke="#263238" stroke-linecap="round" stroke-linejoin="round"/>
<path d="M296.932 246C296.932 246 298.562 247.23 299.702 254.67C299.702 254.67 301.702 242.79 304.042 242.61C306.382 242.43 305.942 250.33 305.942 250.33C305.942 250.33 306.342 246.44 308.202 246.62C310.062 246.8 308.202 254.62 308.202 254.62C308.202 254.62 310.442 248.48 312.562 248.62C314.682 248.76 311.162 259.74 311.162 259.74C311.162 259.74 316.602 255.8 318.802 257.74C321.002 259.68 317.582 264.52 317.582 264.52C317.582 264.52 325.382 262.83 326.582 267.41" stroke="#263238" stroke-linecap="round" stroke-linejoin="round"/>
<path d="M326.59 263C326.59 263 329.99 260.77 332.67 261.81C332.67 261.81 330.97 259.22 332.67 257.64C334.37 256.06 336.55 261.81 336.55 261.81C336.55 261.81 336.8 252.16 340.2 252.65C343.6 253.14 340.2 261.81 340.2 261.81C340.2 261.81 346.27 256.43 347.73 258.3C349.19 260.17 346.73 263 346.73 263C347.827 262.688 348.987 262.667 350.095 262.939C351.203 263.211 352.221 263.766 353.05 264.55C353.05 264.55 357.12 260.4 361.64 259.8C361.64 259.8 358.64 251.07 360.09 249.31C361.54 247.55 364.2 256.93 364.2 256.93C364.2 256.93 365.36 250.83 369.2 250.35C369.2 250.35 366.03 248.63 366.97 246.02C367.91 243.41 372.28 246.64 372.28 246.64C372.28 246.64 370.48 242.05 373.33 240.79C376.18 239.53 377.33 244.63 377.33 244.63C377.33 244.63 378.13 239.29 381.47 239.63C384.81 239.97 383.73 246.07 383.73 246.07C383.73 246.07 386.88 241.19 388.57 241.68C391.94 242.68 390.92 250.4 390.92 250.4C390.92 250.4 395.62 247.13 396.84 248.64C398.06 250.15 391.94 254.45 391.94 254.45C391.94 254.45 396.61 254.96 399.52 257.69" stroke="#263238" stroke-linecap="round" stroke-linejoin="round"/>
<path d="M413.76 247.8C413.76 247.8 413.22 242.9 408.32 242.64C403.42 242.38 409.67 253.39 409.67 253.39C409.67 253.39 405.62 250.04 404.17 251.07C402.72 252.1 408.32 257.78 408.32 257.78C408.32 257.78 405.63 255.29 402.8 256.06C399.97 256.83 404.41 264.72 404.41 264.72C400.223 263.881 395.878 264.393 392 266.18" stroke="#263238" stroke-linecap="round" stroke-linejoin="round"/>
<path d="M246.689 399.65V443.17" stroke="#263238" stroke-linecap="round" stroke-linejoin="round"/>
<path d="M246.689 385.41V394.73" stroke="#263238" stroke-linecap="round" stroke-linejoin="round"/>
<path d="M63.4902 443.43V362.33H246.69V380.13" stroke="#263238" stroke-linecap="round" stroke-linejoin="round"/>
<path d="M90.1793 371.2H74.2793V435.99" stroke="#263238" stroke-linecap="round" stroke-linejoin="round"/>
<path d="M235.9 443.17V371.2H99.4102" stroke="#263238" stroke-linecap="round" stroke-linejoin="round"/>
<path d="M228.279 353.93H223.229" stroke="#263238" stroke-linecap="round" stroke-linejoin="round"/>
<path d="M215.979 353.93H58.9395V362.27H251.239V353.93H231.499" stroke="#263238" stroke-linecap="round" stroke-linejoin="round"/>
<path d="M69.7695 300.49C69.7695 300.49 84.7695 301.68 85.4495 312.78C85.4495 312.78 70.1995 319.8 69.7695 300.49Z" stroke="#263238" stroke-linecap="round" stroke-linejoin="round"/>
<path d="M99.5391 303.25C99.5391 303.25 107.949 291.88 121.539 297.71C121.539 297.71 113.239 311.45 99.5391 303.25Z" stroke="#263238" stroke-linecap="round" stroke-linejoin="round"/>
<path d="M120.39 267.35C120.39 267.35 122.81 289.22 102.9 283.2C102.9 283.2 109.22 267.12 120.39 267.35Z" stroke="#263238" stroke-linecap="round" stroke-linejoin="round"/>
<path d="M95.9395 255.17C95.9395 255.17 111.689 263.67 100.109 276.55C100.109 276.55 89.0695 267.35 95.9395 255.17Z" stroke="#263238" stroke-linecap="round" stroke-linejoin="round"/>
<path d="M76.5703 274.72C76.5703 274.72 93.6903 273 93.6903 288.84C93.6903 288.84 76.5703 289.52 76.5703 274.72Z" stroke="#263238" stroke-linecap="round" stroke-linejoin="round"/>
<path d="M89.3995 321.73C89.1495 316.41 89.1495 309.57 92.3995 302.34C99.8895 285.66 102.4 271.61 98.5095 261.71" stroke="#263238" stroke-linecap="round" stroke-linejoin="round"/>
<path d="M82.1895 279C82.1895 279 92.4495 283.08 95.9395 293.65" stroke="#263238" stroke-linecap="round" stroke-linejoin="round"/>
<path d="M115 276.1C115 276.1 109.07 284.18 99 283.31" stroke="#263238" stroke-linecap="round" stroke-linejoin="round"/>
<path d="M115 300C115 300 98.57 304.73 92 303.18" stroke="#263238" stroke-linecap="round" stroke-linejoin="round"/>
<path d="M74.6699 305.49C74.6699 305.49 82.0199 313.55 89.3999 313.42" stroke="#263238" stroke-linecap="round" stroke-linejoin="round"/>
<path d="M108.929 321.73H73.2391C73.0084 321.73 72.7871 321.822 72.624 321.985C72.4608 322.148 72.3691 322.369 72.3691 322.6V325.31C72.3691 325.424 72.3917 325.536 72.4355 325.641C72.4794 325.746 72.5436 325.842 72.6245 325.922C72.7055 326.002 72.8015 326.065 72.907 326.107C73.0125 326.15 73.1254 326.171 73.2391 326.17H74.2391L77.4191 353.93H104.699L107.879 326.17H108.929C109.042 326.171 109.155 326.15 109.26 326.107C109.365 326.064 109.46 326.001 109.54 325.921C109.62 325.841 109.684 325.746 109.726 325.641C109.769 325.536 109.79 325.423 109.789 325.31V322.6C109.79 322.486 109.769 322.373 109.727 322.268C109.684 322.162 109.621 322.066 109.541 321.985C109.461 321.904 109.366 321.84 109.261 321.796C109.156 321.753 109.043 321.73 108.929 321.73Z" stroke="#263238" stroke-miterlimit="10"/>
<path d="M76.5703 326.17H97.3303" stroke="#263238" stroke-linecap="round" stroke-linejoin="round"/>
<path d="M101.24 326.17H104.36" stroke="#263238" stroke-linecap="round" stroke-linejoin="round"/>
<path d="M328.71 211.09L324.71 232.83L292.09 252.65L296.6 260.93C296.6 260.93 334.31 249.43 335.23 246.74C336.15 244.05 344.84 215.56 344.84 215.56L328.71 211.09Z" fill="#263238"/>
<path d="M343 174.33L340.82 200.69L339.67 214.52C333.38 217.58 327.23 212.98 326.85 212.68C328.56 207.66 330.55 179.33 343 174.33Z" fill="#999999" stroke="#263238" stroke-linecap="round" stroke-linejoin="round"/>
<path d="M340.779 200.69L339.629 214.52C333.339 217.58 327.189 212.98 326.809 212.68C327.079 212.8 330.389 214.2 332.539 212.68C331.787 211.868 331.117 210.984 330.539 210.04C330.409 209.52 332.539 209.38 332.539 209.38C332.539 209.38 331.139 198.17 334.869 193.38C336.329 191.56 338.609 195.36 340.779 200.69Z" fill="#263238"/>
<path d="M365.589 418.44L366.589 421.38C365.073 423.882 363.375 426.268 361.509 428.52C361.509 428.52 360.509 428.2 358.869 429.65C357.858 430.657 357.235 431.989 357.109 433.41C357.109 433.41 349.469 442.57 339.779 442.7C330.089 442.83 333.009 437.95 333.009 437.95L365.589 418.44Z" fill="#525298" stroke="#263238" stroke-linecap="round" stroke-linejoin="round"/>
<path d="M356.479 395.13C356.479 395.13 343.479 390.34 340.939 399.92C340.939 399.92 343.259 410.47 341.869 416.24C340.479 422.01 333.479 433.03 333.049 435.12C332.199 439.22 332.839 439.5 332.839 439.5C332.839 439.5 337.929 442.44 344.769 439.29C351.609 436.14 363.449 422.58 365.299 419.79C367.149 417 359.499 406 359.499 406L356.479 395.13Z" fill="white"/>
<mask id="mask0_1065_2677" style="mask-type:luminance" maskUnits="userSpaceOnUse" x="332" y="393" width="34" height="48">
<path d="M356.479 395.13C356.479 395.13 343.479 390.34 340.939 399.92C340.939 399.92 343.259 410.47 341.869 416.24C340.479 422.01 333.479 433.03 333.049 435.12C332.199 439.22 332.839 439.5 332.839 439.5C332.839 439.5 337.929 442.44 344.769 439.29C351.609 436.14 363.449 422.58 365.299 419.79C367.149 417 359.499 406 359.499 406L356.479 395.13Z" fill="white"/>
</mask>
<g mask="url(#mask0_1065_2677)">
<path opacity="0.4" d="M356.479 395.13C356.479 395.13 343.479 390.34 340.939 399.92C340.939 399.92 343.259 410.47 341.869 416.24C340.479 422.01 333.479 433.03 333.049 435.12C332.199 439.22 332.839 439.5 332.839 439.5C332.839 439.5 337.929 442.44 344.769 439.29C351.609 436.14 363.449 422.58 365.299 419.79C367.149 417 359.499 406 359.499 406L356.479 395.13Z" fill="#525298"/>
</g>
<path d="M356.479 395.13C356.479 395.13 343.479 390.34 340.939 399.92C340.939 399.92 343.259 410.47 341.869 416.24C340.479 422.01 333.479 433.03 333.049 435.12C332.199 439.22 332.839 439.5 332.839 439.5C332.839 439.5 337.929 442.44 344.769 439.29C351.609 436.14 363.449 422.58 365.299 419.79C367.149 417 359.499 406 359.499 406L356.479 395.13Z" stroke="#263238" stroke-linecap="round" stroke-linejoin="round"/>
<path d="M349.83 408.68C350.961 415.134 349.812 421.78 346.58 427.48" stroke="#263238" stroke-linecap="round" stroke-linejoin="round"/>
<path d="M346.58 430C346.096 431.218 345.345 432.312 344.383 433.201C343.421 434.091 342.271 434.753 341.02 435.14C338.399 435.842 335.64 435.842 333.02 435.14L336.14 428.82C339.451 430.14 343.057 430.547 346.58 430Z" fill="#525298" stroke="#263238" stroke-linecap="round" stroke-linejoin="round"/>
<path d="M348.42 426.17C348.42 426.17 341.62 426.58 338.07 425.17" stroke="#263238" stroke-linecap="round" stroke-linejoin="round"/>
<path d="M349.68 422.42C349.68 422.42 343.32 423.42 339.77 421.42" stroke="#263238" stroke-linecap="round" stroke-linejoin="round"/>
<path d="M350.759 418.25C350.759 418.25 345.189 419.06 341.549 417.34" stroke="#263238" stroke-linecap="round" stroke-linejoin="round"/>
<path d="M351.38 413.53C351.38 413.53 345.18 415.47 342.25 413.53" stroke="#263238" stroke-linecap="round" stroke-linejoin="round"/>
<path d="M352.31 401.87L353.39 408.68C353.39 408.68 345.19 414.08 339.77 407.33V400.22C339.77 400.22 341.81 405 352.31 401.87Z" fill="#525298" stroke="#263238" stroke-linecap="round" stroke-linejoin="round"/>
<path d="M345.19 249C336.88 275.33 311.09 317.56 313.7 328.37C315.13 334.27 323.64 367.7 330.3 382.37C332.83 387.98 338.3 391.73 338.3 391.73L342.25 400.2C351.88 404.39 355.33 395.87 355.33 395.87L353.39 386.27C358.55 376.89 356.39 376.89 349.68 328.27C348.89 322.54 362.18 304.83 362.18 304.83L369 349.39L370.11 385.89L373.65 397.17C373.65 397.17 374.53 407.76 374.45 408.4H390.28L392 396.76C392 396.76 399.35 389.83 399.35 381.83C399.35 373.83 397.77 333.08 399.35 321.21C400.93 309.34 395.65 254 395.65 254L345.19 249Z" fill="#263238"/>
<path d="M237.575 225.539L259.575 227.519C260.074 227.564 260.534 227.805 260.855 228.189C261.176 228.574 261.331 229.07 261.286 229.568L259.873 245.268L234.113 242.95L235.526 227.25C235.571 226.751 235.812 226.291 236.196 225.97C236.581 225.649 237.077 225.494 237.575 225.539Z" fill="#525298"/>
<mask id="mask1_1065_2677" style="mask-type:luminance" maskUnits="userSpaceOnUse" x="234" y="225" width="28" height="21">
<path d="M237.575 225.539L259.575 227.519C260.074 227.564 260.534 227.805 260.855 228.189C261.176 228.574 261.331 229.07 261.286 229.568L259.873 245.268L234.113 242.95L235.526 227.25C235.571 226.751 235.812 226.291 236.196 225.97C236.581 225.649 237.077 225.494 237.575 225.539Z" fill="white"/>
</mask>
<g mask="url(#mask1_1065_2677)">
<path opacity="0.3" d="M237.575 225.539L259.575 227.519C260.074 227.564 260.534 227.805 260.855 228.189C261.176 228.574 261.331 229.07 261.286 229.568L259.873 245.268L234.113 242.95L235.526 227.25C235.571 226.751 235.812 226.291 236.196 225.97C236.581 225.649 237.077 225.494 237.575 225.539Z" fill="black" fill-opacity="0.7"/>
<path opacity="0.3" d="M259.922 227.247L253.615 226.705L252.532 239.319L258.838 239.86L259.922 227.247Z" fill="white" fill-opacity="0.7"/>
</g>
<path d="M237.575 225.539L259.575 227.519C260.074 227.564 260.534 227.805 260.855 228.189C261.176 228.574 261.331 229.07 261.286 229.568L259.873 245.268L234.113 242.95L235.526 227.25C235.571 226.751 235.812 226.291 236.196 225.97C236.581 225.649 237.077 225.494 237.575 225.539Z" stroke="#263238" stroke-width="1.00404" stroke-linecap="round" stroke-linejoin="round"/>
<path d="M275.549 226.929L297.468 228.812C297.965 228.855 298.424 229.093 298.746 229.474C299.067 229.856 299.223 230.349 299.18 230.846L297.837 246.488L272.171 244.284L273.515 228.641C273.558 228.144 273.796 227.685 274.177 227.364C274.559 227.043 275.052 226.886 275.549 226.929Z" fill="#525298"/>
<mask id="mask2_1065_2677" style="mask-type:luminance" maskUnits="userSpaceOnUse" x="272" y="226" width="28" height="21">
<path d="M275.547 226.929L297.466 228.812C297.963 228.855 298.422 229.093 298.744 229.474C299.065 229.856 299.221 230.349 299.178 230.846L297.835 246.488L272.169 244.284L273.513 228.641C273.556 228.144 273.794 227.685 274.175 227.364C274.557 227.043 275.05 226.886 275.547 226.929Z" fill="white"/>
</mask>
<g mask="url(#mask2_1065_2677)">
<path opacity="0.3" d="M275.547 226.929L297.466 228.812C297.963 228.855 298.422 229.093 298.744 229.474C299.065 229.856 299.221 230.349 299.178 230.846L297.835 246.488L272.169 244.284L273.513 228.641C273.556 228.144 273.794 227.685 274.175 227.364C274.557 227.043 275.05 226.886 275.547 226.929Z" fill="black" fill-opacity="0.7"/>
<path opacity="0.3" d="M297.347 230.468L293.541 230.141L292.457 242.755L296.263 243.082L297.347 230.468Z" fill="white" fill-opacity="0.7"/>
</g>
<path d="M275.549 226.929L297.468 228.812C297.965 228.855 298.424 229.093 298.746 229.474C299.067 229.856 299.223 230.349 299.18 230.846L297.837 246.488L272.171 244.284L273.515 228.641C273.558 228.144 273.796 227.685 274.177 227.364C274.559 227.043 275.052 226.886 275.549 226.929Z" stroke="#263238" stroke-linecap="round" stroke-linejoin="round"/>
<path d="M267.586 226.239L289.505 228.122C290.002 228.165 290.462 228.403 290.783 228.785C291.104 229.166 291.26 229.66 291.217 230.156L289.874 245.799L264.208 243.594L265.552 227.952C265.595 227.455 265.833 226.995 266.214 226.674C266.596 226.353 267.089 226.197 267.586 226.239Z" fill="#525298" stroke="#263238" stroke-linecap="round" stroke-linejoin="round"/>
<path d="M305.44 229.498L327.359 231.381C327.856 231.424 328.315 231.662 328.636 232.043C328.957 232.425 329.114 232.918 329.071 233.415L327.728 249.047L302.063 246.843L303.406 231.2C303.452 230.705 303.691 230.249 304.072 229.93C304.453 229.611 304.944 229.455 305.44 229.498Z" fill="#525298" stroke="#263238" stroke-linecap="round" stroke-linejoin="round"/>
<path opacity="0.3" d="M289.811 229.816L283.504 229.274L282.42 241.887L288.727 242.429L289.811 229.816Z" fill="white" fill-opacity="0.7"/>
<path opacity="0.3" d="M327.248 233.028L320.941 232.487L319.858 245.1L326.165 245.642L327.248 233.028Z" fill="white" fill-opacity="0.7"/>
<path d="M339.189 246.39L332.999 318.32L217.109 308.32L223.299 236.4C223.35 235.805 223.517 235.225 223.792 234.695C224.066 234.164 224.443 233.693 224.9 233.309C225.357 232.924 225.886 232.634 226.455 232.454C227.025 232.274 227.624 232.208 228.219 232.26L335.039 241.44C335.638 241.489 336.221 241.656 336.755 241.932C337.289 242.208 337.762 242.588 338.148 243.048C338.534 243.509 338.825 244.041 339.004 244.615C339.183 245.188 339.246 245.792 339.189 246.39Z" fill="#525298"/>
<mask id="mask3_1065_2677" style="mask-type:luminance" maskUnits="userSpaceOnUse" x="217" y="232" width="123" height="87">
<path d="M339.189 246.39L332.999 318.32L217.109 308.32L223.299 236.4C223.35 235.805 223.517 235.225 223.792 234.695C224.066 234.164 224.443 233.693 224.9 233.309C225.357 232.924 225.886 232.634 226.455 232.454C227.025 232.274 227.624 232.208 228.219 232.26L335.039 241.44C335.638 241.489 336.221 241.656 336.755 241.932C337.289 242.208 337.762 242.588 338.148 243.048C338.534 243.509 338.825 244.041 339.004 244.615C339.183 245.188 339.246 245.792 339.189 246.39Z" fill="white"/>
</mask>
<g mask="url(#mask3_1065_2677)">
<path opacity="0.3" d="M339.189 246.39L332.999 318.32L217.109 308.32L223.299 236.4C223.35 235.805 223.517 235.225 223.792 234.695C224.066 234.164 224.443 233.693 224.9 233.309C225.357 232.924 225.886 232.634 226.455 232.454C227.025 232.274 227.624 232.208 228.219 232.26L335.039 241.44C335.638 241.489 336.221 241.656 336.755 241.932C337.289 242.208 337.762 242.588 338.148 243.048C338.534 243.509 338.825 244.041 339.004 244.615C339.183 245.188 339.246 245.792 339.189 246.39Z" fill="black" fill-opacity="0.7"/>
</g>
<path d="M339.189 246.39L332.999 318.32L217.109 308.32L223.299 236.4C223.35 235.805 223.517 235.225 223.792 234.695C224.066 234.164 224.443 233.693 224.9 233.309C225.357 232.924 225.886 232.634 226.455 232.454C227.025 232.274 227.624 232.208 228.219 232.26L335.039 241.44C335.638 241.489 336.221 241.656 336.755 241.932C337.289 242.208 337.762 242.588 338.148 243.048C338.534 243.509 338.825 244.041 339.004 244.615C339.183 245.188 339.246 245.792 339.189 246.39Z" stroke="#263238" stroke-linecap="round" stroke-linejoin="round"/>
<path d="M339.19 246.39L333 318.32L247 310.92L253.2 239C253.25 238.405 253.418 237.825 253.692 237.295C253.967 236.764 254.344 236.293 254.801 235.909C255.258 235.524 255.786 235.234 256.356 235.054C256.925 234.874 257.525 234.808 258.12 234.86L335.05 241.47C335.645 241.52 336.225 241.688 336.755 241.962C337.285 242.237 337.757 242.614 338.141 243.071C338.526 243.528 338.816 244.056 338.996 244.626C339.176 245.195 339.242 245.795 339.19 246.39Z" fill="#525298" stroke="#263238" stroke-linecap="round" stroke-linejoin="round"/>
<path opacity="0.3" d="M333.15 248.45L259.64 242.13C259.15 242.087 258.697 241.853 258.377 241.479C258.057 241.105 257.897 240.621 257.93 240.13C257.973 239.64 258.207 239.186 258.581 238.867C258.955 238.547 259.439 238.387 259.93 238.42L333.44 244.74C333.93 244.783 334.384 245.017 334.703 245.391C335.023 245.765 335.183 246.249 335.15 246.74C335.107 247.23 334.873 247.684 334.499 248.003C334.125 248.323 333.641 248.483 333.15 248.45Z" fill="white" fill-opacity="0.7"/>
<path d="M390.799 408.81C390.799 408.81 385.259 404.86 373.799 405.65C373.799 405.65 372.959 419.4 371.399 423.4C369.839 427.4 361.619 434.33 360.089 435.52C358.559 436.71 358.559 440.86 358.559 440.86H393.379C392.932 434.908 392.006 429.003 390.609 423.2L390.799 408.81Z" fill="white"/>
<mask id="mask4_1065_2677" style="mask-type:luminance" maskUnits="userSpaceOnUse" x="358" y="405" width="36" height="36">
<path d="M390.799 408.81C390.799 408.81 385.259 404.86 373.799 405.65C373.799 405.65 372.959 419.4 371.399 423.4C369.839 427.4 361.619 434.33 360.089 435.52C358.559 436.71 358.559 440.86 358.559 440.86H393.379C392.932 434.908 392.006 429.003 390.609 423.2L390.799 408.81Z" fill="white"/>
</mask>
<g mask="url(#mask4_1065_2677)">
<path opacity="0.4" d="M390.799 408.81C390.799 408.81 385.259 404.86 373.799 405.65C373.799 405.65 372.959 419.4 371.399 423.4C369.839 427.4 361.619 434.33 360.089 435.52C358.559 436.71 358.559 440.86 358.559 440.86H393.379C392.932 434.908 392.006 429.003 390.609 423.2L390.799 408.81Z" fill="#525298"/>
</g>
<path d="M390.799 408.81C390.799 408.81 385.259 404.86 373.799 405.65C373.799 405.65 372.959 419.4 371.399 423.4C369.839 427.4 361.619 434.33 360.089 435.52C358.559 436.71 358.559 440.86 358.559 440.86H393.379C392.932 434.908 392.006 429.003 390.609 423.2L390.799 408.81Z" stroke="#263238" stroke-linecap="round" stroke-linejoin="round"/>
<path d="M383.609 410.59C383.609 410.59 382.789 423.25 380.819 426.59C379.767 428.425 378.468 430.108 376.959 431.59" stroke="#263238" stroke-linecap="round" stroke-linejoin="round"/>
<path d="M375.999 433.34C375.999 433.34 374.249 435.52 372.309 435.81C370.369 436.1 360.119 435.52 360.119 435.52L364.299 431.9C364.299 431.9 372.799 430.47 375.999 433.34Z" fill="#525298" stroke="#263238" stroke-linecap="round" stroke-linejoin="round"/>
<path d="M379.62 430.37C379.62 430.37 372.2 426.11 366.91 429.37" stroke="#263238" stroke-linecap="round" stroke-linejoin="round"/>
<path d="M381.409 427.48C381.409 427.48 376.229 423.43 370.119 425.65" stroke="#263238" stroke-linecap="round" stroke-linejoin="round"/>
<path d="M383.608 423.07C383.608 423.07 378.028 418.73 372.148 421.49" stroke="#263238" stroke-linecap="round" stroke-linejoin="round"/>
<path d="M384.37 417.56C384.37 417.56 377.6 413.92 372.68 416.68" stroke="#263238" stroke-linecap="round" stroke-linejoin="round"/>
<path d="M393.37 440.86V443.43H389.37C389.37 443.43 385.94 441.43 382.68 443.43H363.9C361.916 443.423 359.957 442.983 358.16 442.14L358.55 440.86H393.37Z" fill="#525298" stroke="#263238" stroke-linecap="round" stroke-linejoin="round"/>
<path d="M388.38 408L387.49 413.61C387.49 413.61 377.04 410.22 371.27 412.42V405.52C371.27 405.52 382 401.76 388.38 408Z" fill="#525298" stroke="#263238" stroke-linecap="round" stroke-linejoin="round"/>
<path d="M399.679 268.23C399.679 268.23 377.469 272.58 355.679 265.52C350.718 263.939 345.972 261.749 341.549 259C341.549 259 341.609 257.6 341.649 255.31C341.829 246.37 341.779 223.88 337.069 218.31C334.069 214.8 331.719 193.1 337.509 182.13L355.219 167.89C379.739 172.68 384.919 179.17 388.969 193.17C389.719 195.73 390.419 198.54 391.199 201.64C392.049 205.02 392.849 209.15 393.609 213.64C397.289 236 399.679 268.23 399.679 268.23Z" fill="#999999"/>
<mask id="mask5_1065_2677" style="mask-type:luminance" maskUnits="userSpaceOnUse" x="333" y="167" width="67" height="103">
<path d="M399.679 268.23C399.679 268.23 377.469 272.58 355.679 265.52C350.718 263.939 345.972 261.749 341.549 259C341.549 259 341.609 257.6 341.649 255.31C341.829 246.37 341.779 223.88 337.069 218.31C334.069 214.8 331.719 193.1 337.509 182.13L355.219 167.89C379.739 172.68 384.919 179.17 388.969 193.17C389.719 195.73 390.419 198.54 391.199 201.64C392.049 205.02 392.849 209.15 393.609 213.64C397.289 236 399.679 268.23 399.679 268.23Z" fill="white"/>
</mask>
<g mask="url(#mask5_1065_2677)">
<path opacity="0.2" d="M393.609 213.64L383.609 258.31C383.609 258.31 369.159 262.31 355.689 265.52C350.724 263.94 345.974 261.75 341.549 259C341.549 259 341.609 257.6 341.649 255.31C353.749 249.12 371.409 240.02 371.269 239.59C371.039 238.92 371.269 215.59 371.269 215.59C371.269 215.59 387.269 211.88 388.969 193.14C389.719 195.7 390.419 198.51 391.199 201.61C392.049 205 392.849 209.1 393.609 213.64Z" fill="black"/>
</g>
<path d="M399.679 268.23C399.679 268.23 377.469 272.58 355.679 265.52C350.718 263.939 345.972 261.749 341.549 259C341.549 259 341.609 257.6 341.649 255.31C341.829 246.37 341.779 223.88 337.069 218.31C334.069 214.8 331.719 193.1 337.509 182.13L355.219 167.89C379.739 172.68 384.919 179.17 388.969 193.17C389.719 195.73 390.419 198.54 391.199 201.64C392.049 205.02 392.849 209.15 393.609 213.64C397.289 236 399.679 268.23 399.679 268.23Z" stroke="#263238" stroke-linecap="round" stroke-linejoin="round"/>
<path d="M356 149.2C356 149.2 348.18 160.4 358.58 169.14C358.58 169.14 345.96 183.3 341.81 181.35C340.06 180.53 341.81 175.42 341.81 175.42L334.49 161.88L356 149.2Z" fill="white" stroke="#263238" stroke-linecap="round" stroke-linejoin="round"/>
<path d="M353.45 155C355.89 144.33 354.72 128.44 339.77 129.85C329.29 130.85 321.82 136.65 324.77 150.71C326 156.64 327.01 165.04 332.45 172.62C333.96 174.72 349.76 167.29 348.8 161.28" fill="white"/>
<path d="M353.45 155C355.89 144.33 354.72 128.44 339.77 129.85C329.29 130.85 321.82 136.65 324.77 150.71C326 156.64 327.01 165.04 332.45 172.62C333.96 174.72 349.76 167.29 348.8 161.28" stroke="#263238" stroke-linecap="round" stroke-linejoin="round"/>
<path d="M332.059 148.33C333.113 147.922 334.248 147.766 335.373 147.876C336.499 147.985 337.583 148.356 338.539 148.96" stroke="#263238" stroke-linecap="round" stroke-linejoin="round"/>
<path d="M324.539 149.64C324.731 149.231 325.064 148.904 325.478 148.72C325.891 148.537 326.356 148.508 326.789 148.64" stroke="#263238" stroke-linecap="round" stroke-linejoin="round"/>
<path d="M328.279 151.86C328.279 151.86 325.199 157.47 325.189 158.27C325.179 159.07 328.979 159.34 328.979 159.34" fill="white"/>
<path d="M328.279 151.86C328.279 151.86 325.199 157.47 325.189 158.27C325.179 159.07 328.979 159.34 328.979 159.34" stroke="#263238" stroke-linecap="round" stroke-linejoin="round"/>
<path d="M334.9 153C334.9 153.61 334.63 154.11 334.25 154.13C333.87 154.15 333.55 153.65 333.53 153.04C333.51 152.43 333.8 151.93 334.18 151.92C334.56 151.91 334.88 152.41 334.9 153Z" fill="#263238"/>
<path d="M330.549 163.42C330.549 163.42 336.459 162.31 337.549 160.23" stroke="#263238" stroke-linecap="round" stroke-linejoin="round"/>
<path d="M324.5 141L329.1 139.66C329.1 139.66 335.55 136.66 336.92 137.08C338.29 137.5 341.07 141.77 340.98 144.21C340.98 144.21 345.32 148.03 345.87 153.57L347.19 152.97C347.19 152.97 347.12 147.97 349.96 148.1C352.8 148.23 354.08 151.63 353.89 152.7C353.7 153.77 350.59 158.21 350.59 158.21C350.59 158.21 357.71 157.15 357.94 143.21C358.17 129.27 342.89 127 335.46 127.57C331.698 127.93 327.918 128.071 324.14 127.99L324.56 131.99L321.56 132.78L323.82 135.55L321.34 136.68L324.5 141Z" fill="#263238"/>
<path d="M350.26 293C350.26 293 368.36 297.79 373.26 311.27" stroke="white" stroke-linecap="round" stroke-linejoin="round"/>
<path d="M358.549 300.25C358.549 300.25 348.769 316.54 333.799 325" stroke="white" stroke-linecap="round" stroke-linejoin="round"/>
<path d="M344.799 391.86C344.799 391.86 350.359 390.61 351.879 388.45" stroke="white" stroke-linecap="round" stroke-linejoin="round"/>
<path d="M375.76 393.93C375.76 393.93 381.2 391.11 386.62 393.93" stroke="white" stroke-linecap="round" stroke-linejoin="round"/>
<path d="M393.369 318.09C393.369 318.09 384.239 341.74 379.619 343.93" stroke="white" stroke-linecap="round" stroke-linejoin="round"/>
<path d="M353.389 281.05C353.639 283.62 364.389 295.53 373.259 300.25" stroke="white" stroke-linecap="round" stroke-linejoin="round"/>
<path d="M362.559 271C363.853 274.189 364.122 277.701 363.329 281.05C362.466 283.94 362.466 287.02 363.329 289.91" stroke="white" stroke-linecap="round" stroke-linejoin="round"/>
<path d="M343 221.82C343 221.82 359.83 243.6 377.92 250.75" stroke="#263238" stroke-linecap="round" stroke-linejoin="round"/>
<path d="M360.42 186.61C360.42 186.61 360.36 201.42 371.04 208.1" stroke="#263238" stroke-linecap="round" stroke-linejoin="round"/>
<path d="M366.43 208.22C364.17 210.44 366.63 238.3 366.63 238.3C366.63 238.3 353.5 243.44 349.39 246.75C345.28 250.06 325.81 257.66 325.81 257.66C325.81 257.66 322.81 267.88 326.55 268.23C330.29 268.58 369.02 255.38 377.88 250.75C377.88 250.75 383.65 216.75 383.61 208.1" fill="white"/>
<path d="M366.43 208.22C364.17 210.44 366.63 238.3 366.63 238.3C366.63 238.3 353.5 243.44 349.39 246.75C345.28 250.06 325.81 257.66 325.81 257.66C325.81 257.66 322.81 267.88 326.55 268.23C330.29 268.58 369.02 255.38 377.88 250.75C377.88 250.75 383.65 216.75 383.61 208.1" stroke="#263238" stroke-linecap="round" stroke-linejoin="round"/>
<path d="M327.349 257.05C325.549 256.71 322.349 255.53 320.669 255.92C318.989 256.31 315.919 258.16 312.759 258.92C309.599 259.68 310.909 260.92 312.759 261.29C314.113 261.515 315.495 261.515 316.849 261.29L314.279 263.8C312.808 264.597 311.288 265.301 309.729 265.91C308.799 265.91 305.509 266.8 305.729 268.2C305.949 269.6 307.839 269.44 309.949 269.52C309.949 269.52 306.589 270.19 306.949 272.1C307.169 273.41 310.949 272.23 312.879 272.23C312.879 272.23 311.299 273.95 312.479 274.48C313.659 275.01 316.279 273.69 316.279 273.69C316.279 273.69 316.179 275.11 317.359 275.25C318.539 275.39 321.509 274.25 323.529 273.03C325.518 271.748 327.422 270.338 329.229 268.81C329.994 268.111 330.869 267.543 331.819 267.13" fill="white"/>
<path d="M327.349 257.05C325.549 256.71 322.349 255.53 320.669 255.92C318.989 256.31 315.919 258.16 312.759 258.92C309.599 259.68 310.909 260.92 312.759 261.29C314.113 261.515 315.495 261.515 316.849 261.29L314.279 263.8C312.808 264.597 311.288 265.301 309.729 265.91C308.799 265.91 305.509 266.8 305.729 268.2C305.949 269.6 307.839 269.44 309.949 269.52C309.949 269.52 306.589 270.19 306.949 272.1C307.169 273.41 310.949 272.23 312.879 272.23C312.879 272.23 311.299 273.95 312.479 274.48C313.659 275.01 316.279 273.69 316.279 273.69C316.279 273.69 316.179 275.11 317.359 275.25C318.539 275.39 321.509 274.25 323.529 273.03C325.518 271.748 327.422 270.338 329.229 268.81C329.994 268.111 330.869 267.543 331.819 267.13" stroke="#263238" stroke-linecap="round" stroke-linejoin="round"/>
<path d="M310 269.56C310.929 269.51 311.854 269.403 312.77 269.24C313.56 269.04 314.35 268.78 314.35 268.78" stroke="#263238" stroke-linecap="round" stroke-linejoin="round"/>
<path d="M312.889 272.27C314.097 272.1 315.262 271.699 316.319 271.09" stroke="#263238" stroke-linecap="round" stroke-linejoin="round"/>
<path d="M316.289 273.73C317.183 273.617 318.039 273.299 318.789 272.8" stroke="#263238" stroke-linecap="round" stroke-linejoin="round"/>
<path d="M314.599 264.56C314.599 264.56 313.879 266.21 314.599 267.13C315.319 268.05 316.189 268.13 316.319 269.13C316.449 270.13 318.169 270.13 318.789 270.78C319.409 271.43 319.879 272.68 321.859 272.78" stroke="#263238" stroke-linecap="round" stroke-linejoin="round"/>
<path d="M365.589 179.33C358.779 194.74 365.589 216.12 365.589 216.12C365.589 216.12 382.069 221.72 383.589 219.31C385.109 216.9 387.889 205.08 388.359 199.62" fill="#999999"/>
<path d="M365.589 179.33C358.779 194.74 365.589 216.12 365.589 216.12C365.589 216.12 382.069 221.72 383.589 219.31C385.109 216.9 387.889 205.08 388.359 199.62" stroke="#263238" stroke-linecap="round" stroke-linejoin="round"/>
<path d="M383.609 201.33C383.609 201.33 376.609 210.96 371.039 211.09" stroke="#263238" stroke-linecap="round" stroke-linejoin="round"/>
<path d="M133.409 443.43C133.409 443.43 131.699 436.9 133.699 434.48C137.279 430.14 133.259 426.48 136.859 424.99L138.369 426.74C138.659 424.97 137.819 419.56 144.499 418.86C152.579 418.01 152.729 423.86 153.169 425.86L153.029 423.15C156.479 423.15 154.689 426.59 159.909 432.21C161.278 433.727 162.32 435.51 162.97 437.447C163.62 439.384 163.865 441.434 163.689 443.47L133.409 443.43Z" fill="#263238"/>
<path d="M194.999 443.43C191.749 441.98 194.729 429.72 194.729 429.72C194.729 429.72 190.359 426.79 194.729 423.72C196.419 425.152 198.469 426.095 200.656 426.448C202.843 426.8 205.085 426.549 207.139 425.72C207.139 425.72 207.989 417.52 213.139 418.57C213.139 418.57 214.459 423.77 217.469 426.74C225.619 434.74 236.149 435.74 237.909 439.58C238.439 440.74 237.799 443.39 237.799 443.39L194.999 443.43Z" fill="#263238"/>
<path d="M181.11 247.91L185.11 256.39C185.11 256.39 201.65 290.57 211.78 329.71C212.02 330.64 217.26 349.18 213.06 395.35L215.46 403.45L212.84 416.83C212.84 416.83 216.78 422.52 216.64 424.38C216.64 424.38 206.92 426.19 203.64 427.93C201.12 429.29 193.55 436.76 193.55 436.76C191.4 436.32 191.21 427.64 191.21 427.64C191.21 427.64 186.72 350.57 185.43 347.25C184.14 343.93 176.26 329.61 163.96 296.84C163.96 296.84 163.68 342.61 160.4 354.19C157.47 364.49 160.94 393.32 160.94 393.32L158.94 425.41C158.94 425.41 165.86 432.6 160.25 434.53C160.25 434.53 156.5 427.32 145.82 425.68C140.39 424.84 133.63 434.48 133.63 434.48C131.25 433.72 134.63 421.61 134.63 421.61C127.06 364.49 132.63 374.83 131.13 346.91C130.13 328.99 125.08 252.33 131.04 246.1L181.11 247.91Z" fill="#BFBFBF"/>
<mask id="mask6_1065_2677" style="mask-type:luminance" maskUnits="userSpaceOnUse" x="128" y="246" width="89" height="191">
<path d="M181.11 247.91L185.11 256.39C185.11 256.39 201.65 290.57 211.78 329.71C212.02 330.64 217.26 349.18 213.06 395.35L215.46 403.45L212.84 416.83C212.84 416.83 216.78 422.52 216.64 424.38C216.64 424.38 206.92 426.19 203.64 427.93C201.12 429.29 193.55 436.76 193.55 436.76C191.4 436.32 191.21 427.64 191.21 427.64C191.21 427.64 186.72 350.57 185.43 347.25C184.14 343.93 176.26 329.61 163.96 296.84C163.96 296.84 163.68 342.61 160.4 354.19C157.47 364.49 160.94 393.32 160.94 393.32L158.94 425.41C158.94 425.41 165.86 432.6 160.25 434.53C160.25 434.53 156.5 427.32 145.82 425.68C140.39 424.84 133.63 434.48 133.63 434.48C131.25 433.72 134.63 421.61 134.63 421.61C127.06 364.49 132.63 374.83 131.13 346.91C130.13 328.99 125.08 252.33 131.04 246.1L181.11 247.91Z" fill="white"/>
</mask>
<g mask="url(#mask6_1065_2677)">
<path opacity="0.2" d="M128.26 274.31C155 276.41 178.15 267.66 188.2 263.09C186.29 258.81 185.12 256.39 185.12 256.39L181.12 247.92L131.12 246.1C129 248.35 128.25 259.78 128.26 274.31Z" fill="black"/>
<path opacity="0.2" d="M164.23 297.43C176.4 329.78 184.23 343.94 185.49 347.24C186.22 349.16 188.01 375.33 189.41 397.29C191.01 377.29 192.66 356.22 192.8 352.09C193.1 343.85 187.15 332.56 186.26 329.64C185.37 326.72 187.38 323.56 187.38 323.56L176.68 310.06C177.04 305.48 171.37 285.49 171.37 285.49C168 288.68 165 295.47 164.23 297.43Z" fill="black"/>
</g>
<path d="M181.11 247.91L185.11 256.39C185.11 256.39 201.65 290.57 211.78 329.71C212.02 330.64 217.26 349.18 213.06 395.35L215.46 403.45L212.84 416.83C212.84 416.83 216.78 422.52 216.64 424.38C216.64 424.38 206.92 426.19 203.64 427.93C201.12 429.29 193.55 436.76 193.55 436.76C191.4 436.32 191.21 427.64 191.21 427.64C191.21 427.64 186.72 350.57 185.43 347.25C184.14 343.93 176.26 329.61 163.96 296.84C163.96 296.84 163.68 342.61 160.4 354.19C157.47 364.49 160.94 393.32 160.94 393.32L158.94 425.41C158.94 425.41 165.86 432.6 160.25 434.53C160.25 434.53 156.5 427.32 145.82 425.68C140.39 424.84 133.63 434.48 133.63 434.48C131.25 433.72 134.63 421.61 134.63 421.61C127.06 364.49 132.63 374.83 131.13 346.91C130.13 328.99 125.08 252.33 131.04 246.1L181.11 247.91Z" stroke="#263238" stroke-linecap="round" stroke-linejoin="round"/>
<path d="M164 296.84C164 296.84 170.11 285.05 175.32 281.76" stroke="#263238" stroke-linecap="round" stroke-linejoin="round"/>
<path d="M177.619 277.94C177.619 277.94 159.059 283.59 152.619 284.68" stroke="#263238" stroke-linecap="round" stroke-linejoin="round"/>
<path d="M168.12 259C168.92 274.45 174.37 277.08 169.12 280.45C169.12 280.45 169.27 287.68 166.65 292.26" stroke="#263238" stroke-linecap="round" stroke-linejoin="round"/>
<path d="M135.6 253.09C135.6 253.09 137.79 276.84 130.48 281.31" stroke="#263238" stroke-linecap="round" stroke-linejoin="round"/>
<path d="M130.481 260.75C130.481 260.75 129.931 276.56 130.481 289.3C130.481 289.3 132.311 343.15 134.141 349.91C135.971 356.67 131.321 366.91 131.721 396.13" stroke="#263238" stroke-linecap="round" stroke-linejoin="round"/>
<path d="M148.001 419C146.27 418.624 144.462 418.864 142.891 419.68" stroke="#263238" stroke-linecap="round" stroke-linejoin="round"/>
<path d="M159.001 425.41C156.707 423.178 154.049 421.355 151.141 420.02" stroke="#263238" stroke-linecap="round" stroke-linejoin="round"/>
<path d="M156 300.57C151.9 305.17 145.4 313.84 138.74 314.57" stroke="#263238" stroke-linecap="round" stroke-linejoin="round"/>
<path d="M162.271 293.09C161.011 294.68 159.711 296.24 158.391 297.79" stroke="#263238" stroke-linecap="round" stroke-linejoin="round"/>
<path d="M156.43 346.91C156.43 346.91 147.11 359.6 142 360.33" stroke="#263238" stroke-linecap="round" stroke-linejoin="round"/>
<path d="M167.391 294.55C167.391 294.55 183.991 340.78 189.761 345.34C189.761 345.34 190.411 379.34 190.601 391.21C190.791 403.08 193.521 418.86 193.521 418.86" stroke="#263238" stroke-linecap="round" stroke-linejoin="round"/>
<path d="M211.239 418.52C211.239 418.52 204.849 420.73 201.739 422.14C199.829 423.072 198.333 424.679 197.539 426.65" stroke="#263238" stroke-linecap="round" stroke-linejoin="round"/>
<path d="M195.07 328.67C186.16 323.08 174.41 316.09 169.67 306.24" stroke="#263238" stroke-linecap="round" stroke-linejoin="round"/>
<path d="M202.84 333.28C201.15 332.35 199.49 331.38 197.84 330.38" stroke="#263238" stroke-linecap="round" stroke-linejoin="round"/>
<path d="M174.761 265.25C169.971 265.18 164.761 264.55 160.631 261.84" stroke="#263238" stroke-linecap="round" stroke-linejoin="round"/>
<path d="M182.37 264.8C181 264.99 179.62 265.11 178.24 265.18" stroke="#263238" stroke-linecap="round" stroke-linejoin="round"/>
<path d="M191.26 158.64C187.6 153.1 168.95 151.69 156.98 151.69C145.01 151.69 130.48 149.69 123.92 163.19C118.92 173.5 130.44 228.02 130.44 228.02L127.62 251.56C149.3 258.36 186.44 256.86 186.44 256.86L181.44 235.58C181.44 235.58 194.92 164.17 191.26 158.64Z" fill="#263238"/>
<path d="M149.87 138C149.87 138 151.48 150.83 146.6 153.6C146.6 153.6 149.04 163.01 157.6 163.6C166.16 164.19 169.94 155 169.94 155L149.87 138Z" fill="white" stroke="#263238" stroke-linecap="round" stroke-linejoin="round"/>
<path d="M195.235 105.058L217.142 103.037C217.638 102.992 218.132 103.145 218.516 103.464C218.899 103.782 219.141 104.24 219.186 104.737L220.628 120.37L195.017 122.733L193.575 107.099C193.53 106.609 193.678 106.121 193.988 105.74C194.299 105.358 194.746 105.114 195.235 105.058Z" fill="#525298"/>
<mask id="mask7_1065_2677" style="mask-type:luminance" maskUnits="userSpaceOnUse" x="193" y="103" width="28" height="20">
<path d="M195.235 105.058L217.142 103.037C217.638 102.992 218.132 103.145 218.516 103.464C218.899 103.782 219.141 104.24 219.186 104.737L220.628 120.37L195.017 122.733L193.575 107.099C193.53 106.609 193.678 106.121 193.988 105.74C194.299 105.358 194.746 105.114 195.235 105.058Z" fill="white"/>
</mask>
<g mask="url(#mask7_1065_2677)">
<path opacity="0.3" d="M195.235 105.058L217.142 103.037C217.638 102.992 218.132 103.145 218.516 103.464C218.899 103.782 219.141 104.24 219.186 104.737L220.628 120.37L195.017 122.733L193.575 107.099C193.53 106.609 193.678 106.121 193.988 105.74C194.299 105.358 194.746 105.114 195.235 105.058Z" fill="black" fill-opacity="0.7"/>
<path opacity="0.3" d="M217.78 104.619L211.477 105.2L212.639 117.807L218.943 117.225L217.78 104.619Z" fill="white" fill-opacity="0.7"/>
</g>
<path d="M195.235 105.058L217.142 103.037C217.638 102.992 218.132 103.145 218.516 103.464C218.899 103.782 219.141 104.24 219.186 104.737L220.628 120.37L195.017 122.733L193.575 107.099C193.53 106.609 193.678 106.121 193.988 105.74C194.299 105.358 194.746 105.114 195.235 105.058Z" stroke="#263238" stroke-linecap="round" stroke-linejoin="round"/>
<path d="M233.11 101.544L255.017 99.5229C255.514 99.4771 256.008 99.6304 256.392 99.9491C256.775 100.268 257.016 100.726 257.062 101.222L258.504 116.856L232.853 119.222L231.411 103.588C231.365 103.092 231.518 102.597 231.837 102.214C232.156 101.831 232.614 101.589 233.11 101.544Z" fill="#525298"/>
<mask id="mask8_1065_2677" style="mask-type:luminance" maskUnits="userSpaceOnUse" x="231" y="99" width="28" height="21">
<path d="M233.11 101.544L255.017 99.5229C255.514 99.4771 256.008 99.6304 256.392 99.9491C256.775 100.268 257.016 100.726 257.062 101.222L258.504 116.856L232.853 119.222L231.411 103.588C231.365 103.092 231.518 102.597 231.837 102.214C232.156 101.831 232.614 101.589 233.11 101.544Z" fill="white"/>
</mask>
<g mask="url(#mask8_1065_2677)">
<path opacity="0.3" d="M233.11 101.544L255.017 99.5229C255.514 99.4771 256.008 99.6304 256.392 99.9491C256.775 100.268 257.016 100.726 257.062 101.222L258.504 116.856L232.853 119.222L231.411 103.588C231.365 103.092 231.518 102.597 231.837 102.214C232.156 101.831 232.614 101.589 233.11 101.544Z" fill="black" fill-opacity="0.7"/>
<path opacity="0.3" d="M255.202 101.177L251.398 101.528L252.561 114.134L256.365 113.783L255.202 101.177Z" fill="white" fill-opacity="0.7"/>
</g>
<path d="M233.11 101.544L255.017 99.5229C255.514 99.4771 256.008 99.6304 256.392 99.9491C256.775 100.268 257.016 100.726 257.062 101.222L258.504 116.856L232.853 119.222L231.411 103.588C231.365 103.092 231.518 102.597 231.837 102.214C232.156 101.831 232.614 101.589 233.11 101.544Z" stroke="#263238" stroke-linecap="round" stroke-linejoin="round"/>
<path d="M225.152 102.272L247.059 100.251C247.556 100.205 248.05 100.358 248.433 100.677C248.817 100.996 249.058 101.454 249.104 101.95L250.546 117.584L224.855 119.954L223.413 104.32C223.39 104.071 223.417 103.819 223.492 103.581C223.568 103.342 223.69 103.121 223.852 102.93C224.014 102.739 224.212 102.583 224.436 102.47C224.659 102.357 224.902 102.289 225.152 102.272Z" fill="#525298" stroke="#263238" stroke-linecap="round" stroke-linejoin="round"/>
<path d="M262.991 98.7808L284.898 96.7601C285.395 96.7143 285.889 96.8676 286.273 97.1863C286.656 97.505 286.897 97.9629 286.943 98.4594L288.385 114.093L262.734 116.459L261.292 100.825C261.246 100.329 261.399 99.8346 261.718 99.4512C262.037 99.0677 262.495 98.8265 262.991 98.7808Z" fill="#525298" stroke="#263238" stroke-linecap="round" stroke-linejoin="round"/>
<path opacity="0.3" d="M247.661 101.866L241.357 102.447L242.52 115.054L248.823 114.472L247.661 101.866Z" fill="white" fill-opacity="0.7"/>
<path opacity="0.3" d="M285.084 98.4035L278.781 98.9849L279.944 111.591L286.247 111.01L285.084 98.4035Z" fill="white" fill-opacity="0.7"/>
<path d="M299.21 109.42L305.85 181.3L190 192L183.4 120.1C183.289 118.899 183.66 117.702 184.43 116.774C185.201 115.846 186.309 115.262 187.51 115.15L294.27 105.3C294.865 105.245 295.465 105.308 296.036 105.486C296.607 105.663 297.137 105.951 297.596 106.334C298.055 106.717 298.434 107.187 298.711 107.716C298.988 108.246 299.158 108.825 299.21 109.42Z" fill="#525298"/>
<mask id="mask9_1065_2677" style="mask-type:luminance" maskUnits="userSpaceOnUse" x="183" y="105" width="123" height="87">
<path d="M299.21 109.42L305.85 181.3L190 192L183.4 120.1C183.289 118.899 183.66 117.702 184.43 116.774C185.201 115.846 186.309 115.262 187.51 115.15L294.27 105.3C294.865 105.245 295.465 105.308 296.036 105.486C296.607 105.663 297.137 105.951 297.596 106.334C298.055 106.717 298.434 107.187 298.711 107.716C298.988 108.246 299.158 108.825 299.21 109.42Z" fill="white"/>
</mask>
<g mask="url(#mask9_1065_2677)">
<path opacity="0.3" d="M299.21 109.42L305.85 181.3L190 192L183.4 120.1C183.289 118.899 183.66 117.702 184.43 116.774C185.201 115.846 186.309 115.262 187.51 115.15L294.27 105.3C294.865 105.245 295.465 105.308 296.036 105.486C296.607 105.663 297.137 105.951 297.596 106.334C298.055 106.717 298.434 107.187 298.711 107.716C298.988 108.246 299.158 108.825 299.21 109.42Z" fill="black" fill-opacity="0.7"/>
</g>
<path d="M299.21 109.42L305.85 181.3L190 192L183.4 120.1C183.289 118.899 183.66 117.702 184.43 116.774C185.201 115.846 186.309 115.262 187.51 115.15L294.27 105.3C294.865 105.245 295.465 105.308 296.036 105.486C296.607 105.663 297.137 105.951 297.596 106.334C298.055 106.717 298.434 107.187 298.711 107.716C298.988 108.246 299.157 108.825 299.21 109.42Z" stroke="#263238" stroke-linecap="round" stroke-linejoin="round"/>
<path d="M299.211 109.42L305.851 181.3L219.851 189.23L213.221 117.35C213.109 116.149 213.48 114.952 214.251 114.024C215.021 113.096 216.129 112.512 217.331 112.4L294.221 105.3C294.82 105.238 295.425 105.296 296.001 105.47C296.578 105.644 297.114 105.932 297.578 106.315C298.043 106.698 298.426 107.17 298.706 107.704C298.987 108.237 299.158 108.82 299.211 109.42Z" fill="#525298" stroke="#263238" stroke-linecap="round" stroke-linejoin="round"/>
<path opacity="0.3" d="M293.639 112.51L220.169 119.29C219.68 119.323 219.197 119.164 218.823 118.847C218.45 118.529 218.215 118.078 218.169 117.59C218.133 117.102 218.29 116.619 218.606 116.245C218.922 115.871 219.372 115.636 219.859 115.59L293.329 108.81C293.818 108.777 294.301 108.936 294.675 109.253C295.049 109.571 295.283 110.022 295.329 110.51C295.36 110.997 295.202 111.477 294.887 111.85C294.572 112.223 294.125 112.459 293.639 112.51Z" fill="white" fill-opacity="0.7"/>
<path d="M164.54 112.56C164.54 112.56 147.59 109.16 145.69 120.07C143.79 130.98 150 135.62 150 135.62L164.54 112.56Z" fill="#263238"/>
<path d="M150.001 141.61C148.064 136.187 147.762 130.314 149.131 124.72C150.791 117.72 159.131 108.09 171.781 116.84C178.291 121.35 178.691 131.14 176.661 140.1C176.181 142.24 176.541 144.33 175.831 146.3C173.331 153.2 168.761 158.51 166.261 158.63C162.091 158.84 153.751 153.79 154.091 149.39" fill="white"/>
<path d="M150.001 141.61C148.064 136.187 147.762 130.314 149.131 124.72C150.791 117.72 159.131 108.09 171.781 116.84C178.291 121.35 178.691 131.14 176.661 140.1C176.181 142.24 176.541 144.33 175.831 146.3C173.331 153.2 168.761 158.51 166.261 158.63C162.091 158.84 153.751 153.79 154.091 149.39" stroke="#263238" stroke-linecap="round" stroke-linejoin="round"/>
<path d="M166.889 138.44C166.889 138.44 163.519 136 160.279 138" stroke="#263238" stroke-linecap="round" stroke-linejoin="round"/>
<path d="M173.25 138C173.25 138 175.8 135.66 177.46 136" stroke="#263238" stroke-linecap="round" stroke-linejoin="round"/>
<path d="M162.131 142.18C162.131 142.8 162.441 143.31 162.831 143.31C163.221 143.31 163.541 142.8 163.541 142.18C163.541 141.56 163.221 141.06 162.831 141.06C162.441 141.06 162.131 141.56 162.131 142.18Z" fill="#263238"/>
<path d="M173.249 142.68C173.641 142.68 173.959 142.179 173.959 141.56C173.959 140.941 173.641 140.44 173.249 140.44C172.857 140.44 172.539 140.941 172.539 141.56C172.539 142.179 172.857 142.68 173.249 142.68Z" fill="#263238"/>
<path d="M171.819 140.36C170.579 141.98 172.319 148.15 171.819 148.59C171.319 149.03 168.139 147.78 168.139 147.78C168.139 147.78 167.399 146.84 168.949 146.34" stroke="#263238" stroke-linecap="round" stroke-linejoin="round"/>
<path d="M169 151.69C169 151.69 164.73 151.69 163.59 150.13" stroke="#263238" stroke-linecap="round" stroke-linejoin="round"/>
<path d="M158.78 128.58L158.45 133.74C158.45 133.74 154.79 135.63 153.87 137.55C153.322 138.808 153.122 140.189 153.29 141.55C153.29 141.55 151.07 137.67 149.87 137.99C149.44 138.1 149.44 139.73 149.44 139.73C149.44 139.73 144.44 128.57 148.96 122.67C153.48 116.77 158.78 128.58 158.78 128.58Z" fill="#757575" stroke="#263238" stroke-linecap="round" stroke-linejoin="round"/>
<path d="M151.73 140.44C151.73 140.44 150.73 136.69 147.36 135.7C143.99 134.71 146.3 143.7 149.17 144.87C152.04 146.04 152.76 146.87 152.93 145.8" fill="white"/>
<path d="M151.73 140.44C151.73 140.44 150.73 136.69 147.36 135.7C143.99 134.71 146.3 143.7 149.17 144.87C152.04 146.04 152.76 146.87 152.93 145.8" stroke="#263238" stroke-linecap="round" stroke-linejoin="round"/>
<path d="M147.139 127.93C146.859 127.55 145.619 117.93 151.969 113.61C158.319 109.29 169.049 109.75 175.879 115.73C182.709 121.71 180.769 132.08 175.879 135.62V131.29C175.879 131.29 173.629 135.63 166.879 135.99L168.939 132.81C168.939 132.81 165.619 134.81 159.769 134.64C159.769 134.64 162.519 132.45 162.119 130.5C162.129 130.5 152.839 135.73 147.139 127.93Z" fill="#263238"/>
<path d="M148.331 162.61C143.651 163.17 136.991 169.28 141.331 180.13C144.101 187.01 166.861 182.92 166.861 182.92C175.301 179.44 187.631 166.92 196.681 161.11C196.681 161.11 194.771 149.11 192.571 150.81C182.341 158.64 173.931 159.18 159.661 166.04C159.691 166 151.271 162.26 148.331 162.61Z" fill="white" stroke="#263238" stroke-linecap="round" stroke-linejoin="round"/>
<path d="M158.781 175.93C158.641 180.41 160.481 181.2 163.581 182.26L158.781 175.93Z" fill="white"/>
<path d="M158.781 175.93C158.641 180.41 160.481 181.2 163.581 182.26" stroke="#263238" stroke-linecap="round" stroke-linejoin="round"/>
<path d="M191.891 151.69C192.101 151.04 195.891 144.38 196.961 142.69C198.031 141 202.811 139.47 204.661 138.45C206.511 137.43 206.661 135.88 207.661 136.99C208.661 138.1 207.661 140.63 202.121 143.32C204.089 143.429 206.062 143.429 208.031 143.32C209.511 143.1 210.831 141.76 211.491 142.69C212.151 143.62 212.281 145.29 208.981 146.31C207.411 146.879 205.767 147.216 204.101 147.31C205.715 147.655 207.303 148.116 208.851 148.69C209.381 149.08 210.171 149.99 210.961 150.13C211.751 150.27 212.611 151.13 211.161 152.13C210.646 152.414 210.071 152.568 209.483 152.579C208.896 152.589 208.315 152.456 207.791 152.19C207.791 152.19 211.621 154.04 210.431 155.19C209.241 156.34 205.431 156.11 205.431 156.11C205.431 156.11 199.781 163 195.001 161.56" fill="white"/>
<path d="M191.891 151.69C192.101 151.04 195.891 144.38 196.961 142.69C198.031 141 202.811 139.47 204.661 138.45C206.511 137.43 206.661 135.88 207.661 136.99C208.661 138.1 207.661 140.63 202.121 143.32C204.089 143.429 206.062 143.429 208.031 143.32C209.511 143.1 210.831 141.76 211.491 142.69C212.151 143.62 212.281 145.29 208.981 146.31C207.411 146.879 205.767 147.216 204.101 147.31C205.715 147.655 207.303 148.116 208.851 148.69C209.381 149.08 210.171 149.99 210.961 150.13C211.751 150.27 212.611 151.13 211.161 152.13C210.646 152.414 210.071 152.568 209.483 152.579C208.896 152.589 208.315 152.456 207.791 152.19C207.791 152.19 211.621 154.04 210.431 155.19C209.241 156.34 205.431 156.11 205.431 156.11C205.431 156.11 199.781 163 195.001 161.56" stroke="#263238" stroke-linecap="round" stroke-linejoin="round"/>
<path d="M198.66 142.68C198.984 142.755 199.28 142.918 199.516 143.151C199.753 143.384 199.92 143.678 200 144C200.33 145.18 201.3 145.25 201.89 146.57C202.48 147.89 202.31 149.93 202.89 150.63C203.47 151.33 202.89 154.28 202.89 154.28" stroke="#263238" stroke-linecap="round" stroke-linejoin="round"/>
<path d="M149.309 161.76C146.859 158.64 141.359 160.05 141.359 160.05" stroke="white" stroke-linecap="round" stroke-linejoin="round"/>
<path d="M138.359 154.3C138.359 154.3 144.019 155.13 145.689 159.84" stroke="white" stroke-linecap="round" stroke-linejoin="round"/>
<path d="M148.33 184.12C148.33 184.12 142.81 188.39 134.41 182.26" stroke="white" stroke-linecap="round" stroke-linejoin="round"/>
<path d="M141.36 185.41C141.36 185.41 138.56 189.28 131.74 189.23" stroke="white" stroke-linecap="round" stroke-linejoin="round"/>
<path d="M176.44 234.1C176.44 234.1 162 245.61 147.33 244.1" stroke="white" stroke-linecap="round" stroke-linejoin="round"/>
<path d="M137.41 208.81C137.41 208.81 159.82 225.25 176.41 226.3" stroke="white" stroke-linecap="round" stroke-linejoin="round"/>
<path d="M138 330.51C141.855 328.371 146.387 327.805 150.65 328.93C157.96 330.77 176.95 357.93 179.59 360.58C182.23 363.23 187.17 364.58 191.72 369.37C198.92 376.88 209.39 383.52 210.45 383.52C211.51 383.52 212.36 382.86 213.68 382.6C215 382.34 225.22 381.41 225.22 381.41C225.22 381.41 228.65 382.17 225.22 383.64C221.79 385.11 222.05 386.42 222.05 386.42C222.05 386.42 221.36 387.53 222.74 388.59C224.12 389.65 224.93 389.07 226.9 391.86C228.87 394.65 224.12 393.07 224.12 393.07C224.12 393.07 225.17 396.07 223.06 395.77C220.95 395.47 222.8 398.7 219.37 398.26C215.94 397.82 208.6 393.19 206.76 388.34C206.76 388.34 176.82 374.03 172.34 370.34C167.86 366.65 149 346.86 147.71 346.6" fill="#263238"/>
<path d="M216.329 357.31H238.329C238.828 357.31 239.306 357.508 239.659 357.861C240.011 358.213 240.209 358.691 240.209 359.19V374.89H214.449V359.19C214.449 358.691 214.647 358.213 215 357.861C215.352 357.508 215.831 357.31 216.329 357.31Z" fill="#525298"/>
<mask id="mask10_1065_2677" style="mask-type:luminance" maskUnits="userSpaceOnUse" x="214" y="357" width="27" height="18">
<path d="M216.329 357.31H238.329C238.828 357.31 239.306 357.508 239.659 357.861C240.011 358.213 240.209 358.691 240.209 359.19V374.89H214.449V359.19C214.449 358.691 214.647 358.213 215 357.861C215.352 357.508 215.831 357.31 216.329 357.31Z" fill="white"/>
</mask>
<g mask="url(#mask10_1065_2677)">
<path opacity="0.3" d="M216.329 357.31H238.329C238.828 357.31 239.306 357.508 239.659 357.861C240.011 358.213 240.209 358.691 240.209 359.19V374.89H214.449V359.19C214.449 358.691 214.647 358.213 215 357.861C215.352 357.508 215.831 357.31 216.329 357.31Z" fill="black" fill-opacity="0.7"/>
<path opacity="0.3" d="M238.779 358.97H232.449V371.63H238.779V358.97Z" fill="white" fill-opacity="0.7"/>
</g>
<path d="M216.329 357.31H238.329C238.828 357.31 239.306 357.508 239.659 357.861C240.011 358.213 240.209 358.691 240.209 359.19V374.89H214.449V359.19C214.449 358.691 214.647 358.213 215 357.861C215.352 357.508 215.831 357.31 216.329 357.31Z" stroke="#263238" stroke-linecap="round" stroke-linejoin="round"/>
<path d="M254.329 357.31H276.329C276.828 357.31 277.306 357.508 277.659 357.861C278.011 358.213 278.209 358.691 278.209 359.19V374.89H252.449V359.19C252.449 358.943 252.498 358.699 252.592 358.471C252.687 358.243 252.825 358.035 253 357.861C253.174 357.686 253.382 357.548 253.61 357.453C253.838 357.359 254.082 357.31 254.329 357.31Z" fill="#525298"/>
<mask id="mask11_1065_2677" style="mask-type:luminance" maskUnits="userSpaceOnUse" x="252" y="357" width="27" height="18">
<path d="M254.329 357.31H276.329C276.828 357.31 277.306 357.508 277.659 357.861C278.011 358.213 278.209 358.691 278.209 359.19V374.89H252.449V359.19C252.449 358.943 252.498 358.699 252.592 358.471C252.687 358.243 252.825 358.035 253 357.861C253.174 357.686 253.382 357.548 253.61 357.453C253.838 357.359 254.082 357.31 254.329 357.31Z" fill="white"/>
</mask>
<g mask="url(#mask11_1065_2677)">
<path opacity="0.3" d="M254.329 357.31H276.329C276.828 357.31 277.306 357.508 277.659 357.861C278.011 358.213 278.209 358.691 278.209 359.19V374.89H252.449V359.19C252.449 358.943 252.498 358.699 252.592 358.471C252.687 358.243 252.825 358.035 253 357.861C253.174 357.686 253.382 357.548 253.61 357.453C253.838 357.359 254.082 357.31 254.329 357.31Z" fill="black" fill-opacity="0.7"/>
<path opacity="0.3" d="M276.359 358.97H272.539V371.63H276.359V358.97Z" fill="white" fill-opacity="0.7"/>
</g>
<path d="M254.329 357.31H276.329C276.828 357.31 277.306 357.508 277.659 357.861C278.011 358.213 278.209 358.691 278.209 359.19V374.89H252.449V359.19C252.449 358.943 252.498 358.699 252.592 358.471C252.687 358.243 252.825 358.035 253 357.861C253.174 357.686 253.382 357.548 253.61 357.453C253.838 357.359 254.082 357.31 254.329 357.31Z" stroke="#263238" stroke-linecap="round" stroke-linejoin="round"/>
<path d="M246.329 357.31H268.329C268.828 357.31 269.306 357.508 269.659 357.861C270.011 358.213 270.209 358.691 270.209 359.19V374.89H244.449V359.19C244.449 358.943 244.498 358.699 244.592 358.471C244.687 358.243 244.825 358.035 245 357.861C245.174 357.686 245.382 357.548 245.61 357.453C245.838 357.359 246.082 357.31 246.329 357.31Z" fill="#525298" stroke="#263238" stroke-linecap="round" stroke-linejoin="round"/>
<path d="M284.329 357.31H306.329C306.828 357.31 307.306 357.508 307.659 357.861C308.011 358.213 308.209 358.691 308.209 359.19V374.89H282.449V359.19C282.449 358.691 282.647 358.213 283 357.861C283.352 357.508 283.831 357.31 284.329 357.31Z" fill="#525298" stroke="#263238" stroke-linecap="round" stroke-linejoin="round"/>
<path opacity="0.3" d="M268.779 358.97H262.449V371.63H268.779V358.97Z" fill="white" fill-opacity="0.7"/>
<path opacity="0.3" d="M306.359 358.97H300.029V371.63H306.359V358.97Z" fill="white" fill-opacity="0.7"/>
<path d="M319.419 371.23V443.42H203.109V371.23C203.109 370.023 203.589 368.866 204.442 368.013C205.295 367.159 206.453 366.68 207.659 366.68H314.869C316.076 366.68 317.233 367.159 318.087 368.013C318.94 368.866 319.419 370.023 319.419 371.23Z" fill="#525298"/>
<mask id="mask12_1065_2677" style="mask-type:luminance" maskUnits="userSpaceOnUse" x="203" y="366" width="117" height="78">
<path d="M319.419 371.23V443.42H203.109V371.23C203.109 370.023 203.589 368.866 204.442 368.013C205.295 367.159 206.453 366.68 207.659 366.68H314.869C316.076 366.68 317.233 367.159 318.087 368.013C318.94 368.866 319.419 370.023 319.419 371.23Z" fill="white"/>
</mask>
<g mask="url(#mask12_1065_2677)">
<path opacity="0.3" d="M319.419 371.23V443.42H203.109V371.23C203.109 370.023 203.589 368.866 204.442 368.013C205.295 367.159 206.453 366.68 207.659 366.68H314.869C316.076 366.68 317.233 367.159 318.087 368.013C318.94 368.866 319.419 370.023 319.419 371.23Z" fill="black" fill-opacity="0.7"/>
</g>
<path d="M319.419 371.23V443.42H203.109V371.23C203.109 370.023 203.589 368.866 204.442 368.013C205.295 367.159 206.453 366.68 207.659 366.68H314.869C316.076 366.68 317.233 367.159 318.087 368.013C318.94 368.866 319.419 370.023 319.419 371.23Z" stroke="#263238" stroke-linecap="round" stroke-linejoin="round"/>
<path d="M319.419 371.23V443.42H233.109V371.23C233.109 370.023 233.589 368.866 234.442 368.013C235.295 367.159 236.453 366.68 237.659 366.68H314.869C316.076 366.68 317.233 367.159 318.087 368.013C318.94 368.866 319.419 370.023 319.419 371.23Z" fill="#525298" stroke="#263238" stroke-linecap="round" stroke-linejoin="round"/>
<path opacity="0.3" d="M313.58 373.8H239.8C239.302 373.8 238.824 373.602 238.471 373.249C238.118 372.897 237.92 372.419 237.92 371.92C237.915 371.67 237.96 371.421 238.052 371.188C238.144 370.956 238.282 370.744 238.457 370.565C238.632 370.386 238.841 370.244 239.072 370.147C239.302 370.05 239.55 370 239.8 370H313.58C314.079 370 314.557 370.198 314.91 370.551C315.262 370.903 315.46 371.381 315.46 371.88C315.466 372.13 315.421 372.379 315.329 372.612C315.237 372.844 315.099 373.056 314.924 373.235C314.749 373.414 314.54 373.556 314.309 373.653C314.078 373.75 313.831 373.8 313.58 373.8Z" fill="white" fill-opacity="0.7"/>
<path d="M177 443.42C171 443.42 162.57 439.56 152.86 435.48C142.79 431.24 131.32 426.76 119.68 426.09C115.34 425.84 117.97 443.42 117.97 443.42H108.47C108.47 443.42 99.09 430.9 98 419.69C98 419.69 105.66 414.96 107.5 414.69C108.134 414.624 108.772 414.594 109.41 414.6C111.47 414.6 114.22 414.69 114.22 414.69C113.78 414.43 106.77 410.21 102.9 405.92C99.71 402.38 98.25 396.79 98.14 393.45C98.2636 391.239 98.5073 389.035 98.87 386.85L148.79 387.68C148.79 387.68 149.33 388.06 150.29 388.77C156.08 392.99 177.24 408.71 187.82 420.56C191.24 424.39 193.55 427.81 193.89 430.31C195.48 441.84 186.05 443.42 177 443.42Z" fill="#757575" stroke="#263238" stroke-linecap="round" stroke-linejoin="round"/>
<path d="M187.83 420.54L163.55 426.09C159.387 428.471 155.745 431.664 152.84 435.48C142.77 431.24 131.3 426.76 119.66 426.09C115.32 425.84 117.95 443.42 117.95 443.42H108.45C108.45 443.42 99.09 430.9 98 419.69C98 419.69 106.84 432.29 109 438.69C109 438.69 112.43 426.85 118 422.1C115.484 419.267 112.626 416.757 109.49 414.63C111.55 414.63 114.3 414.72 114.3 414.72C113.86 414.46 106.85 410.24 102.98 405.95C99.79 402.41 98.5 396.81 98.22 393.48C98.08 391.84 98.28 386.88 98.28 386.88C98.28 386.88 135.51 392.19 150.37 388.8C156.09 393 177.25 408.69 187.83 420.54Z" fill="#263238"/>
<path d="M148.801 419.69C148.801 419.69 168.581 429.6 173.861 433.48C179.141 437.36 180.711 436.31 180.711 436.31" stroke="#263238" stroke-linecap="round" stroke-linejoin="round"/>
<path d="M102.91 418.64C102.91 418.64 107.66 425.89 107.91 428.06" stroke="#263238" stroke-linecap="round" stroke-linejoin="round"/>
<path d="M182.47 279.48C182.47 279.48 193 274.9 192 294.38C191 313.86 194.57 314.86 194.57 314.86C194.57 314.86 168.07 325.74 161.34 316.44C154.61 307.14 161 281.69 182.47 279.48Z" fill="#263238"/>
<path d="M181.001 314.86C181.001 314.86 170.101 320 169.111 324.75C168.121 329.5 154.471 322.35 154.471 322.35L164.361 308.13L181.001 314.86Z" fill="white" stroke="#263238" stroke-linecap="round" stroke-linejoin="round"/>
<path d="M109.531 367C84.5305 398.84 104.821 414.2 133.161 411.66L127.481 420.66L141.741 423.13C141.741 423.13 152.671 415.99 167.571 408.36C192.931 395.36 203.181 396.14 200.571 383.13C197.961 370.12 166.881 361.68 135.721 375.39C135.691 375.38 118.771 355.28 109.531 367Z" fill="#757575" stroke="#263238" stroke-linecap="round" stroke-linejoin="round"/>
<path d="M118.251 436.31C118.251 436.31 124.761 418.31 127.481 417.31C130.201 416.31 140.481 420.21 141.741 423.11C141.741 423.11 145.211 417.79 146.631 420.05C148.051 422.31 146.001 426.05 146.631 428.91C147.261 431.77 154.291 435.77 157.101 436.3C159.911 436.83 161.511 438.41 161.511 439.99V443.42H118.251C117.771 442.296 117.523 441.087 117.523 439.865C117.523 438.643 117.771 437.434 118.251 436.31Z" fill="white" stroke="#263238" stroke-linecap="round" stroke-linejoin="round"/>
<path d="M146.63 426.09C146.63 426.09 140.9 428.92 138.81 428.09C136.72 427.26 139.88 432.84 140.67 433.37C141.46 433.9 146.67 431.52 146.67 431.52" stroke="#263238" stroke-linecap="round" stroke-linejoin="round"/>
<path d="M123.66 423.12C123.66 423.12 131.44 423.27 133.81 426.12" stroke="#263238" stroke-linecap="round" stroke-linejoin="round"/>
<path d="M118.25 436.31C118.25 436.31 130.65 439.21 131.7 439.21C133.405 438.872 135.078 438.387 136.7 437.76C136.7 437.76 140.1 439.47 142.36 440.53C144.62 441.59 159.36 440.53 159.36 440.53" stroke="#263238" stroke-linecap="round" stroke-linejoin="round"/>
<path d="M133.16 411.68C145 410.4 168 395.81 176 390.74C184 385.67 186 387 186 387" stroke="#263238" stroke-linecap="round" stroke-linejoin="round"/>
<path d="M98.2109 386.83L100.101 372.48L104.661 369.04C112.051 351.11 145.531 317.62 154.661 317.73C168.371 317.89 170.791 332.28 172.481 348.03C174.171 363.78 152.811 361.41 152.811 361.41V365.36L140.661 371.65L148.021 371.42C148.021 371.42 126.851 392 98.2109 386.83Z" fill="#525298" stroke="#263238" stroke-linecap="round" stroke-linejoin="round"/>
<path d="M157.55 290C160.42 281 173.55 278.6 178.27 280.07C182.144 281.583 185.319 284.48 187.18 288.2C188.38 290.79 185.87 295.37 187.66 298.04C190.22 301.87 190 309.95 189.08 315.04C188.58 317.74 177.35 319.34 168.17 313.04C158.31 306.22 154.77 298.66 157.55 290Z" fill="white" stroke="#263238" stroke-linecap="round" stroke-linejoin="round"/>
<path d="M170.82 277.38C170.82 277.38 182.38 275.5 182.46 278.47C182.97 298.2 171.14 302.34 171.14 302.34C171.14 302.34 166.31 298.49 165.23 301.13C164.15 303.77 166.93 311.07 170.35 311.22C169.562 312.444 169.131 313.864 169.106 315.32C169.081 316.776 169.464 318.21 170.21 319.46C170.21 319.46 150.63 322.73 149.01 313.66C149.767 310.507 150.308 307.306 150.63 304.08C151.9 291.37 148.93 282.82 170.82 277.38Z" fill="#263238"/>
<path d="M186.26 297.49C188.67 299.66 190.4 299.66 190.37 300.44C190.28 302.87 187.37 304.08 187.37 304.08" fill="white"/>
<path d="M186.26 297.49C188.67 299.66 190.4 299.66 190.37 300.44C190.28 302.87 187.37 304.08 187.37 304.08" stroke="#263238" stroke-linecap="round" stroke-linejoin="round"/>
<path d="M187.309 308.13C185.606 308.706 183.768 308.752 182.039 308.26" stroke="#263238" stroke-linecap="round" stroke-linejoin="round"/>
<path d="M180.899 285.38C180.899 285.38 188.589 283.15 187.179 295.63C187.179 295.63 190.379 291.28 190.369 286.39C190.369 277.92 179.039 279.62 179.039 279.62L180.519 285.62" fill="#263238"/>
<path d="M187.891 291.49C187.599 291.297 187.272 291.164 186.928 291.1C186.585 291.037 186.232 291.044 185.891 291.12" stroke="#263238" stroke-linecap="round" stroke-linejoin="round"/>
<path d="M182.709 291.35C182.709 291.35 178.579 291.59 176.789 294.35" stroke="#263238" stroke-linecap="round" stroke-linejoin="round"/>
<path d="M181.719 297.92C181.779 298.58 181.499 299.15 181.089 299.19C180.679 299.23 180.299 298.72 180.229 298.06C180.159 297.4 180.449 296.83 180.859 296.79C181.269 296.75 181.659 297.26 181.719 297.92Z" fill="#263238"/>
<path d="M133.811 414.68C133.811 414.68 143.011 415.68 145.011 419.68" stroke="#263238" stroke-linecap="round" stroke-linejoin="round"/>
<path d="M157.1 324.48C160.955 322.341 165.487 321.775 169.75 322.9C177.07 324.75 196.05 351.9 198.69 354.55C201.33 357.2 206.27 358.55 210.82 363.34C218.02 370.85 228.49 377.49 229.55 377.49C230.61 377.49 231.46 376.83 232.78 376.57C234.1 376.31 244.32 375.38 244.32 375.38C244.32 375.38 247.75 376.15 244.32 377.61C240.89 379.07 241.15 380.4 241.15 380.4C241.15 380.4 240.47 381.5 241.84 382.56C243.21 383.62 244.03 383.04 246 385.83C247.97 388.62 243.22 387.04 243.22 387.04C243.22 387.04 244.27 390.04 242.16 389.74C240.05 389.44 241.9 392.67 238.47 392.23C235.04 391.79 227.7 387.16 225.86 382.31C225.86 382.31 195.92 368 191.44 364.31C186.96 360.62 168.12 340.83 166.79 340.57" fill="white"/>
<path d="M157.1 324.48C160.955 322.341 165.487 321.775 169.75 322.9C177.07 324.75 196.05 351.9 198.69 354.55C201.33 357.2 206.27 358.55 210.82 363.34C218.02 370.85 228.49 377.49 229.55 377.49C230.61 377.49 231.46 376.83 232.78 376.57C234.1 376.31 244.32 375.38 244.32 375.38C244.32 375.38 247.75 376.15 244.32 377.61C240.89 379.07 241.15 380.4 241.15 380.4C241.15 380.4 240.47 381.5 241.84 382.56C243.21 383.62 244.03 383.04 246 385.83C247.97 388.62 243.22 387.04 243.22 387.04C243.22 387.04 244.27 390.04 242.16 389.74C240.05 389.44 241.9 392.67 238.47 392.23C235.04 391.79 227.7 387.16 225.86 382.31C225.86 382.31 195.92 368 191.44 364.31C186.96 360.62 168.12 340.83 166.79 340.57" stroke="#263238" stroke-linecap="round" stroke-linejoin="round"/>
<path d="M152.801 321.58C152.801 321.58 167.561 317.63 172.711 320.53C177.861 323.43 187.621 336.88 187.621 336.88C187.621 336.88 175.721 347.53 172.041 346.56C168.361 345.59 157.101 344 157.101 344" fill="#525298"/>
<path d="M152.801 321.58C152.801 321.58 167.561 317.63 172.711 320.53C177.861 323.43 187.621 336.88 187.621 336.88C187.621 336.88 175.721 347.53 172.041 346.56C168.361 345.59 157.101 344 157.101 344" stroke="#263238" stroke-linecap="round" stroke-linejoin="round"/>
<path d="M165.599 345.3C165.599 345.3 160.249 348.24 158.279 348.24" stroke="#263238" stroke-linecap="round" stroke-linejoin="round"/>
<path d="M157.1 330.55C157.55 331.34 157.4 339.99 166.79 342.68" stroke="#263238" stroke-linecap="round" stroke-linejoin="round"/>
<path d="M106.91 369.32C106.91 369.32 126.91 372.75 133.81 366.68" stroke="#263238" stroke-linecap="round" stroke-linejoin="round"/>
<path d="M140.649 371.65C140.649 371.65 135.649 370.77 133.809 373.34C131.969 375.91 121.949 378.34 121.949 378.34" stroke="#263238" stroke-linecap="round" stroke-linejoin="round"/>
<path d="M100.451 390.74C100.451 390.74 97.5606 403.2 109.891 408.74" stroke="#263238" stroke-linecap="round" stroke-linejoin="round"/>
<path d="M106.91 391.6C106.91 391.6 106.98 397.74 108.91 401.1L115.04 403.1L121.9 399.28C121.9 399.28 120.44 391.43 120.31 389.84" stroke="#263238" stroke-linecap="round" stroke-linejoin="round"/>
</svg>
